<svg width="50" height="57" viewBox="0 0 50 57" fill="none" xmlns="http://www.w3.org/2000/svg">
<path fill-rule="evenodd" clip-rule="evenodd" d="M38.4017 43.4395C39.2914 43.4395 40.0328 44.2272 40.0328 45.2119L40.0328 52.8677L44.9012 52.8677C45.7909 52.8677 46.5322 53.6554 46.5322 54.6401C46.5322 55.6248 45.8156 56.4125 44.9012 56.4125L31.9269 56.4125C31.0373 56.4125 30.2959 55.6248 30.2959 54.6401C30.2959 53.6554 31.0126 52.8677 31.9269 52.8677L36.7954 52.8677L36.7954 45.2119C36.7954 44.2272 37.5121 43.4395 38.4264 43.4395H38.4017Z" fill="#23293E"/>
<path fill-rule="evenodd" clip-rule="evenodd" d="M11.5138 43.4395C12.4034 43.4395 13.1448 44.2272 13.1448 45.2119L13.1448 52.8677L18.0133 52.8677C18.9029 52.8677 19.6443 53.6554 19.6443 54.6401C19.6443 55.6248 18.9276 56.4125 18.0133 56.4125L5.03901 56.4125C4.14934 56.4125 3.40796 55.6248 3.40796 54.6401C3.40796 53.6554 4.12463 52.8677 5.03901 52.8677L9.90744 52.8677L9.90744 45.2119C9.90744 44.2272 10.6241 43.4395 11.5385 43.4395H11.5138Z" fill="#23293E"/>
<path d="M1.43974 13.4564C1.43974 8.70263 5.32626 4.80382 10.1307 4.80382L39.7862 4.80382C44.5926 4.80382 48.4772 8.67995 48.4772 13.4564L48.4772 35.6114C48.4772 40.3878 44.5926 44.2639 39.7862 44.2639L10.1307 44.2639C5.32432 44.2639 1.43974 40.3878 1.43974 35.6114L1.43974 13.4564Z" fill="#A9ACB2" stroke="#0A1128" stroke-width="2.38827"/>
<path fill-rule="evenodd" clip-rule="evenodd" d="M22.6414 21.335C22.6414 20.4907 23.4897 19.7905 24.5126 19.7905L36.9879 19.7905C38.0109 19.7905 38.8592 20.4907 38.8592 21.335C38.8592 22.1794 38.0109 22.8796 36.9879 22.8796L24.5126 22.8796C23.4897 22.8796 22.6414 22.1794 22.6414 21.335Z" fill="#004FFF"/>
<path fill-rule="evenodd" clip-rule="evenodd" d="M22.6414 27.513C22.6414 26.6686 23.3492 25.9684 24.2027 25.9684L45.0206 25.9684C45.8741 25.9684 46.5819 26.6686 46.5819 27.513C46.5819 28.3574 45.8741 29.0576 45.0206 29.0576L24.2027 29.0576C23.3492 29.0576 22.6414 28.3574 22.6414 27.513Z" fill="#004FFF"/>
<path d="M40.6258 0.483459L36.1528 0.483459C35.6091 0.483459 35.1643 0.92656 35.1643 1.46813C35.1643 2.00969 35.6091 2.45279 36.1528 2.45279L37.6109 2.45279V3.63439L39.1431 3.63439V2.45279L40.6011 2.45279C41.1448 2.45279 41.5896 2.00969 41.5896 1.46813C41.5896 0.92656 41.1448 0.483459 40.6011 0.483459L40.6258 0.483459ZM40.6258 1.83738L36.1528 1.83738C35.9551 1.83738 35.7821 1.66506 35.7821 1.46813C35.7821 1.27119 35.9551 1.09888 36.1528 1.09888L40.6258 1.09888C40.8236 1.09888 40.9965 1.27119 40.9965 1.46813C40.9965 1.66506 40.8236 1.83738 40.6258 1.83738Z" fill="#23293E"/>
<path d="M27.1827 0.483459L22.7097 0.483459C22.166 0.483459 21.7212 0.92656 21.7212 1.46813C21.7212 2.00969 22.166 2.45279 22.7097 2.45279L24.1678 2.45279L24.1678 3.63439L25.7 3.63439L25.7 2.45279L27.158 2.45279C27.7017 2.45279 28.1465 2.00969 28.1465 1.46813C28.1465 0.92656 27.7017 0.483459 27.158 0.483459L27.1827 0.483459ZM27.1827 1.83738L22.7097 1.83738C22.512 1.83738 22.339 1.66506 22.339 1.46813C22.339 1.27119 22.512 1.09888 22.7097 1.09888L27.1827 1.09888C27.3804 1.09888 27.5534 1.27119 27.5534 1.46813C27.5534 1.66506 27.3804 1.83738 27.1827 1.83738Z" fill="#23293E"/>
<path d="M13.7633 0.483459L9.29027 0.483459C8.74659 0.483459 8.30176 0.92656 8.30176 1.46813C8.30176 2.00969 8.74659 2.45279 9.29027 2.45279L10.7483 2.45279L10.7483 3.63439L12.2805 3.63439L12.2805 2.45279L13.7386 2.45279C14.2823 2.45279 14.7271 2.00969 14.7271 1.46813C14.7271 0.92656 14.2823 0.483459 13.7386 0.483459L13.7633 0.483459ZM13.7633 1.83738L9.29027 1.83738C9.09257 1.83738 8.91958 1.66506 8.91958 1.46813C8.91958 1.27119 9.09257 1.09888 9.29027 1.09888L13.7633 1.09888C13.961 1.09888 14.134 1.27119 14.134 1.46813C14.134 1.66506 13.961 1.83738 13.7633 1.83738Z" fill="#23293E"/>
<path d="M19.4953 23.6441C14.3905 22.9428 9.98855 26.7332 10.2843 31.7607M8.35364 22.1072C8.35364 22.5169 8.51637 22.9097 8.80603 23.1994C9.09569 23.4891 9.48855 23.6518 9.89819 23.6518C10.3078 23.6518 10.7007 23.4891 10.9904 23.1994C11.28 22.9097 11.4427 22.5169 11.4427 22.1072C11.4427 21.6976 11.28 21.3047 10.9904 21.0151C10.7007 20.7254 10.3078 20.5627 9.89819 20.5627C9.48855 20.5627 9.09569 20.7254 8.80603 21.0151C8.51637 21.3047 8.35364 21.6976 8.35364 22.1072Z" stroke="#004FFF" stroke-width="1.19414" stroke-linecap="round" stroke-linejoin="round"/>
<path d="M5.65112 26.0196C7.79805 25.7223 9.72488 26.7594 10.7667 28.4137" stroke="#004FFF" stroke-width="1.19414" stroke-linecap="round" stroke-linejoin="round"/>
<path d="M5.65125 25.1963C5.65125 21.9196 5.65125 20.2816 6.66911 19.2637C7.68697 18.2458 9.32574 18.2458 12.6017 18.2458C15.8785 18.2458 17.5165 18.2458 18.5344 19.2637C19.5522 20.2816 19.5522 21.9203 19.5522 25.1963C19.5522 28.4731 19.5522 30.1111 18.5344 31.129C17.5165 32.1468 15.8777 32.1468 12.6017 32.1468C9.32497 32.1468 7.68697 32.1468 6.66911 31.129C5.65125 30.1111 5.65125 28.4723 5.65125 25.1963Z" stroke="#004FFF" stroke-width="1.19414" stroke-linecap="round" stroke-linejoin="round"/>
</svg>
