<svg width="162" height="219" viewBox="0 0 162 219" fill="none" xmlns="http://www.w3.org/2000/svg">
<path d="M76.728 72.6706C76.6883 72.5324 81.1492 66.6656 81.1492 66.6656L77.2172 62.553L72.7933 66.0243L76.728 72.6706Z" fill="#FFBF9D"/>
<path d="M148.473 42.7997L149.505 46.3923C149.505 46.3923 151.712 49.662 152.489 50.0542C152.693 50.1567 152.889 50.3104 153.078 50.3798C153.776 50.6354 154.699 50.3875 154.509 49.5667C154.509 49.5667 155.234 49.6746 155.585 48.986C155.9 48.3695 155.215 47.6192 155.215 47.6192C155.215 47.6192 156.009 47.8213 156.368 47.2814C156.665 46.8352 156.243 46.2507 156.243 46.2507C156.243 46.2507 156.599 45.6408 156.421 45.3069C156.242 44.9731 155.549 44.2905 155.549 44.2905C155.549 44.2905 154.784 42.5275 154.114 41.5474C153.479 40.6186 152.435 39.8633 152.435 39.8633L148.473 42.7997Z" fill="#FFBF9D"/>
<path d="M156.327 46.324C156.353 46.2716 156.002 46.054 155.646 45.7025C155.287 45.3549 155.061 45.0089 155.01 45.0365C154.962 45.0579 155.12 45.4722 155.506 45.8469C155.888 46.2231 156.306 46.3724 156.327 46.324Z" fill="#FF9A6C"/>
<path d="M155.359 47.7272C155.384 47.6743 155.04 47.4749 154.687 47.1509C154.33 46.8303 154.098 46.5085 154.048 46.5383C154 46.562 154.168 46.9548 154.552 47.3002C154.933 47.6484 155.34 47.7768 155.359 47.7272Z" fill="#FF9A6C"/>
<path d="M152.488 47.5652C152.434 47.5806 152.669 48.2136 153.262 48.7552C153.844 49.2967 154.417 49.5843 154.441 49.5436C154.477 49.4918 153.958 49.1293 153.4 48.6092C152.835 48.0924 152.54 47.5415 152.488 47.5652Z" fill="#FF9A6C"/>
<path d="M12.0403 139.742C11.9896 139.848 11.3467 141.065 11.5224 141.505C11.6987 141.947 12.2491 142.016 12.2491 142.016C12.2491 142.016 12.3119 142.63 12.6837 142.937C13.0556 143.245 13.6727 143.221 13.6727 143.221L13.9701 143.571C14.4054 144.085 14.8219 143.979 14.8219 143.979C14.8219 143.979 15.3497 143.754 15.8262 143.904C16.3027 144.053 17.29 142.898 17.809 142.362C18.3588 141.794 19.032 141.119 18.6767 139.997C18.2001 138.491 17.577 136.538 17.577 136.538L18.5803 133.691L13.6693 133.855L13.4523 135.097C13.4523 135.097 12.7774 135.422 12.3042 136.818C11.8309 138.214 12.0403 139.742 12.0403 139.742Z" fill="black"/>
<path d="M17.2916 136.641C17.2916 136.641 18.6904 139.891 18.6772 139.997C18.6639 140.103 17.2949 142.963 16.6387 143.397C15.9826 143.83 15.1215 144.316 15.1215 144.316C15.1215 144.316 14.3855 143.964 15.0152 142.882C15.6454 141.799 16.3809 140.724 16.3809 140.724L15.9148 139.602C15.9148 139.602 13.5101 138.38 14.1706 135.975" fill="black"/>
<path d="M14.1707 135.974C14.1635 135.971 14.1348 136.076 14.0869 136.275C14.0566 136.374 14.0456 136.5 14.0346 136.649C14.012 136.797 14.0296 136.969 14.0417 137.162C14.0891 137.544 14.2346 138.006 14.5409 138.454C14.8505 138.899 15.2951 139.332 15.8824 139.665L15.8488 139.628C15.9953 139.985 16.149 140.361 16.3093 140.752L16.317 140.679C15.976 141.178 15.6251 141.715 15.2736 142.286C15.1039 142.575 14.9089 142.854 14.7712 143.194C14.7095 143.364 14.6648 143.549 14.6797 143.744C14.6924 143.937 14.7761 144.133 14.9216 144.272C14.9711 144.32 15.0207 144.358 15.0846 144.392L15.1243 144.413L15.1634 144.389C15.4427 144.22 15.7182 144.052 15.9898 143.888C16.1253 143.805 16.2603 143.723 16.3936 143.642C16.5264 143.553 16.6614 143.498 16.7892 143.379C17.0283 143.155 17.1908 142.9 17.3566 142.652C17.5197 142.404 17.6629 142.152 17.8029 141.907C18.0772 141.413 18.3207 140.937 18.5356 140.484C18.5879 140.369 18.6392 140.258 18.6893 140.147L18.7257 140.059C18.7317 140.041 18.7389 140.022 18.7428 140.003C18.74 139.981 18.7361 139.958 18.7306 139.936C18.7091 139.869 18.6899 139.819 18.6684 139.763C18.5802 139.549 18.4959 139.342 18.415 139.145C18.0838 138.362 17.8056 137.736 17.6106 137.304C17.5175 137.102 17.4415 136.938 17.3814 136.808C17.3269 136.696 17.296 136.638 17.2905 136.64C17.285 136.642 17.3059 136.705 17.35 136.822C17.4024 136.955 17.4685 137.123 17.55 137.329C17.7368 137.789 17.9918 138.419 18.3042 139.19C18.3813 139.388 18.4618 139.594 18.5461 139.809L18.6006 139.966L18.6039 139.977L18.6067 139.982L18.6083 139.984C18.6149 139.986 18.5901 139.984 18.6425 139.991C18.5984 139.988 18.61 139.992 18.6072 139.994L18.6039 140.001L18.5984 140.015L18.5648 140.093C18.5136 140.201 18.4618 140.311 18.4089 140.423C18.1896 140.87 17.9428 141.343 17.6668 141.831C17.5258 142.072 17.3825 142.321 17.2206 142.564C17.0591 142.804 16.8906 143.06 16.679 143.254C16.5837 143.348 16.4289 143.418 16.3027 143.501C16.1699 143.581 16.0355 143.662 15.9006 143.744C15.6306 143.907 15.3562 144.073 15.0791 144.241L15.1579 144.238C15.1243 144.22 15.0764 144.186 15.04 144.149C14.7998 143.926 14.8114 143.556 14.9298 143.254C15.051 142.948 15.2477 142.66 15.4152 142.373C15.7628 141.804 16.1099 141.265 16.4443 140.767L16.468 140.731L16.452 140.693C16.2878 140.304 16.1303 139.93 15.9804 139.574L15.9705 139.551L15.9463 139.538C15.3854 139.229 14.9397 138.81 14.6351 138.388C14.3315 137.961 14.1811 137.521 14.1227 137.152C14.0362 136.402 14.2076 135.978 14.1707 135.974Z" fill="black"/>
<path d="M28.7478 144.642L0.394775 144.083L7.90538e-05 164.115L28.3531 164.673L28.7478 144.642Z" fill="#004FFF"/>
<path d="M25.4679 144.678C25.4756 144.684 25.4139 144.779 25.29 144.955C25.1456 145.155 24.9627 145.407 24.7379 145.718C24.2504 146.373 23.57 147.344 22.6125 148.459C21.6533 149.57 20.3735 150.789 18.7423 151.859C17.1143 152.904 15.0781 153.819 12.7962 153.901C10.5065 153.99 8.41413 153.098 6.82582 151.992C5.21493 150.878 4.03375 149.554 3.12143 148.411C2.21296 147.258 1.56177 146.267 1.11773 145.58C0.914436 145.255 0.749158 144.99 0.61859 144.781C0.507855 144.596 0.453864 144.496 0.462128 144.491C0.470392 144.485 0.540911 144.575 0.666521 144.749C0.808659 144.95 0.98881 145.205 1.21028 145.518C1.68187 146.184 2.35785 147.156 3.27954 148.284C4.20509 149.403 5.38847 150.695 6.97512 151.774C8.54249 152.848 10.5754 153.701 12.7862 153.615C14.9943 153.535 16.9898 152.653 18.599 151.636C20.211 150.596 21.4925 149.406 22.4599 148.324C23.4278 147.237 24.1336 146.285 24.6487 145.65C24.8911 145.352 25.0878 145.11 25.2437 144.919C25.3831 144.755 25.4596 144.672 25.4679 144.678Z" fill="black"/>
<path d="M7.27101 146.003C7.26715 145.862 8.28856 141.216 10.3512 139.353C11.4845 138.329 13.8925 137.411 16.381 140.723L15.5133 141.947C15.5133 141.947 12.8992 138.351 11.4007 140.145C10.5947 141.11 9.14249 143.336 9.04553 145.604L7.27101 146.003Z" fill="black"/>
<path d="M15.4813 141.99C15.6416 141.823 15.7738 141.631 15.8724 141.422C15.9721 141.21 16.0333 140.951 15.9148 140.749C15.8173 140.582 15.6124 140.497 15.4201 140.51C15.2278 140.523 15.0488 140.621 14.905 140.749C14.7612 140.877 14.6477 141.036 14.5359 141.193" fill="black"/>
<path d="M14.535 141.193C14.5069 141.171 14.5631 141.003 14.7444 140.763C14.8375 140.647 14.9752 140.512 15.1774 140.428C15.3752 140.344 15.6661 140.336 15.8892 140.509C16.1311 140.688 16.1481 141.012 16.0875 141.204C16.0308 141.411 15.9327 141.561 15.8468 141.681C15.6672 141.92 15.5063 142.017 15.481 141.99C15.4507 141.96 15.5542 141.818 15.6738 141.575C15.7316 141.453 15.8011 141.304 15.8297 141.146C15.86 140.985 15.8347 140.826 15.7135 140.736C15.4424 140.531 15.0749 140.729 14.8909 140.903C14.6932 141.083 14.5692 141.219 14.535 141.193Z" fill="black"/>
<path d="M13.5225 139.879C13.7015 139.612 14.01 139.394 14.3632 139.358C14.7169 139.321 15.0986 139.503 15.1873 139.798C15.2623 140.048 15.1278 140.31 14.989 140.543C14.5979 141.199 14.1467 141.829 13.6409 142.425" fill="black"/>
<path d="M13.6417 142.424C13.5723 142.373 14.3089 141.469 14.9799 140.26C15.1391 139.961 15.073 139.708 14.83 139.579C14.6014 139.446 14.3386 139.45 14.1386 139.513C13.7276 139.648 13.5585 139.91 13.5227 139.878C13.494 139.872 13.5982 139.543 14.0681 139.323C14.2962 139.222 14.6383 139.181 14.9573 139.347C15.1126 139.427 15.2757 139.572 15.3308 139.789C15.3865 140.003 15.3203 140.214 15.2394 140.384C14.5298 141.661 13.694 142.47 13.6417 142.424Z" fill="black"/>
<path d="M12.132 139.686C12.2284 139.443 12.4394 139.162 12.6531 139.012C12.8669 138.861 13.1473 138.795 13.3974 138.871C13.6475 138.947 13.8525 139.178 13.8635 139.44C13.8729 139.665 13.7478 139.872 13.6244 140.062C13.2393 140.651 12.8123 141.384 12.3672 141.93" fill="black"/>
<path d="M12.3675 141.93C12.336 141.904 12.5002 141.654 12.7465 141.24C12.8925 140.995 13.0363 140.754 13.1812 140.511C13.3305 140.238 13.5718 139.93 13.6891 139.641C13.807 139.356 13.5993 139.073 13.3514 138.996C13.0974 138.917 12.8269 139.011 12.6556 139.139C12.2958 139.418 12.1708 139.708 12.1317 139.687C12.0997 139.681 12.1504 139.349 12.5267 138.982C12.7189 138.806 13.0473 138.648 13.4247 138.742C13.6114 138.793 13.785 138.915 13.8985 139.095C14.0175 139.273 14.0373 139.534 13.9602 139.734C13.8885 139.937 13.7729 140.092 13.6808 140.234C13.5877 140.375 13.4963 140.514 13.4048 140.653C13.2274 140.92 13.0627 141.159 12.9151 141.354C12.6209 141.745 12.3967 141.955 12.3675 141.93Z" fill="black"/>
<path d="M14.5694 153.9C14.5694 154.657 13.9551 155.271 13.1976 155.271C12.4401 155.271 11.8258 154.657 11.8258 153.9C11.8258 153.142 12.4401 152.528 13.1976 152.528C13.9551 152.528 14.5694 153.142 14.5694 153.9Z" fill="black"/>
<path d="M37.4261 94.9067C37.4261 94.9067 32.4915 96.4758 30.7985 98.1109C26.4209 102.339 19.9123 109.085 18.0579 112.038C16.8988 113.882 12.9922 134.057 12.9922 134.057L21.7226 134.476L26.0611 114.123L33.4925 106.69L37.4261 94.9067Z" fill="black"/>
<path d="M76.4002 143.734L81.7932 148.58L82.6421 149.098C82.6421 149.098 88.5139 140.877 90.279 141.207L85.7119 159.406L84.2497 158.985L74.4532 152.58L76.4002 143.734Z" fill="black"/>
<path d="M80.4592 154.846C80.4669 155.222 80.8019 155.564 81.1782 155.572C81.5545 155.58 81.906 155.242 81.9049 154.866C81.9038 154.49 81.5143 154.065 81.1391 154.1C80.7645 154.135 80.3733 154.554 80.4648 154.919" fill="#E0E0E0"/>
<path d="M85.8126 159.424L84.3505 159.004L89.2763 141.713C89.2763 141.713 89.8321 140.991 90.3797 141.226L85.8126 159.424Z" fill="black"/>
<path d="M82.642 149.098C82.7302 149.124 82.6591 149.578 82.8348 150.087C82.9979 150.6 83.3263 150.923 83.2701 150.995C83.232 151.073 82.7346 150.807 82.5318 150.187C82.3241 149.569 82.5649 149.058 82.642 149.098Z" fill="black"/>
<path d="M83.9103 147.388C84.0018 147.389 84.0558 147.812 84.356 148.208C84.6441 148.613 85.032 148.791 85.0055 148.879C84.9984 148.966 84.4629 148.896 84.0987 148.397C83.7313 147.9 83.8249 147.369 83.9103 147.388Z" fill="black"/>
<path d="M86.4673 146.877C86.4662 146.963 85.9908 146.975 85.5616 146.624C85.1297 146.277 85.0427 145.809 85.1264 145.791C85.2118 145.759 85.4057 146.094 85.7622 146.376C86.112 146.667 86.4806 146.786 86.4673 146.877Z" fill="black"/>
<path d="M80.4571 148.72C80.5287 148.777 80.3039 149.155 80.2119 149.665C80.1094 150.174 80.18 150.607 80.0924 150.635C80.0152 150.67 79.7822 150.206 79.899 149.606C80.0103 149.005 80.3976 148.659 80.4571 148.72Z" fill="black"/>
<path d="M53.6941 71.4679C54.2792 70.9407 55.2152 70.8503 55.8907 71.2558C56.9953 70.9005 58.3158 71.4249 58.8767 72.4408C59.6623 72.3009 60.5112 72.6012 61.0341 73.2033C61.5574 73.8055 61.7359 74.6881 61.4875 75.4461C62.2792 75.6075 62.9287 76.3127 63.0251 77.1149C63.1215 77.917 62.6571 78.7561 61.926 79.0998C62.64 79.6689 62.8257 80.7983 62.3315 81.5658C61.8373 82.3337 60.7322 82.6318 59.9184 82.2169L53.2545 73.6303C52.9212 72.9163 53.1091 71.9951 53.6941 71.4679Z" fill="black"/>
<path d="M60.0796 82.2026C61.2118 78.2409 59.1116 74.0743 55.2541 72.6276L54.8706 72.4838C50.6467 71.1748 47.1754 74.0308 45.9837 78.2894L41.3846 93.0982L44.5805 101.209L49.8193 98.6195L51.3277 94.936C51.3277 94.936 55.5329 95.8087 57.0721 91.8542C57.8159 89.9441 59.0268 85.8871 60.0796 82.2026Z" fill="black"/>
<path d="M51.3204 95.2936C51.3204 95.2936 48.7686 94.4975 46.7285 91.8201C46.7285 91.8201 46.8701 95.1432 50.9265 96.2693L51.3204 95.2936Z" fill="black"/>
<path d="M57.5487 85.804C57.4474 86.1075 57.1058 86.2717 56.7868 86.1714C56.4684 86.0712 56.2921 85.7439 56.394 85.4404C56.4959 85.1368 56.837 84.9721 57.1554 85.0723C57.4744 85.1726 57.6501 85.5004 57.5487 85.804Z" fill="black"/>
<path d="M58.4657 84.3985C58.3676 84.4458 58.0574 83.9665 57.4459 83.7396C56.8388 83.5038 56.273 83.6498 56.235 83.55C56.2146 83.5049 56.3369 83.398 56.5848 83.3291C56.83 83.2597 57.209 83.2448 57.5886 83.3892C57.9682 83.5341 58.2354 83.7941 58.3654 84.0062C58.4993 84.2205 58.5125 84.3781 58.4657 84.3985Z" fill="black"/>
<path d="M52.2181 84.1029C52.1161 84.4064 51.7751 84.5706 51.4561 84.4698C51.1377 84.3695 50.9614 84.0428 51.0633 83.7387C51.1652 83.4351 51.5063 83.271 51.8247 83.3712C52.1437 83.4715 52.32 83.7993 52.2181 84.1029Z" fill="black"/>
<path d="M52.6566 82.1228C52.5585 82.1702 52.2473 81.6909 51.6369 81.4639C51.0297 81.2281 50.4639 81.3741 50.4259 81.2744C50.4061 81.2292 50.5268 81.1223 50.7763 81.0535C51.0215 80.9841 51.4005 80.9692 51.7801 81.1135C52.1597 81.2584 52.4269 81.5185 52.5574 81.7306C52.6897 81.9449 52.7034 82.1024 52.6566 82.1228Z" fill="black"/>
<path d="M50.7377 87.7989C50.8457 87.7845 50.9906 88.3371 51.4991 88.7448C52.0015 89.1591 52.5844 89.1982 52.5894 89.3051C52.5943 89.3541 52.4456 89.418 52.1877 89.4048C51.9332 89.3938 51.569 89.2885 51.2534 89.0324C50.9388 88.7756 50.7664 88.4451 50.7096 88.2027C50.6501 87.9575 50.6865 87.8033 50.7377 87.7989Z" fill="black"/>
<path d="M52.9706 87.4016C52.981 87.3658 53.3849 87.4424 54.0294 87.5944C54.1914 87.6368 54.3506 87.6611 54.4167 87.5647C54.4955 87.4661 54.4933 87.2732 54.4861 87.0633C54.4812 86.6314 54.4762 86.178 54.4702 85.7031C54.4641 83.7727 54.522 82.2092 54.5996 82.2097C54.6773 82.2103 54.7456 83.7754 54.7517 85.7053C54.7495 86.1797 54.7478 86.6325 54.7456 87.065C54.7379 87.2644 54.7644 87.5035 54.5969 87.7074C54.5109 87.8082 54.3649 87.8501 54.2553 87.839C54.144 87.8319 54.0559 87.801 53.9765 87.7768C53.3446 87.5779 52.9595 87.4369 52.9706 87.4016Z" fill="black"/>
<path d="M53.3096 79.5071C53.2385 79.679 52.6716 79.5484 51.9901 79.5853C51.3081 79.6063 50.7461 79.7853 50.6696 79.6195C50.636 79.5401 50.7445 79.382 50.9781 79.2289C51.21 79.0763 51.5709 78.9418 51.9796 78.9242C52.3884 78.9071 52.7531 79.0102 52.9895 79.1435C53.2275 79.2757 53.341 79.425 53.3096 79.5071Z" fill="black"/>
<path d="M58.9553 82.6717C58.8043 82.783 58.4143 82.512 57.897 82.3577C57.3846 82.1853 56.9103 82.1809 56.8513 82.0029C56.8276 81.9181 56.9373 81.7947 57.1681 81.7148C57.3956 81.6344 57.7438 81.6145 58.098 81.7264C58.4517 81.8393 58.7244 82.0558 58.8638 82.2536C59.0049 82.4525 59.0236 82.6161 58.9553 82.6717Z" fill="black"/>
<path d="M60.3811 80.5911C60.3811 80.5911 60.2665 77.7103 59.2847 76.6796C58.0959 75.4317 56.8728 76.7914 55.6338 75.8857C54.3948 74.9794 53.2615 73.785 51.4457 74.3244C49.4585 74.915 49.8756 76.0086 49.1186 77.7351C46.05 84.7363 43.9868 86.2678 44.8781 82.7623C44.9757 82.3783 44.0622 81.7012 44.4953 80.0859C45.0566 77.9919 45.899 75.5094 46.8879 74.2445C47.7215 73.1785 48.7236 72.6022 50.3047 72.1449C52.8004 71.4232 55.4917 72.3973 57.2425 73.2628C58.9928 74.1283 61.7154 77.5379 60.3811 80.5911Z" fill="black"/>
<path d="M45.1716 82.7493C45.3765 82.1267 45.03 81.4447 44.397 81.2733C43.6295 81.0656 42.6473 81.1775 42.1222 82.7267C41.1901 85.4752 44.1419 85.8438 44.1733 85.7667C44.1948 85.7149 44.792 83.9029 45.1716 82.7493Z" fill="black"/>
<path d="M43.926 84.5302C43.9166 84.5175 43.8665 84.5473 43.7734 84.5572C43.6825 84.5666 43.5381 84.5456 43.4131 84.4432C43.1585 84.2382 43.0704 83.6945 43.2252 83.1942C43.3029 82.9419 43.4362 82.7215 43.5916 82.5541C43.7436 82.3816 43.921 82.2852 44.0764 82.3089C44.2334 82.3243 44.3072 82.4472 44.3144 82.5359C44.3254 82.6251 44.289 82.6742 44.3023 82.6841C44.3078 82.6934 44.3766 82.6576 44.3932 82.537C44.4003 82.4786 44.3898 82.4026 44.3436 82.3282C44.2956 82.2522 44.208 82.1921 44.1023 82.1684C43.8852 82.1111 43.6285 82.2417 43.4577 82.4251C43.2748 82.6053 43.1194 82.8516 43.0318 83.1347C42.8616 83.6945 42.9696 84.3093 43.3277 84.5583C43.504 84.6746 43.6847 84.6707 43.7904 84.6343C43.8984 84.5947 43.9337 84.5379 43.926 84.5302Z" fill="black"/>
<path d="M47.1993 77.507C47.4615 77.88 47.7414 78.2684 48.1507 78.4694C48.56 78.6711 49.1374 78.6094 49.3671 78.2149C49.4702 78.0381 49.5065 77.8012 49.6856 77.702C49.8993 77.5836 50.1522 77.7406 50.3709 77.8502C51.129 78.2303 52.1471 77.9747 52.6363 77.2822C52.7244 77.659 53.1993 77.8227 53.5778 77.7406C53.9563 77.6585 54.2731 77.4106 54.6141 77.2266C54.9551 77.0431 55.3815 76.9241 55.7215 77.1098C55.9115 77.2139 56.0548 77.404 56.2636 77.4613C56.6321 77.5637 56.9632 77.2111 57.15 76.8773C57.3368 76.5434 57.534 76.1462 57.9081 76.0669C58.2546 75.9936 58.5791 76.2327 58.8893 76.404C59.1994 76.5754 59.6523 76.6575 59.8567 76.3682C59.9641 76.2162 59.958 76.0118 59.92 75.83C59.747 75.0058 58.9355 74.364 58.0932 74.3849C58.1642 73.3877 57.5869 72.3746 56.6927 71.9272C55.7986 71.4799 54.6417 71.6253 53.8858 72.2798C53.5073 71.5438 52.7547 71.0122 51.9344 70.9009C51.1141 70.7896 50.2475 71.102 49.6867 71.7107C49.0911 71.2893 48.2421 71.2623 47.6213 71.6452C47.0004 72.0281 46.6434 72.7988 46.7525 73.5205C46.1597 73.6164 45.5597 73.9447 45.3388 74.5028C45.1179 75.0614 45.4556 75.8267 46.0533 75.8823C45.6699 76.2377 45.6253 76.8988 45.958 77.3026C46.2902 77.7064 46.9475 77.7896 47.37 77.4816" fill="black"/>
<path d="M45.8561 75.8024C45.8495 75.7914 45.7206 76.0117 45.8297 76.388C45.8859 76.5682 46.017 76.783 46.2522 76.9169C46.4814 77.0497 46.8037 77.102 47.1111 76.9825L47.0026 76.9224C47.0494 77.2067 47.137 77.5113 47.2907 77.8033C47.3899 77.9895 47.5133 78.1631 47.6703 78.2964C47.8218 78.4341 48.0223 78.5173 48.1981 78.5526C48.5567 78.6435 48.9264 78.5713 49.1506 78.3972C49.3787 78.2298 49.5016 78.0408 49.5825 77.9146C49.6624 77.7857 49.6944 77.7086 49.6861 77.7031C49.6751 77.6959 49.6244 77.762 49.5297 77.8766C49.4349 77.989 49.2994 78.1603 49.0851 78.2992C48.6818 78.5923 47.7684 78.4766 47.4384 77.7251C47.2957 77.4541 47.2086 77.1648 47.1596 76.8965L47.142 76.7985L47.0511 76.8359C46.7993 76.94 46.5194 76.9059 46.3178 76.799C46.1123 76.6927 45.9872 76.5147 45.9233 76.3555C45.7977 76.0255 45.8826 75.804 45.8561 75.8024Z" fill="black"/>
<path d="M53.3151 71.5242C53.3101 71.533 53.379 71.5699 53.4809 71.6669C53.5801 71.7633 53.7167 71.9308 53.7685 72.1836L53.7817 72.2475L53.8379 72.2112C54.2197 71.966 54.8092 71.6878 55.5502 71.6404C55.9176 71.6189 56.3192 71.6602 56.7076 71.8068C57.0949 71.95 57.4586 72.2134 57.7346 72.5671C57.9494 72.8414 58.0987 73.1554 58.1758 73.4733C58.248 73.7923 58.2442 74.1146 58.1676 74.4044L58.1439 74.4936L58.2348 74.5019C58.6854 74.5427 59.0711 74.7779 59.3118 75.0627C59.5576 75.3492 59.6567 75.6825 59.681 75.9558C59.7206 76.5155 59.519 76.8174 59.5487 76.824C59.5543 76.8273 59.6055 76.7596 59.665 76.6141C59.7223 76.4698 59.7867 76.2428 59.7746 75.9497C59.7631 75.6605 59.6694 75.2974 59.411 74.9801C59.1581 74.6655 58.7461 74.4005 58.2486 74.3487L58.3158 74.4463C58.4039 74.1328 58.4111 73.7813 58.3356 73.437C58.2552 73.0943 58.096 72.7577 57.8662 72.4646C57.572 72.0878 57.1798 71.8057 56.7644 71.6558C56.3495 71.5032 55.9248 71.4658 55.5408 71.495C54.7667 71.5583 54.1662 71.8657 53.7878 72.1368L53.8572 72.1643C53.7861 71.8889 53.6269 71.7203 53.5128 71.6311C53.3944 71.5407 53.3173 71.5187 53.3151 71.5242Z" fill="black"/>
<path d="M42.1734 198.502L42.8037 208.316C42.8037 208.316 50.6014 216.853 49.9932 218.64L31.7406 211.153L32.3979 209.695L34.1779 205.798L32.5323 198.74L42.1734 198.502Z" fill="black"/>
<path d="M36.1252 206.823C35.7324 206.775 35.3253 207.072 35.2608 207.462C35.1738 207.987 35.744 208.56 36.3147 208.237C36.7869 207.97 36.8915 207.301 36.469 206.961C36.345 206.861 36.1979 206.803 36.0481 206.818" fill="#E0E0E0"/>
<path d="M31.7406 211.153L32.3979 209.695L49.6522 217.418C49.6522 217.418 50.3199 218.105 49.9932 218.64L31.7406 211.153Z" fill="black"/>
<path d="M43.6349 209.412C43.5953 209.5 43.133 209.357 42.5772 209.464C42.018 209.556 41.634 209.85 41.5662 209.781C41.4913 209.73 41.8428 209.252 42.5182 209.134C43.1925 209.01 43.6878 209.338 43.6349 209.412Z" fill="black"/>
<path d="M45.0096 210.925C44.9947 211.02 44.5463 211.013 44.089 211.266C43.624 211.506 43.3805 211.882 43.2935 211.842C43.2042 211.821 43.3563 211.274 43.9309 210.971C44.5028 210.661 45.0427 210.839 45.0096 210.925Z" fill="black"/>
<path d="M44.9376 213.661C44.8489 213.646 44.9073 213.15 45.3364 212.756C45.7628 212.359 46.262 212.338 46.2691 212.428C46.2895 212.522 45.9116 212.673 45.5639 213.002C45.2092 213.323 45.0296 213.688 44.9376 213.661Z" fill="black"/>
<path d="M42.7214 206.891C42.6834 206.979 42.2377 206.858 41.6945 206.909C41.1496 206.949 40.7309 207.142 40.6786 207.061C40.6213 206.993 41.0257 206.626 41.6664 206.575C42.3071 206.518 42.7666 206.814 42.7214 206.891Z" fill="black"/>
<path d="M19.3307 129.045C19.3307 129.045 17.4785 131.972 16.9959 135.059C16.7342 136.733 16.2786 139.996 17.5011 143.576C18.2261 145.699 28.2992 173.032 28.2992 173.032L29.4511 187.386L32.9335 205.394L43.8401 204.859C43.8401 204.859 42.8341 176.499 42.3961 172.335C41.924 167.844 35.8203 140.218 35.8203 140.218L39.8029 130.273L21.2744 124.092L19.3307 129.045Z" fill="black"/>
<path d="M49.8594 217.685C49.8263 217.757 45.8905 216.026 41.0694 213.82C36.2467 211.613 32.3649 209.767 32.3979 209.695C32.431 209.622 36.3662 211.352 41.189 213.559C46.0095 215.765 49.8924 217.612 49.8594 217.685Z" fill="black"/>
<path d="M43.8409 204.882C43.8448 204.961 41.4058 205.14 38.3945 205.281C35.3821 205.423 32.9376 205.473 32.9343 205.394C32.9305 205.315 35.3689 205.136 38.3813 204.995C41.3921 204.853 43.8371 204.802 43.8409 204.882Z" fill="black"/>
<path d="M52.0653 96.2726L51.4483 94.8804C47.3604 93.1753 44.3772 91.473 41.887 91.5159L39.9626 93.3979C37.7336 94.7961 33.3615 96.9447 32.1842 98.5931L26.7835 109.028L19.3268 126.519C18.6381 127.589 17.1666 129.17 18.8018 130.743L33.6816 132.409L38.9721 132.5C40.0519 132.359 42.8897 133.156 43.228 131.406C43.8268 128.31 53.6283 107.5 54.3307 104.778L54.0233 100.3L52.0653 96.2726Z" fill="black"/>
<path d="M53.9021 104.713C52.7947 107.646 52.0108 112.189 47.8778 114.915C45.5936 116.421 42.2341 117.328 39.6255 118.155C36.5365 119.135 32.4244 120.385 32.4244 120.385L29.8158 125.168L34.4595 125.773C34.4595 125.773 39.923 124.032 42.0793 123.136C46.7192 121.208 45.127 121.835 46.7285 120.754C49.0248 119.321 52.1606 115.103 54.4651 104.433" fill="white"/>
<path d="M42.9537 96.874C42.9493 96.9159 42.3973 96.8845 41.5086 96.8431C40.62 96.8068 39.392 96.7638 38.0406 96.8365C36.6881 96.8999 35.4744 97.0767 34.6084 97.264C33.7418 97.4497 33.2189 97.6254 33.2013 97.5781C33.1947 97.5593 33.3192 97.4987 33.5517 97.404C33.782 97.3021 34.1279 97.1919 34.5599 97.0668C35.4259 96.8261 36.6561 96.614 38.0252 96.55C39.3931 96.4768 40.6327 96.5523 41.5224 96.641C42.4138 96.7341 42.9576 96.8365 42.9537 96.874Z" fill="black"/>
<path d="M50.6663 94.6021C50.6569 94.6423 50.0482 94.5344 49.0681 94.3548C48.0875 94.1757 46.7338 93.9295 45.2287 93.7443C43.7231 93.5609 42.3513 93.4986 41.359 93.5201C40.3663 93.5366 39.7531 93.6066 39.7465 93.5603C39.7437 93.5411 39.8941 93.5036 40.1702 93.4529C40.4456 93.3995 40.8494 93.351 41.3502 93.3174C42.3518 93.2436 43.744 93.2744 45.2629 93.4595C46.7812 93.6463 48.137 93.9256 49.1094 94.1564C50.0823 94.3873 50.6746 94.5652 50.6663 94.6021Z" fill="black"/>
<path d="M32.1841 98.5925C32.193 98.5969 32.1423 98.7131 32.0387 98.9296C31.9191 99.1715 31.7643 99.4833 31.5726 99.8706C31.1561 100.72 30.5793 101.896 29.8736 103.336C28.455 106.271 26.5686 110.36 24.4492 114.862C23.3865 117.112 22.3573 119.249 21.385 121.175C20.8985 122.137 20.4313 123.05 19.9752 123.895C19.5284 124.745 19.0788 125.516 18.7483 126.253C18.4155 126.989 18.2006 127.693 18.1301 128.326C18.0602 128.96 18.118 129.516 18.2348 129.949C18.4728 130.824 18.8706 131.188 18.8359 131.206C18.8359 131.206 18.7334 131.128 18.5907 130.931C18.4502 130.735 18.2579 130.425 18.1268 129.98C17.9896 129.538 17.9131 128.966 17.9698 128.31C18.0271 127.653 18.2348 126.926 18.5615 126.172C18.8865 125.415 19.3278 124.635 19.7636 123.783C20.2093 122.936 20.6677 122.021 21.147 121.056C22.1045 119.126 23.1259 116.988 24.1881 114.739C26.3064 110.239 28.2236 106.161 29.6896 103.247C30.4217 101.789 31.0349 100.62 31.4718 99.8188C31.6834 99.442 31.8541 99.1379 31.9858 98.9026C32.1081 98.6944 32.1753 98.5875 32.1841 98.5925Z" fill="black"/>
<path d="M28.0031 149.685C28.7738 149.925 54.6654 139.876 54.6654 139.876L76.6208 156.57L78.224 157.216L81.8016 147.283C81.8016 147.283 66.4326 132.059 61.2236 127.128C59.8441 125.821 57.1832 124.49 54.8324 124.829C49.3727 125.615 28.6377 132.561 28.6377 132.561L28.0031 149.685Z" fill="black"/>
<path opacity="0.3" d="M29.2748 147.387C29.2748 147.387 31.9005 149.237 35.098 149.096L37.6973 148.828L37.191 146.487C37.191 146.487 31.0025 147.667 29.2748 147.387Z" fill="black"/>
<path d="M41.3722 145.103C41.3794 145.121 41.1998 145.207 40.8692 145.348C40.5392 145.489 40.055 145.678 39.4506 145.896C38.2419 146.327 36.5445 146.874 34.6085 147.231C32.6737 147.594 30.8738 147.648 29.5896 147.51C29.2679 147.487 28.9792 147.44 28.7269 147.397C28.4735 147.36 28.2575 147.316 28.0829 147.268C27.733 147.182 27.5424 147.125 27.5468 147.106C27.5578 147.054 28.3335 147.232 29.6051 147.307C30.876 147.392 32.6423 147.307 34.5568 146.948C36.4707 146.595 38.1647 146.083 39.3856 145.703C40.6059 145.318 41.3568 145.062 41.3722 145.103Z" fill="black"/>
<path d="M55.0804 136.117C55.1614 136.139 54.9846 136.961 54.9366 137.985C54.8815 139.01 54.9747 139.845 54.892 139.859C54.8193 139.875 54.5934 139.034 54.6502 137.971C54.7008 136.908 55.0099 136.094 55.0804 136.117Z" fill="black"/>
<path d="M70.0503 74.5674L66.6053 79.8976L73.3839 82.6594L76.2498 75.0517L72.0055 73.4871L70.0503 74.5674Z" fill="black"/>
<path d="M67.1503 70.0289C67.1503 70.0289 66.8764 69.5937 67.0329 69.0345C67.1894 68.4753 67.9237 67.9238 67.9237 67.9238C67.9237 67.9238 68.1976 69.5942 68.1524 69.6207C68.1072 69.6477 67.1503 70.0289 67.1503 70.0289Z" fill="#AE7461"/>
<path d="M70.2519 75.6603L67.7794 71.6232L67.9254 68.311C67.9254 68.311 67.7965 65.8352 68.9859 65.4236C68.9859 65.4236 69.7027 65.0446 70.1539 65.5344C70.1539 65.5344 70.2839 64.9118 71.2243 64.9504L71.8794 65.3124C71.8794 65.3124 72.3146 64.7394 72.773 64.7449C73.2313 64.7504 73.7553 65.2534 73.7553 65.2534C73.7553 65.2534 73.9949 64.7714 74.7084 64.9785C75.4224 65.1856 76.1843 66.515 76.3854 66.9734C76.5865 67.4318 77.2817 71.1549 77.2117 72.1047C77.1412 73.0545 76.1027 75.4196 76.1027 75.4196L70.2519 75.6603Z" fill="black"/>
<path d="M68.1397 68.5706C68.1397 68.5706 66.9563 69.6763 66.7067 69.9991C66.4572 70.3214 66.3062 71.1693 66.1228 71.5384C65.9393 71.9075 65.4082 72.351 65.8523 72.6573C66.2968 72.9642 66.8946 72.7521 67.2169 72.4083C67.5397 72.0651 68.6052 69.82 68.6052 69.82L68.1397 68.5706Z" fill="#FFBF9D"/>
<path d="M66.6291 72.3804C66.6291 72.3804 66.1437 73.074 66.3459 73.9119C66.5481 74.7499 67.44 74.6904 67.44 74.6904C67.44 74.6904 67.4241 75.8682 68.6322 75.7173C68.6322 75.7173 68.3028 76.0809 68.9138 76.3261L70.6547 74.0877C70.6547 74.0877 70.8965 73.886 70.8888 73.1682C70.8838 72.6861 70.6558 71.9044 70.0024 72.106C70.0024 72.106 69.917 71.2609 69.3198 71.0642C68.7226 70.8675 68.5535 71.2851 68.5535 71.2851C68.5535 71.2851 68.413 70.97 67.9364 71.0152C67.4604 71.0598 66.6291 72.3804 66.6291 72.3804Z" fill="#FFBF9D"/>
<path d="M42.9011 105.198C41.1536 103.205 40.7938 100.014 42.8477 97.7626C43.1716 97.4078 43.5534 97.0916 44.0041 96.8409C46.8887 95.2355 60.9565 90.1318 60.9565 90.1318L68.1576 76.3257L75.7685 78.0732C75.7685 78.0732 70.1034 95.5071 65.8911 98.0865C61.0523 101.049 52.6552 105.621 49.6014 106.583" fill="black"/>
<path d="M49.6015 106.583C49.5998 106.579 49.6648 106.551 49.7921 106.502C49.9183 106.451 50.1116 106.388 50.3573 106.284C50.8504 106.081 51.5749 105.772 52.4911 105.331C54.3278 104.457 56.9519 103.098 60.1571 101.304C61.7592 100.405 63.5095 99.4027 65.3644 98.2739C65.8421 98.0001 66.2746 97.6976 66.6646 97.2999C67.0503 96.9026 67.4056 96.4603 67.7389 95.9903C68.4094 95.0521 69.0055 94.0153 69.5779 92.9322C70.7183 90.7604 71.7562 88.3882 72.76 85.8903C73.7594 83.3907 74.7273 80.7612 75.6331 78.0297L75.7366 78.2126C74.1318 77.8446 72.4333 77.4546 70.7122 77.0601C69.8434 76.8607 68.9807 76.6623 68.1251 76.4657L68.2843 76.3924C65.7325 81.2763 63.3018 85.9277 61.0733 90.193L61.0496 90.2387L61.0011 90.2563C57.1485 91.6562 53.5968 92.9828 50.446 94.2064C48.8709 94.8185 47.3967 95.4085 46.0453 95.9876C45.3687 96.2757 44.7247 96.5666 44.1292 96.8768C43.5375 97.1836 43.0516 97.6117 42.6808 98.091C41.9051 99.032 41.5778 100.122 41.5156 101.064C41.4677 102.014 41.6528 102.824 41.8858 103.44C42.3778 104.676 42.937 105.178 42.9012 105.199C42.8984 105.201 42.8676 105.169 42.8097 105.103C42.7524 105.035 42.6648 104.937 42.5568 104.801C42.3557 104.52 42.0583 104.094 41.807 103.471C41.5586 102.851 41.3564 102.03 41.3922 101.057C41.4214 100.572 41.5134 100.055 41.6946 99.5283C41.8798 99.0028 42.1717 98.4805 42.5563 97.9913C42.9315 97.496 43.4356 97.0437 44.0449 96.7219C44.6481 96.4019 45.2927 96.1055 45.9687 95.8118C47.3207 95.2218 48.7922 94.6224 50.3656 94.0015C53.5125 92.7603 57.0604 91.4199 60.9113 90.0084L60.8397 90.0712C63.0621 85.8027 65.4856 81.1479 68.0303 76.2602L68.0816 76.1621L68.1896 76.1869C69.0446 76.383 69.9079 76.5814 70.7767 76.7808C72.4978 77.1763 74.1957 77.5664 75.8005 77.935L75.9537 77.9702L75.9047 78.1179C74.9934 80.8582 74.0216 83.4877 73.0151 85.9927C72.0041 88.4945 70.9574 90.8712 69.8032 93.0517C69.2236 94.1398 68.6198 95.1821 67.9356 96.1314C67.5951 96.6068 67.231 97.0569 66.831 97.4651C66.431 97.8723 65.9495 98.2039 65.4818 98.4678C63.618 99.59 61.86 100.583 60.2502 101.472C57.029 103.246 54.389 104.58 52.5351 105.426C51.6101 105.854 50.8769 106.148 50.3766 106.336C50.1271 106.431 49.9304 106.486 49.8009 106.529C49.6703 106.569 49.6026 106.588 49.6015 106.583Z" fill="black"/>
<path d="M107.147 52.6203C105.926 53.3459 89.6616 65.0778 88.2656 69.0686C86.8696 73.0595 92.0802 101.95 92.0802 101.95L103.668 101.387L100.587 73.9272L123.732 60.223L125.293 45.9084L107.147 52.6203Z" fill="black"/>
<path d="M120.839 58.5951L133.842 72.5748C133.842 72.5748 135.624 78.9363 137.157 83.0963C138.712 87.3174 141.247 94.1841 141.247 94.1841L144.047 103.393L153.094 101.396C153.094 101.396 149.719 86.6574 148.847 80.9769C147.975 75.2963 145.904 69.0687 145.904 69.0687L138.712 50.8762L130.876 40.6472L120.839 58.5951Z" fill="black"/>
<path opacity="0.3" d="M100.225 57.6905C100.225 57.6905 110.376 61.5844 113.745 60.8875C117.112 60.19 122.722 51.9003 122.722 51.9003L130.972 60.2677L141.005 56.6768L140.199 53.4501C140.199 53.4501 125.84 49.7429 125.814 49.6983C125.789 49.6537 120.615 49.6983 120.615 49.6983L111.921 55.6967L102.511 55.8207L100.225 57.6905Z" fill="black"/>
<path d="M149.494 94.2964L152.487 103.761L160.486 105.404C160.833 105.404 161.345 106.502 160.833 106.794C160.547 106.957 158.749 107.169 158.749 107.169C158.749 107.169 147.001 107.901 146.672 107.169C146.326 106.401 142.853 97.3953 142.853 97.3953L149.494 94.2964Z" fill="black"/>
<path d="M160.834 106.794L146.591 107.141C146.591 107.141 146.803 107.353 146.939 107.489C147.286 107.836 147.764 107.995 148.218 107.997C149.435 108.003 152.795 107.948 160.076 107.288C160.499 107.249 160.627 107.165 160.834 106.794Z" fill="black"/>
<path d="M153.575 105.987C153.637 105.994 153.681 105.43 154.149 104.975C154.604 104.505 155.168 104.461 155.16 104.398C155.161 104.372 155.016 104.34 154.786 104.384C154.557 104.426 154.25 104.566 153.995 104.82C153.741 105.076 153.602 105.383 153.56 105.613C153.517 105.843 153.549 105.987 153.575 105.987Z" fill="white"/>
<path d="M152.157 105.615C152.217 105.645 152.516 105.015 153.156 104.481C153.788 103.937 154.458 103.743 154.439 103.68C154.437 103.625 153.695 103.733 153.015 104.315C152.331 104.89 152.102 105.604 152.157 105.615Z" fill="white"/>
<path d="M150.175 104.652C150.219 104.7 150.664 104.305 151.331 104.051C151.995 103.786 152.589 103.775 152.589 103.71C152.598 103.655 151.965 103.566 151.251 103.848C150.536 104.123 150.13 104.618 150.175 104.652Z" fill="white"/>
<path d="M97.6268 72.0232C97.6334 71.9505 98.4978 72.043 99.3854 72.6017C100.278 73.1537 100.741 73.8892 100.678 73.9272C100.612 73.9812 100.075 73.3636 99.2333 72.8452C98.3981 72.3174 97.6075 72.1064 97.6268 72.0232Z" fill="black"/>
<path d="M143.783 74.07C143.805 74.0953 143.601 74.3273 143.186 74.6005C142.773 74.8738 142.135 75.1652 141.384 75.2969C140.632 75.4258 139.933 75.3657 139.453 75.2467C138.97 75.1288 138.7 74.979 138.712 74.9476C138.734 74.86 139.895 75.2759 141.335 75.0137C142.78 74.7774 143.734 73.9951 143.783 74.07Z" fill="black"/>
<path d="M94.322 94.3372L94.7071 103.107C94.7071 103.107 85.9221 106.444 85.8356 108.072L102.867 107.936L102.213 95.423L94.322 94.3372Z" fill="black"/>
<path d="M102.867 107.936L102.81 106.556L86.5018 107.203C86.5018 107.203 85.7465 107.539 85.8363 108.072L102.867 107.936Z" fill="black"/>
<path d="M94.4306 103.022C94.4339 103.106 94.8504 103.14 95.2613 103.404C95.6795 103.658 95.8933 104.016 95.9698 103.983C96.0464 103.966 95.9186 103.47 95.4145 103.159C94.9143 102.843 94.4118 102.946 94.4306 103.022Z" fill="white"/>
<path d="M92.6501 103.776C92.6319 103.856 92.9927 103.995 93.2781 104.344C93.5734 104.685 93.6478 105.065 93.731 105.061C93.8092 105.074 93.8627 104.586 93.5001 104.158C93.1409 103.728 92.6512 103.696 92.6501 103.776Z" fill="white"/>
<path d="M91.6528 105.922C91.7288 105.939 91.8407 105.522 91.6236 105.069C91.4093 104.613 91.016 104.437 90.9812 104.507C90.935 104.575 91.1889 104.818 91.3619 105.193C91.5437 105.564 91.5702 105.914 91.6528 105.922Z" fill="white"/>
<path d="M93.5037 29.5369L104.415 44.7269L108.849 47.9415L107.547 51.3484L101.377 56.8274C101.377 56.8274 111.594 61.0623 115.349 58.6195C119.106 56.1767 122.69 50.2444 122.69 50.2444L131.903 59.0211L143.473 54.411C143.473 54.411 138.414 44.3165 131.414 38.5588L127.207 25.7901L119.53 13.98L110.156 17.031L96.8329 26.3118L93.5037 29.5369Z" fill="black"/>
<path d="M102.196 23.8377C102.824 23.8377 109.845 27.9481 109.845 27.9481L111.372 19.1554L110.234 17.0779L112.51 17.9054L116.174 21.4384L125.292 35.8175C124.638 39.4767 122.396 44.911 122.332 46.8679C122.332 46.8679 112.641 46.0404 110.416 41.3294C108.192 36.6185 103.455 28.1134 103.455 28.1134L102.196 23.8377Z" fill="white"/>
<path d="M111.855 33.3466C111.855 34.1317 114.419 45.1132 116.559 45.7076C118.698 46.3021 122.031 46.8678 122.031 46.8678V41.5911L113.425 31.5148L113.168 28.8191L110.013 28.4561L109.238 32.3869L111.855 33.3466Z" fill="#004FFF"/>
<path d="M96.2159 27.5002C96.2159 27.5002 94.0959 29.3629 93.5037 29.537C92.912 29.7111 90.6543 35.8181 90.6543 35.8181L84.8746 50.1696L74.709 63.7377L80.4314 69.0689C80.4314 69.0689 93.2552 56.1322 94.1582 52.6537L100.468 39.5935L96.2159 27.5002Z" fill="black"/>
<path d="M122.722 49.6984C122.69 49.6653 123.223 49.1188 124.009 48.1729C124.8 47.2308 125.831 45.8783 126.929 44.3517C128.001 42.8515 128.97 41.4957 129.732 40.4291C130.096 39.9305 130.397 39.5317 130.613 39.2617C130.829 38.9918 130.956 38.848 130.972 38.8595C131.005 38.8838 130.583 39.5195 129.898 40.5454C129.211 41.5701 128.262 42.987 127.162 44.5192C126.061 46.0496 124.998 47.3917 124.162 48.3056C123.749 48.7668 123.393 49.121 123.139 49.3557C122.883 49.5904 122.736 49.7127 122.722 49.6984Z" fill="black"/>
<path d="M116.046 47.669C116.04 47.7064 115.42 47.6337 114.428 47.4552C113.436 47.2767 112.074 46.9847 110.587 46.5886C109.101 46.1914 107.774 45.7655 106.825 45.4256C105.876 45.0863 105.303 44.84 105.316 44.8042C105.329 44.7651 105.926 44.9436 106.888 45.2328C107.851 45.5226 109.181 45.9159 110.661 46.3115C112.141 46.706 113.491 47.0282 114.469 47.2563C115.448 47.4855 116.054 47.6282 116.046 47.669Z" fill="black"/>
<path d="M95.8941 33.8369C95.9095 33.8248 96.0434 33.9653 96.2726 34.2297C96.5017 34.4947 96.8257 34.8837 97.2218 35.3685C98.0135 36.3381 99.0916 37.6901 100.268 39.1935C101.446 40.6981 102.499 42.0693 103.249 43.0709C103.624 43.5717 103.924 43.9794 104.125 44.2653C104.327 44.5512 104.431 44.7143 104.415 44.7264C104.399 44.738 104.265 44.597 104.036 44.332C103.806 44.067 103.482 43.6775 103.086 43.1927C102.295 42.223 101.218 40.8722 100.041 39.3693C98.8657 37.8663 97.814 36.4962 97.0637 35.4952C96.6885 34.9944 96.3888 34.5862 96.1866 34.3002C95.9833 34.0137 95.8786 33.8496 95.8941 33.8369Z" fill="black"/>
<path d="M115.095 20.5757C115.135 20.5773 115.142 21.3167 115.122 22.5111C115.101 23.7055 115.054 25.3544 114.984 27.1752C114.957 27.8071 114.932 28.417 114.908 28.9877L114.902 29.1354L114.773 29.1205C113.391 28.9596 112.199 28.8098 111.353 28.6924C110.508 28.5745 110.01 28.4891 110.014 28.4566C110.018 28.4241 110.522 28.4495 111.367 28.5189C112.212 28.5883 113.397 28.7012 114.768 28.845L114.633 28.9778C114.653 28.407 114.674 27.7972 114.697 27.1653C114.768 25.3445 114.847 23.6967 114.92 22.5045C114.991 21.3106 115.056 20.574 115.095 20.5757Z" fill="black"/>
<path d="M104.237 29.7194C104.259 29.6863 104.765 29.9728 105.566 30.4637C106.367 30.954 107.462 31.6487 108.663 32.4299C108.849 32.5517 109.033 32.6718 109.207 32.7858L108.993 32.8629C109.326 31.6487 109.521 30.5193 109.697 29.7282C109.866 28.9321 109.978 28.4501 110.014 28.4561C110.05 28.4622 110.003 28.9552 109.885 29.7618C109.757 30.5689 109.602 31.6867 109.266 32.9472L109.217 33.1312L109.052 33.0244C108.878 32.9109 108.694 32.7919 108.507 32.6707C107.306 31.8889 106.228 31.1677 105.456 30.6339C104.682 30.0995 104.216 29.7524 104.237 29.7194Z" fill="black"/>
<path d="M119.491 13.98C119.491 13.98 122.032 13.1255 123.375 13.736C125.97 14.916 142.779 23.9622 143.475 24.4464C144.17 24.9307 153.295 39.6408 153.295 39.6408L147.04 43.5166L138.126 31.274L121.873 25.1676C121.873 25.1676 119.412 21.9937 119.017 19.3201C118.621 16.6465 119.491 13.98 119.491 13.98Z" fill="black"/>
<path d="M127.208 25.7897C127.248 25.7792 127.472 26.4623 127.864 27.557C128.287 28.7272 128.819 30.202 129.407 31.8333C130.626 35.168 131.551 37.9072 131.415 37.948C131.392 37.9502 131.342 37.7821 131.222 37.4791C131.082 37.1133 130.918 36.6858 130.729 36.1933C130.314 35.1063 129.743 33.6023 129.137 31.9308C128.532 30.2598 128.012 28.736 127.671 27.6209C127.498 27.0639 127.374 26.6083 127.297 26.291C127.221 25.9731 127.189 25.7952 127.208 25.7897Z" fill="black"/>
<path d="M123.986 22.1838C123.96 22.2085 123.632 21.9281 123.173 21.4031C122.715 20.8792 122.14 20.0985 121.635 19.1603C121.131 18.2204 120.798 17.3098 120.615 16.6387C120.43 15.9666 120.378 15.538 120.413 15.5303C120.501 15.5066 120.888 17.1825 121.887 19.0248C122.871 20.8748 124.054 22.1237 123.986 22.1838Z" fill="black"/>
<path d="M121.384 48.9745C121.389 49.0109 120.825 49.1244 119.901 49.2235C118.978 49.3232 117.693 49.3949 116.275 49.3547C114.856 49.3122 113.577 49.1657 112.661 49.0125C111.744 48.8599 111.188 48.7134 111.195 48.6776C111.203 48.6357 111.771 48.7112 112.689 48.8114C113.606 48.9128 114.876 49.0258 116.283 49.0676C117.689 49.1078 118.963 49.0687 119.885 49.0213C120.807 48.9745 121.379 48.9321 121.384 48.9745Z" fill="black"/>
<path d="M111.921 17.6911C111.921 17.6834 112.002 17.6867 112.159 17.6999C112.313 17.7209 112.551 17.7181 112.846 17.787C113.436 17.9242 114.284 18.2134 115.257 18.7687C117.201 19.8816 119.656 21.9211 122.133 24.6983L122.214 24.7892L122.127 24.8784C121.752 25.2613 121.349 25.6734 120.938 26.0938L120.839 25.8602C121.301 25.8591 121.799 25.8585 122.305 25.8574H122.401L122.436 25.9472C122.93 27.227 123.445 28.5641 123.974 29.9353C124.569 31.484 125.145 32.988 125.689 34.405L125.7 34.4336L125.698 34.4634C125.548 36.6891 124.817 38.6498 124.192 40.3742C123.546 42.0991 122.999 43.6329 122.707 44.9551C122.403 46.2735 122.342 47.3588 122.368 48.0981C122.394 48.8391 122.473 49.2391 122.448 49.2429C122.44 49.2446 122.416 49.146 122.379 48.9542C122.339 48.7631 122.298 48.4766 122.272 48.1031C122.215 47.3577 122.249 46.2553 122.532 44.9171C122.803 43.5767 123.336 42.0204 123.965 40.2921C124.575 38.5644 125.282 36.618 125.42 34.4468L125.429 34.5047C124.883 33.0888 124.303 31.5853 123.706 30.0384C123.179 28.666 122.666 27.3284 122.174 26.048L122.305 26.1378C121.799 26.1367 121.301 26.1356 120.839 26.1351L120.511 26.1345L120.741 25.9015C121.155 25.4833 121.561 25.0729 121.937 24.6922L121.931 24.8718C119.491 22.1045 117.072 20.0469 115.175 18.9097C114.225 18.3412 113.401 18.0338 112.826 17.8724C112.245 17.7451 111.919 17.7142 111.921 17.6911Z" fill="black"/>
<path d="M101.162 39.9395C101.167 40.0189 99.5092 40.1715 97.4614 40.2811C95.4125 40.3907 93.7487 40.4155 93.7449 40.3362C93.7405 40.2569 95.3976 40.1043 97.4465 39.9946C99.4943 39.885 101.158 39.8602 101.162 39.9395Z" fill="black"/>
<path d="M113.979 45.5803C113.977 45.5891 113.896 45.5764 113.741 45.5444C113.588 45.5053 113.353 45.4767 113.068 45.3764C112.484 45.2155 111.662 44.8751 110.718 44.3087C109.773 43.7418 108.737 42.9143 107.662 41.9001C106.59 40.8809 105.483 39.6733 104.311 38.3874L104.221 38.2899L104.313 38.1946C104.771 37.7175 105.164 37.1192 105.677 36.5798L105.851 36.8041C105.708 36.8812 105.555 36.9638 105.402 37.0476C104.822 37.3611 104.251 37.6696 103.709 37.9627L103.556 38.0453L103.504 37.8811C102.406 34.3866 101.793 31.194 101.483 28.8934C101.327 27.7425 101.236 26.8142 101.189 26.174C101.163 25.854 101.153 25.6055 101.146 25.4375C101.139 25.2694 101.14 25.1813 101.15 25.1802C101.158 25.1796 101.175 25.2661 101.199 25.4325C101.224 25.6292 101.255 25.8705 101.293 26.163C101.372 26.7988 101.491 27.7216 101.672 28.8647C102.031 31.1505 102.674 34.32 103.776 37.7946L103.571 37.7131C104.113 37.4194 104.684 37.1098 105.263 36.7958C105.416 36.7126 105.57 36.6294 105.712 36.5529L106.514 36.1182L105.885 36.7771C105.396 37.2889 105 37.8888 104.518 38.3891L104.52 38.1962C105.688 39.4871 106.783 40.6974 107.834 41.7205C108.888 42.738 109.898 43.571 110.816 44.1506C112.655 45.3279 114.005 45.513 113.979 45.5803Z" fill="black"/>
<path d="M122.111 46.8679C122.106 46.9042 121.505 46.8657 120.54 46.7329C119.577 46.5935 118.243 46.3643 116.816 45.922C115.386 45.4867 114.156 44.8994 113.32 44.3926C112.481 43.8879 112.016 43.499 112.035 43.4726C112.062 43.434 112.566 43.7629 113.419 44.2157C114.271 44.6714 115.49 45.2184 116.9 45.6476C119.725 46.4933 122.13 46.7616 122.111 46.8679Z" fill="black"/>
<g opacity="0.3">
<path d="M123.428 49.0726C125.288 48.536 126.963 47.3791 128.123 45.8293C129.283 44.2801 129.922 42.3475 129.915 40.4121" fill="black"/>
</g>
<g opacity="0.3">
<path d="M116.792 19.7612C119.195 21.0025 121.312 22.7919 122.937 24.9542C122.743 25.0457 122.588 25.2132 122.51 25.412C122.775 25.4875 123.041 25.563 123.307 25.639C123.884 28.008 124.461 30.3764 125.039 32.7453C124.116 30.421 123.193 28.0967 122.27 25.7723C121.829 25.8175 121.389 25.8627 120.949 25.9079C121.362 25.5459 121.776 25.184 122.189 24.8225C120.684 23.5262 119.316 22.0718 118.113 20.4906" fill="black"/>
</g>
<path opacity="0.3" d="M105.713 30.6799L110.014 34.635L110.681 29.2288L115.837 29.5467L115.095 22.9136L114.788 28.5159L110.014 28.2537L109.13 32.9045" fill="black"/>
<path opacity="0.3" d="M127.689 27.3523L126.223 22.9136L129.312 27.9622L127.689 27.3523Z" fill="black"/>
<path d="M140.901 26.6899C140.934 26.7676 140.242 27.037 139.776 27.7653C139.29 28.4815 139.315 29.223 139.231 29.2236C139.196 29.2274 139.136 29.044 139.151 28.7355C139.164 28.4297 139.276 28.0038 139.536 27.6072C139.798 27.2122 140.145 26.9411 140.421 26.8083C140.698 26.6734 140.891 26.6568 140.901 26.6899Z" fill="black"/>
<path d="M95.0331 1.35121C94.3615 0.968321 93.4453 1.07795 92.8828 1.60794C91.7491 1.49886 90.5932 2.27841 90.2687 3.37034C89.4864 3.40119 88.7355 3.86672 88.3603 4.55372C87.9852 5.24072 87.9989 6.1244 88.3956 6.79927C87.6706 7.11991 87.1957 7.93197 87.2712 8.72144C87.3472 9.51091 87.9681 10.2172 88.7416 10.394C88.1763 11.0893 88.2353 12.211 88.8699 12.8434C89.5046 13.4759 90.6268 13.5299 91.3199 12.9619L95.908 3.33233C96.0776 2.57811 95.7047 1.7341 95.0331 1.35121Z" fill="black"/>
<path d="M91.2361 13.3216C89.3195 9.76103 90.4593 5.32611 93.8546 3.12959L94.1918 2.91142C97.9667 0.771092 101.894 2.78085 103.929 6.61417L110.234 17.0784L111.381 19.0969L110.097 27.7486L103.31 25.1637L102.296 23.6949C102.296 23.6949 98.4477 25.4133 96.1426 21.9452C95.0303 20.2693 93.0189 16.6332 91.2361 13.3216Z" fill="#FFBF9D"/>
<path d="M102.305 23.6966C102.305 23.6966 104.584 22.3981 105.979 19.4038C105.979 19.4038 106.54 22.6195 102.887 24.55L102.305 23.6966Z" fill="#FF9A6C"/>
<path d="M94.3443 15.9043C94.5052 16.1742 94.8671 16.2596 95.1514 16.0965C95.4357 15.9335 95.536 15.5831 95.3751 15.3137C95.2137 15.0437 94.8523 14.9578 94.568 15.1209C94.2832 15.2834 94.1829 15.6343 94.3443 15.9043Z" fill="black"/>
<path d="M93.1705 14.7489C93.2746 14.7742 93.4713 14.2492 94.0095 13.9032C94.5423 13.5495 95.1152 13.571 95.1312 13.4675C95.1411 13.4195 95.0017 13.3429 94.7494 13.3292C94.4998 13.3143 94.1335 13.3793 93.7996 13.5975C93.4663 13.8156 93.2647 14.1208 93.1842 14.3517C93.1005 14.5853 93.1209 14.7395 93.1705 14.7489Z" fill="black"/>
<path d="M99.098 13.1552C99.2589 13.4246 99.6203 13.5105 99.9051 13.3475C100.189 13.1844 100.29 12.834 100.129 12.564C99.9679 12.2946 99.6059 12.2082 99.3217 12.3712C99.0368 12.5349 98.9366 12.8858 99.098 13.1552Z" fill="black"/>
<path d="M98.262 11.3486C98.3662 11.3734 98.564 10.8489 99.1017 10.503C99.6344 10.1498 100.207 10.1708 100.223 10.0672C100.233 10.0193 100.094 9.94213 99.8415 9.9289C99.592 9.91348 99.2256 9.97904 98.8918 10.1972C98.5584 10.4154 98.3563 10.7211 98.2764 10.952C98.1932 11.185 98.213 11.3393 98.262 11.3486Z" fill="black"/>
<path d="M99.0685 16.4757C99.0514 16.4432 98.6801 16.6018 98.0939 16.8828C97.9474 16.9577 97.8003 17.0145 97.7166 16.9357C97.6202 16.8575 97.5821 16.6724 97.5452 16.4696C97.4593 16.0542 97.3695 15.619 97.2753 15.1623C96.8764 13.3101 96.493 11.8237 96.4186 11.8402C96.3442 11.8573 96.607 13.3718 97.0059 15.2234C97.1072 15.6779 97.2037 16.1115 97.2973 16.5258C97.3463 16.7153 97.3711 16.95 97.5744 17.1103C97.6774 17.1891 97.8267 17.1985 97.9298 17.1649C98.035 17.1346 98.1132 17.0866 98.1837 17.0464C98.7468 16.7236 99.0862 16.5076 99.0685 16.4757Z" fill="black"/>
<path d="M97.2627 9.81869C97.417 9.91675 97.7987 9.49254 98.3667 9.13775C98.927 8.77028 99.479 8.59729 99.4471 8.421C99.4295 8.33836 99.2532 8.27225 98.9788 8.28106C98.7061 8.28878 98.3408 8.38464 98.0026 8.6006C97.6649 8.81766 97.4296 9.10579 97.315 9.34545C97.1982 9.58675 97.1911 9.77021 97.2627 9.81869Z" fill="black"/>
<path d="M92.339 13.1966C92.5071 13.2715 92.8238 12.9305 93.2877 12.6738C93.7428 12.4011 94.1967 12.2969 94.216 12.1146C94.221 12.0281 94.0898 11.9333 93.8519 11.9047C93.6172 11.8749 93.2789 11.9289 92.9632 12.1107C92.6475 12.2931 92.4316 12.5581 92.3396 12.7768C92.2454 12.9966 92.2619 13.1575 92.339 13.1966Z" fill="black"/>
<path d="M90.5353 11.5006C90.5353 11.5006 90.0411 8.71462 90.7662 7.52077C91.6443 6.07515 93.1021 7.12246 94.0998 5.99417C95.0975 4.86588 95.9338 3.48307 97.7877 3.61915C99.8167 3.76845 99.6465 4.90445 100.734 6.4013C105.144 12.4702 107.443 13.506 105.853 10.3316C105.679 9.98394 106.413 9.14324 105.659 7.6855C104.682 5.79529 103.354 3.59215 102.14 2.58672C101.118 1.7394 100.036 1.39673 98.4245 1.2904C95.8804 1.12182 93.5048 2.61978 92.0074 3.81693C90.5111 5.01298 88.6159 8.8529 90.5353 11.5006Z" fill="black"/>
<path d="M105.57 10.3801C105.242 9.82646 105.432 9.09924 106.003 8.80285C106.695 8.4431 107.66 8.34393 108.488 9.71903C109.958 12.1585 107.206 13.1314 107.16 13.0637C107.128 13.0179 106.176 11.4065 105.57 10.3801Z" fill="#FFBF9D"/>
<path d="M107.138 11.8264C107.144 11.812 107.198 11.8308 107.29 11.8203C107.379 11.8104 107.513 11.7597 107.611 11.6352C107.812 11.3856 107.783 10.8452 107.529 10.3984C107.402 10.1725 107.228 9.98904 107.043 9.86178C106.862 9.7279 106.671 9.67281 106.527 9.7279C106.38 9.77584 106.335 9.90861 106.346 9.99565C106.355 10.0838 106.4 10.1229 106.389 10.135C106.386 10.1455 106.312 10.1257 106.272 10.0133C106.252 9.95874 106.246 9.88382 106.275 9.80283C106.305 9.71964 106.377 9.64361 106.473 9.59899C106.669 9.49872 106.943 9.56979 107.145 9.70972C107.358 9.84415 107.558 10.0474 107.702 10.3009C107.982 10.8022 108.008 11.4137 107.717 11.7277C107.572 11.8759 107.398 11.9107 107.289 11.8974C107.177 11.8826 107.131 11.8357 107.138 11.8264Z" fill="#FF9A6C"/>
<path d="M102.527 5.77945C102.353 6.19209 102.167 6.62291 101.817 6.90168C101.467 7.181 100.9 7.2427 100.597 6.9127C100.461 6.7645 100.376 6.54523 100.184 6.48739C99.9544 6.41852 99.7445 6.62236 99.5583 6.77331C98.911 7.29669 97.8813 7.26529 97.267 6.7039C97.2615 7.08403 96.8401 7.34021 96.4599 7.34076C96.0798 7.34131 95.7239 7.16998 95.3586 7.0653C94.9934 6.96063 94.5592 6.93639 94.2728 7.1854C94.1124 7.32479 94.0149 7.53689 93.8271 7.63606C93.4949 7.81125 93.1043 7.54295 92.8552 7.26198C92.6062 6.98101 92.3341 6.64164 91.9589 6.6444C91.6113 6.6466 91.3501 6.9441 91.089 7.17383C90.8279 7.40357 90.4108 7.57711 90.1541 7.34242C90.0191 7.21901 89.9822 7.02233 89.9805 6.83943C89.9734 6.01249 90.6168 5.22743 91.4289 5.07097C91.1518 4.12999 91.4928 3.03752 92.2564 2.42103C93.0194 1.80455 94.1593 1.70098 95.0215 2.17036C95.2303 1.3853 95.8396 0.718137 96.6032 0.43937C97.3662 0.160604 98.2625 0.278502 98.928 0.744581C99.4106 0.215697 100.219 0.011855 100.895 0.248751C101.571 0.485647 102.074 1.14951 102.121 1.86405C102.71 1.83155 103.354 2.02051 103.682 2.50973C104.011 2.99895 103.848 3.8033 103.287 3.98235C103.729 4.24293 103.911 4.86712 103.676 5.32384C103.442 5.78055 102.83 5.99817 102.36 5.79157" fill="black"/>
<path d="M100.951 16.4712C100.985 16.4144 101.026 16.3527 101.09 16.3384C101.147 16.3257 101.205 16.356 101.254 16.388C101.658 16.6513 101.909 17.1345 101.891 17.616C101.891 17.6209 101.891 17.6259 101.891 17.6303C101.857 18.3338 101.047 18.7222 100.442 18.3603L99.9899 18.0892C100.21 17.7196 100.731 16.8414 100.951 16.4712Z" fill="#FF9A6C"/>
<path d="M100.703 18.4689C100.688 18.4881 101.023 18.606 101.486 18.3675C101.597 18.3107 101.72 18.2028 101.794 18.0766C101.875 17.9548 101.951 17.7967 101.961 17.6177C101.975 17.2656 101.832 16.9098 101.614 16.5974C101.557 16.518 101.506 16.4475 101.434 16.372C101.363 16.3043 101.272 16.2255 101.133 16.2299C100.99 16.2387 100.91 16.3561 100.87 16.4271C100.83 16.4999 100.79 16.5715 100.75 16.6425C100.608 16.9059 100.474 17.1544 100.348 17.3879C100.123 17.8149 99.9957 18.0854 100.018 18.0981C100.04 18.1108 100.208 17.8634 100.462 17.4535C100.599 17.2265 100.745 16.9847 100.9 16.7279C100.981 16.6018 101.066 16.4007 101.143 16.4128C101.236 16.4057 101.362 16.5627 101.459 16.7048C101.663 16.9913 101.791 17.3196 101.788 17.6089C101.785 17.7505 101.731 17.8783 101.661 17.9945C101.594 18.1163 101.516 18.1901 101.417 18.254C101.021 18.497 100.7 18.4402 100.703 18.4689Z" fill="black"/>
<path d="M103.457 3.86331C103.461 3.85174 103.631 4.03574 103.605 4.41919C103.589 4.60374 103.508 4.83678 103.311 5.01473C103.119 5.18993 102.82 5.30782 102.501 5.25769L102.592 5.17725C102.607 5.45932 102.587 5.77005 102.501 6.08187C102.445 6.2813 102.363 6.47357 102.24 6.63444C102.124 6.79862 101.949 6.91982 101.788 6.99034C101.463 7.15286 101.094 7.16112 100.842 7.04102C100.589 6.92808 100.431 6.77327 100.327 6.6686C100.223 6.56227 100.176 6.49451 100.184 6.48735C100.192 6.47853 100.255 6.53087 100.37 6.62122C100.484 6.70937 100.65 6.84489 100.885 6.93304C101.333 7.12917 102.185 6.82671 102.343 6.03724C102.423 5.74801 102.446 5.45161 102.437 5.18442L102.434 5.0869L102.528 5.10398C102.792 5.15136 103.053 5.05936 103.224 4.91502C103.398 4.77012 103.481 4.57289 103.509 4.40707C103.559 4.06494 103.432 3.87102 103.457 3.86331Z" fill="black"/>
<path d="M95.4084 1.32562C95.4151 1.33334 95.3567 1.38292 95.2795 1.49696C95.2046 1.6099 95.1093 1.79942 95.1126 2.05284L95.1137 2.11675L95.052 2.09361C94.6349 1.93825 94.0108 1.79556 93.2907 1.90575C92.9343 1.96249 92.5574 2.0859 92.2159 2.30792C91.8743 2.52663 91.5812 2.85553 91.3906 3.2522C91.2418 3.56016 91.1647 3.89237 91.1575 4.21355C91.1553 4.53474 91.2264 4.84271 91.3608 5.1044L91.4021 5.18483L91.3167 5.21182C90.8936 5.3457 90.573 5.65201 90.4017 5.9754C90.2265 6.30155 90.2006 6.64202 90.2347 6.90921C90.3141 7.45463 90.5702 7.70144 90.5438 7.71356C90.5388 7.71797 90.476 7.66343 90.3884 7.53671C90.3031 7.41 90.194 7.20616 90.1444 6.92244C90.0948 6.64312 90.1086 6.2751 90.2893 5.91645C90.4661 5.56166 90.8055 5.22174 91.2716 5.06693L91.2275 5.17436C91.0771 4.89229 90.9967 4.55678 90.9972 4.2108C91.0027 3.86537 91.0848 3.50948 91.2435 3.18003C91.4462 2.75692 91.763 2.40433 92.1305 2.17349C92.4963 1.94045 92.8957 1.81539 93.2698 1.76306C94.0251 1.66169 94.6653 1.83027 95.0851 2.01042L95.0245 2.05174C95.0349 1.77242 95.1523 1.57795 95.2426 1.46831C95.3357 1.35813 95.4046 1.32067 95.4084 1.32562Z" fill="black"/>
</svg>
