<svg width="91" height="62" viewBox="0 0 91 62" fill="none" xmlns="http://www.w3.org/2000/svg">
<g clip-path="url(#clip0_995_1890)">
<path d="M65.9141 2.71969C65.8226 1.59194 64.973 0.62113 63.8179 0.356567H2.5385C1.38338 0.62113 0.53488 1.59082 0.442337 2.71969C0.338643 3.9943 1.22171 5.21173 2.5385 5.52226C3.56094 5.53571 4.81083 5.48863 5.83327 5.50208L5.83662 35.4122C5.83662 38.9771 8.72554 41.8603 12.2712 41.8345L26.9321 41.7281C28.9323 41.7135 30.5613 43.339 30.5613 45.3501V53.1513C30.5613 54.4551 29.5099 55.5133 28.2121 55.5133H25.8338C24.5371 55.5133 23.4845 56.5704 23.4845 57.8753C23.4845 59.1791 24.536 60.2373 25.8338 60.2373H40.5215C41.8182 60.2373 42.8707 59.1802 42.8707 57.8753C42.8707 56.5716 41.8193 55.5133 40.5215 55.5133H38.1432C36.8465 55.5133 35.7939 54.4562 35.7939 53.1513V45.3243C35.7939 43.3233 37.4073 41.7023 39.3965 41.7023H54.0239C57.5528 41.7023 60.4127 38.8268 60.4127 35.2788V25.1167C60.4127 24.4855 59.7661 24.0652 59.193 24.3219C53.5311 26.8599 52.3849 26.7556 52.3849 26.7556C52.3849 26.7556 49.768 26.6357 49.7669 24.0057C49.7658 20.3198 58.0323 16.5487 60.2221 15.6149C60.5421 15.4781 60.7495 15.1631 60.7495 14.8133V5.56037C61.7719 5.54692 62.7943 5.53459 63.8168 5.52114C65.1336 5.21061 66.0166 3.99318 65.9129 2.71857L65.9141 2.71969Z" fill="#A2A5AD"/>
<path d="M75.5697 37.7574C76.4662 37.8033 77.1541 38.5802 77.1541 39.4826V58.8181C77.1541 59.5871 77.4975 60.327 78.1164 60.7799C78.5412 61.0915 79.0652 61.2608 79.6071 61.2305C80.2359 61.1947 80.8124 60.8954 81.2205 60.4313C81.6018 59.9963 81.7924 59.4246 81.7924 58.845V22.4598C81.7924 22.0047 82.418 21.8848 82.5841 22.3085L87.5602 34.9458C87.9271 35.6734 88.7265 36.0332 89.4189 35.8427C90.2462 35.6151 90.7859 34.6364 90.4748 33.6903C88.7109 28.2096 86.947 22.7289 85.182 17.2482C85.182 17.2482 84.3491 12.9434 78.462 12.5847H71.6417C69.9179 12.5847 68.2231 13.0264 66.7168 13.8672L53.1408 21.4442C52.8899 21.5843 52.6714 21.7816 52.5242 22.0294C52.2231 22.5361 52.1685 23.1605 52.4015 23.7053C52.4171 23.7412 52.4327 23.7759 52.4506 23.8107C52.8475 24.592 53.8008 24.9037 54.607 24.5651C56.8247 23.6336 59.1048 22.721 61.4284 21.7827C65.1313 20.2862 68.7884 18.7212 68.8375 18.9746L68.7996 58.7811C68.7996 59.0367 68.833 59.2923 68.9155 59.5333C69.2411 60.4817 70.0996 61.1622 71.0886 61.2227C71.8869 61.272 72.6451 60.9099 73.138 60.3023C73.5037 59.8517 73.6754 59.2732 73.6542 58.6914C73.5427 55.5761 73.7913 42.4085 73.8125 39.4243C73.8192 38.4726 74.6131 37.7103 75.5697 37.7585V37.7574Z" fill="#0A1128"/>
<path d="M76.0827 11.0904C78.7103 11.0904 80.8403 8.94879 80.8403 6.30698C80.8403 3.66517 78.7103 1.52356 76.0827 1.52356C73.4551 1.52356 71.3251 3.66517 71.3251 6.30698C71.3251 8.94879 73.4551 11.0904 76.0827 11.0904Z" fill="#0A1128"/>
<path d="M17.4498 33.8572C15.3247 33.8572 13.5953 32.1185 13.5953 29.9818C13.5953 27.8452 15.3247 26.1064 17.4498 26.1064C19.575 26.1064 21.3043 27.8452 21.3043 29.9818C21.3043 32.1185 19.575 33.8572 17.4498 33.8572ZM17.4498 27.3407C16.0004 27.3407 14.8218 28.5256 14.8218 29.983C14.8218 31.4403 16.0004 32.6252 17.4498 32.6252C18.8993 32.6252 20.0778 31.4403 20.0778 29.983C20.0778 28.5256 18.8993 27.3407 17.4498 27.3407Z" fill="#004FFF"/>
<path d="M19.494 25.2028C19.4326 25.2028 19.3713 25.1938 19.31 25.1736C18.9877 25.0716 18.8082 24.7264 18.9097 24.4024C18.9454 24.2892 19.8073 21.5931 22.5691 18.8432C25.0978 16.3243 29.773 13.2818 37.6793 13.0968C38.0205 13.0867 38.2992 13.358 38.307 13.6988C38.3148 14.0396 38.0472 14.3221 37.7083 14.33C31.7978 14.4678 26.8774 16.3153 23.48 19.6728C20.91 22.2108 20.0882 24.7488 20.0793 24.7734C19.9968 25.0358 19.7549 25.2039 19.494 25.2039V25.2028Z" fill="#004FFF"/>
<path d="M40.9835 13.7955L36.3151 15.6205L37.4479 13.735L36.3797 11.8113L40.9835 13.7955Z" fill="#004FFF"/>
<path d="M48.417 9.84949H46.2618L45.2594 12.0568L44.2615 9.85733H42.1051L44.0831 13.0859L42.2099 16.2023H44.1723L45.2627 13.874L46.351 16.1945H48.3133L46.4401 13.078L48.417 9.84949Z" fill="#004FFF"/>
</g>
<defs>
<clipPath id="clip0_995_1890">
<rect width="90.1284" height="60.8762" fill="white" transform="translate(0.434326 0.356628)"/>
</clipPath>
</defs>
</svg>
