<svg width="31" height="24" viewBox="0 0 31 24" fill="none" xmlns="http://www.w3.org/2000/svg">
<path fill-rule="evenodd" clip-rule="evenodd" d="M23.6098 9.84367C24.7215 10.1193 25.7089 10.7591 26.4147 11.6612C27.1205 12.5632 27.5039 13.6756 27.504 14.8209V15.287C27.504 16.6466 26.9639 17.9505 26.0025 18.9119C25.0411 19.8733 23.7372 20.4134 22.3776 20.4134H21.9116C20.5817 20.4146 19.3035 19.8984 18.3475 18.974C17.3914 18.0496 16.8325 16.7895 16.7889 15.4604V15.4548H16.7852L16.7852 14.8209C16.7852 14.5767 16.8038 14.3363 16.8355 14.1014C16.8728 13.6148 16.9287 13.1358 17.0033 12.666C17.2004 11.4354 17.5505 10.2343 18.0453 9.09056C18.934 7.0422 20.3192 5.24763 22.0756 3.86908L22.2583 3.72741C22.3354 3.66842 22.4297 3.63633 22.5267 3.63607C22.8735 3.63607 23.0972 4.01262 22.9369 4.32021C22.7966 4.58746 22.6599 4.85655 22.5267 5.12738C22.2424 5.71042 21.9751 6.30161 21.7252 6.90019C21.3223 7.85976 20.9756 8.84196 20.6868 9.84181L20.7875 9.81758C21.1565 9.73539 21.5335 9.69413 21.9116 9.69454L22.3776 9.69454C22.8026 9.69454 23.2165 9.74674 23.6098 9.84367ZM24.6332 7.22455C26.2701 7.71132 27.706 8.71371 28.7271 10.0825C29.7482 11.4513 30.3 13.1132 30.3002 14.8209V15.287C30.3002 17.3882 29.4655 19.4033 27.9798 20.8891C26.494 22.3749 24.4788 23.2096 22.3776 23.2096H21.9116C20.6277 23.2106 19.3628 22.8992 18.2261 22.3023C17.0894 21.7054 16.1151 20.8409 15.3871 19.7833C14.6591 20.8409 13.6847 21.7054 12.548 22.3023C11.4113 22.8992 10.1464 23.2106 8.86254 23.2096H8.3965C6.32278 23.21 4.33154 22.3974 2.85029 20.9461C1.36903 19.4948 0.515839 17.5206 0.473877 15.4473L0.473877 14.8209C0.473877 14.4798 0.496247 14.1405 0.539122 13.8087C0.925001 8.92465 3.07063 4.55136 7.04127 1.50721C7.60685 1.0742 8.29937 0.839649 9.01167 0.839844C11.5115 0.839844 13.0121 3.49625 11.8974 5.61952C11.6905 6.01285 11.4127 6.5665 11.1182 7.22268C12.5871 7.65889 13.879 8.50895 14.8558 9.64048C15.8657 6.40344 17.858 3.56092 20.5563 1.50721C21.1219 1.0742 21.8144 0.839649 22.5267 0.839844C25.0266 0.839844 26.5272 3.49625 25.4124 5.61952C25.2055 6.01285 24.9278 6.5665 24.6332 7.22268V7.22455ZM10.0929 9.84367C9.68968 9.74435 9.27593 9.69427 8.86068 9.69454H8.39464C7.98196 9.69434 7.57076 9.74378 7.16989 9.84181C7.51195 8.65515 7.93549 7.49351 8.43751 6.36518C8.74211 5.67246 9.07039 4.9904 9.42179 4.32021C9.45877 4.24925 9.47694 4.17 9.47456 4.09001C9.47217 4.01003 9.44932 3.932 9.40818 3.86337C9.36704 3.79474 9.30899 3.73781 9.23957 3.69801C9.17015 3.65822 9.09168 3.63689 9.01167 3.63607C8.91461 3.63633 8.82031 3.66842 8.74323 3.72741C8.12367 4.20401 7.54387 4.73019 7.00958 5.30075C5.90949 6.48366 5.03173 7.85525 4.41841 9.34968C3.9824 10.4157 3.67089 11.5285 3.49007 12.666C3.41235 13.1417 3.35575 13.6207 3.32043 14.1014C3.28692 14.3398 3.2701 14.5802 3.2701 14.8209V15.4529H3.27196V15.4604C3.31554 16.7898 3.87474 18.0502 4.8312 18.9746C5.78766 19.8991 7.06631 20.4151 8.3965 20.4134H8.8644C10.224 20.4134 11.5279 19.8733 12.4893 18.9119C13.4507 17.9505 13.9908 16.6466 13.9908 15.287V14.8209C13.9908 12.4162 12.3317 10.3955 10.0966 9.84367H10.0929Z" fill="#3B4153"/>
</svg>
