<?xml version="1.0" encoding="utf-8"?>
<!-- Generator: Adobe Illustrator 27.6.1, SVG Export Plug-In . SVG Version: 6.00 Build 0)  -->
<svg version="1.1" id="Layer_1" xmlns="http://www.w3.org/2000/svg" xmlns:xlink="http://www.w3.org/1999/xlink" x="0px" y="0px"
	 viewBox="0 0 1080 920.43" style="enable-background:new 0 0 1080 920.43;" xml:space="preserve">
<style type="text/css">
	.st0{fill:#A9ACB2;}
	.st1{fill:#0A1128;}
	.st2{fill:#0055FF;}
	.st3{fill:none;}
</style>
<g>
	<path class="st0" d="M356.31,198.31c-14.91,0-27.04-12.13-27.04-27.04V44.38c0-14.91,12.13-27.04,27.04-27.04h368.13
		c14.91,0,27.04,12.13,27.04,27.04v126.9c0,14.91-12.13,27.04-27.04,27.04H356.31z"/>
	<path class="st1" d="M724.44,31.25c7.25,0,13.13,5.88,13.13,13.13v126.9c0,7.25-5.88,13.13-13.13,13.13H356.31
		c-7.25,0-13.13-5.88-13.13-13.13V44.38c0-7.25,5.88-13.13,13.13-13.13H724.44 M724.44,3.43H356.31
		c-22.58,0-40.94,18.37-40.94,40.94v126.9c0,22.58,18.37,40.94,40.94,40.94h368.13c22.58,0,40.94-18.37,40.94-40.94V44.38
		C765.39,21.8,747.02,3.43,724.44,3.43L724.44,3.43z"/>
</g>
<g>
	<path class="st0" d="M248.97,817.91c-4.7,0-9.08-2.38-11.63-6.33c-2.56-3.95-2.94-8.93-1-13.22l197.18-438.09
		c2.24-4.97,7.18-8.17,12.64-8.17h179.71c5.37,0,10.25,3.1,12.54,7.95l205.92,437.34c2.02,4.29,1.71,9.31-0.83,13.32
		c-2.54,4.01-6.95,6.44-11.69,6.44C831.8,817.16,248.97,817.91,248.97,817.91z"/>
	<path class="st1" d="M625.86,365.96L831.78,803.3l-582.82,0.75l197.18-438.09H625.86 M625.86,338.24H446.15
		c-10.91,0-20.8,6.4-25.27,16.34L223.69,792.68c-3.86,8.58-3.11,18.54,2.01,26.44c5.11,7.89,13.87,12.65,23.26,12.65
		c0.01,0,0.02,0,0.04,0l582.82-0.75c9.48-0.01,18.3-4.87,23.38-12.88c5.08-8.01,5.7-18.06,1.66-26.64L650.93,354.15
		C646.36,344.44,636.59,338.24,625.86,338.24L625.86,338.24z"/>
</g>
<g>
	<path class="st2" d="M610.5,97.24H470.25c-7.68,0-13.91-6.23-13.91-13.91v0c0-7.68,6.23-13.91,13.91-13.91H610.5
		c7.68,0,13.91,6.23,13.91,13.91v0C624.41,91.01,618.18,97.24,610.5,97.24z"/>
</g>
<g>
	<path class="st2" d="M610.5,147.63H470.25c-7.68,0-13.91-6.23-13.91-13.91v0c0-7.68,6.23-13.91,13.91-13.91H610.5
		c7.68,0,13.91,6.23,13.91,13.91v0C624.41,141.4,618.18,147.63,610.5,147.63z"/>
</g>
<g>
	<g>
		<path class="st1" d="M566.48,318.12L566.48,318.12c7.35,0,13.3-5.96,13.3-13.3v-70.15h-26.61v70.15
			C553.18,312.16,559.14,318.12,566.48,318.12z"/>
	</g>
	<g>
		<path class="st1" d="M514.48,318.12L514.48,318.12c7.35,0,13.3-5.96,13.3-13.3v-70.15h-26.61v70.15
			C501.18,312.16,507.13,318.12,514.48,318.12z"/>
	</g>
</g>
<path class="st1" d="M965.73,832.28H115.11c-6.68,0-12.1-5.42-12.1-12.1v0c0-6.68,5.42-12.1,12.1-12.1h850.62
	c6.68,0,12.1,5.42,12.1,12.1v0C977.83,826.87,972.41,832.28,965.73,832.28z"/>
<line class="st3" x1="540.38" y1="851.88" x2="540.38" y2="197.18"/>
<path class="st1" d="M540.83,445.24L540.83,445.24c7.12,0,12.9,5.78,12.9,12.9v26.07c0,7.12-5.78,12.9-12.9,12.9h0
	c-7.12,0-12.9-5.78-12.9-12.9v-26.07C527.93,451.02,533.7,445.24,540.83,445.24z"/>
<g>
	<path class="st2" d="M540.83,521.03L540.83,521.03c7.12,0,12.9,5.78,12.9,12.9V560c0,7.12-5.78,12.9-12.9,12.9h0
		c-7.12,0-12.9-5.78-12.9-12.9v-26.07C527.93,526.81,533.7,521.03,540.83,521.03z"/>
</g>
<path class="st1" d="M540.83,596.82L540.83,596.82c7.12,0,12.9,5.78,12.9,12.9v26.07c0,7.12-5.78,12.9-12.9,12.9h0
	c-7.12,0-12.9-5.78-12.9-12.9v-26.07C527.93,602.6,533.7,596.82,540.83,596.82z"/>
<g>
	<path class="st2" d="M540.83,672.61L540.83,672.61c7.12,0,12.9,5.78,12.9,12.9v26.07c0,7.12-5.78,12.9-12.9,12.9h0
		c-7.12,0-12.9-5.78-12.9-12.9v-26.07C527.93,678.39,533.7,672.61,540.83,672.61z"/>
</g>
<path class="st1" d="M540.83,748.41L540.83,748.41c7.12,0,12.9,5.78,12.9,12.9v26.07c0,7.12-5.78,12.9-12.9,12.9h0
	c-7.12,0-12.9-5.78-12.9-12.9v-26.07C527.93,754.18,533.7,748.41,540.83,748.41z"/>
<g>
	<path class="st2" d="M540.83,370.66L540.83,370.66c7.12,0,12.9,5.78,12.9,12.9v26.07c0,7.12-5.78,12.9-12.9,12.9h0
		c-7.12,0-12.9-5.78-12.9-12.9v-26.07C527.93,376.44,533.7,370.66,540.83,370.66z"/>
</g>
<path class="st1" d="M56.63,806.12h19.19c7.22,0,13.08,5.86,13.08,13.08l0,0c0,7.22-5.86,13.08-13.08,13.08H56.63
	c-7.22,0-13.08-5.86-13.08-13.08l0,0C43.55,811.98,49.41,806.12,56.63,806.12z"/>
<path class="st1" d="M18.17,806.12L18.17,806.12c7.22,0,13.08,5.86,13.08,13.08l0,0c0,7.22-5.86,13.08-13.08,13.08h0
	c-7.22,0-13.08-5.86-13.08-13.08l0,0C5.09,811.98,10.95,806.12,18.17,806.12z"/>
<path class="st1" d="M1024.12,806.12h-19.19c-7.22,0-13.08,5.86-13.08,13.08l0,0c0,7.22,5.86,13.08,13.08,13.08h19.19
	c7.22,0,13.08-5.86,13.08-13.08l0,0C1037.2,811.98,1031.34,806.12,1024.12,806.12z"/>
<path class="st1" d="M1062.58,806.12L1062.58,806.12c-7.22,0-13.08,5.86-13.08,13.08l0,0c0,7.22,5.86,13.08,13.08,13.08l0,0
	c7.22,0,13.08-5.86,13.08-13.08l0,0C1075.66,811.98,1069.8,806.12,1062.58,806.12z"/>
<g>
	<path class="st2" d="M209.02,735.77h0.64c6.95,0,12.58-5.63,12.58-12.58v-34.91c0-6.95-5.63-12.58-12.58-12.58h-0.64
		c-6.95,0-12.58,5.63-12.58,12.58v34.91C196.44,730.14,202.07,735.77,209.02,735.77z"/>
</g>
<g>
	<path class="st2" d="M209.34,617.65c3.22,0,11.09,8.12,11.09,23.18s-7.87,23.18-11.09,23.18s-11.09-8.12-11.09-23.18
		S206.12,617.65,209.34,617.65 M209.34,591.45c-20.6,0-37.29,22.11-37.29,49.38s16.7,49.38,37.29,49.38s37.29-22.11,37.29-49.38
		S229.94,591.45,209.34,591.45L209.34,591.45z"/>
</g>
<g>
	<path class="st2" d="M873.82,735.77h0.64c6.95,0,12.58-5.63,12.58-12.58v-34.91c0-6.95-5.63-12.58-12.58-12.58h-0.64
		c-6.95,0-12.58,5.63-12.58,12.58v34.91C861.24,730.14,866.87,735.77,873.82,735.77z"/>
</g>
<g>
	<path class="st2" d="M874.14,617.65c3.22,0,11.09,8.12,11.09,23.18s-7.87,23.18-11.09,23.18s-11.09-8.12-11.09-23.18
		S870.92,617.65,874.14,617.65 M874.14,591.45c-20.6,0-37.29,22.11-37.29,49.38s16.7,49.38,37.29,49.38
		c20.59,0,37.29-22.11,37.29-49.38S894.74,591.45,874.14,591.45L874.14,591.45z"/>
</g>
<g>
	<path class="st2" d="M272.99,577.34h0.64c6.95,0,12.58-5.63,12.58-12.58v-34.91c0-6.95-5.63-12.58-12.58-12.58h-0.64
		c-6.95,0-12.58,5.63-12.58,12.58v34.91C260.41,571.71,266.04,577.34,272.99,577.34z"/>
</g>
<g>
	<path class="st2" d="M273.31,459.22c3.22,0,11.09,8.12,11.09,23.18s-7.87,23.18-11.09,23.18s-11.09-8.12-11.09-23.18
		S270.09,459.22,273.31,459.22 M273.31,433.02c-20.6,0-37.29,22.11-37.29,49.38c0,27.27,16.7,49.38,37.29,49.38
		s37.29-22.11,37.29-49.38C310.6,455.13,293.9,433.02,273.31,433.02L273.31,433.02z"/>
</g>
<g>
	<path class="st2" d="M808.36,577.34H809c6.95,0,12.58-5.63,12.58-12.58v-34.91c0-6.95-5.63-12.58-12.58-12.58h-0.64
		c-6.95,0-12.58,5.63-12.58,12.58v34.91C795.78,571.71,801.41,577.34,808.36,577.34z"/>
</g>
<g>
	<path class="st2" d="M808.68,459.22c3.22,0,11.09,8.12,11.09,23.18s-7.87,23.18-11.09,23.18s-11.09-8.12-11.09-23.18
		S805.46,459.22,808.68,459.22 M808.68,433.02c-20.6,0-37.29,22.11-37.29,49.38c0,27.27,16.7,49.38,37.29,49.38
		s37.29-22.11,37.29-49.38C845.97,455.13,829.28,433.02,808.68,433.02L808.68,433.02z"/>
</g>
<g>
	<path class="st2" d="M373.52,879.29h-49.59c-7.24,0-13.17-5.93-13.17-13.17v0c0-7.24,5.93-13.17,13.17-13.17h49.59
		c7.24,0,13.17,5.93,13.17,13.17v0C386.69,873.37,380.76,879.29,373.52,879.29z"/>
</g>
<g>
	<path class="st2" d="M758.22,879.29h-49.59c-7.24,0-13.17-5.93-13.17-13.17v0c0-7.24,5.93-13.17,13.17-13.17h49.59
		c7.24,0,13.17,5.93,13.17,13.17v0C771.39,873.37,765.46,879.29,758.22,879.29z"/>
</g>
<g>
	<path class="st2" d="M667.95,879.29H412.8c-7.24,0-13.17-5.93-13.17-13.17v0c0-7.24,5.93-13.17,13.17-13.17h255.15
		c7.24,0,13.17,5.93,13.17,13.17v0C681.12,873.37,675.19,879.29,667.95,879.29z"/>
</g>
<g>
	<path class="st2" d="M625.22,918.8H455.53c-7.24,0-13.17-5.93-13.17-13.17v0c0-7.24,5.93-13.17,13.17-13.17h169.68
		c7.24,0,13.17,5.93,13.17,13.17v0C638.39,912.87,632.46,918.8,625.22,918.8z"/>
</g>
<rect x="514.62" y="871.23" class="st2" width="52.81" height="26.61"/>
</svg>
