<svg width="34" height="34" viewBox="0 0 34 34" fill="none" xmlns="http://www.w3.org/2000/svg">
<path opacity="0.4" fill-rule="evenodd" clip-rule="evenodd" d="M0 2.68421C0 1.20176 0.992755 0 2.21738 0H16.9999C18.2245 0 19.2173 1.20176 19.2173 2.68421C19.2173 4.16666 18.2245 5.36842 16.9999 5.36842H2.21738C0.992755 5.36842 0 4.16666 0 2.68421Z" fill="#28303F"/>
<path fill-rule="evenodd" clip-rule="evenodd" d="M0 16.6842C0 15.2018 0.992755 14 2.21738 14H31.7825C33.0071 14 33.9998 15.2018 33.9998 16.6842C33.9998 18.1667 33.0071 19.3684 31.7825 19.3684H2.21738C0.992755 19.3684 0 18.1667 0 16.6842Z" fill="#0A1128"/>
<path opacity="0.4" fill-rule="evenodd" clip-rule="evenodd" d="M14.7828 31.316C14.7828 29.8336 15.7755 28.6318 17.0002 28.6318L31.7827 28.6318C33.0073 28.6318 34.0001 29.8336 34.0001 31.316C34.0001 32.7985 33.0073 34.0003 31.7827 34.0003L17.0002 34.0003C15.7755 34.0003 14.7828 32.7985 14.7828 31.316Z" fill="#28303F"/>
</svg>
