<svg width="46" height="53" viewBox="0 0 46 53" fill="none" xmlns="http://www.w3.org/2000/svg">
<path fill-rule="evenodd" clip-rule="evenodd" d="M35.3552 40.4362C36.1732 40.4362 36.8548 41.1604 36.8548 42.0658L36.8548 49.1048L41.331 49.1048C42.149 49.1048 42.8307 49.8291 42.8307 50.7344C42.8307 51.6398 42.1718 52.364 41.331 52.364L29.402 52.364C28.584 52.364 27.9023 51.6398 27.9023 50.7344C27.9023 49.8291 28.5613 49.1048 29.402 49.1048L33.8782 49.1048L33.8782 42.0658C33.8782 41.1604 34.5372 40.4362 35.3779 40.4362L35.3552 40.4362Z" fill="#E5E7EB"/>
<path fill-rule="evenodd" clip-rule="evenodd" d="M10.6364 40.436C11.4544 40.436 12.1361 41.1603 12.1361 42.0657L12.1361 49.1047L16.6123 49.1047C17.4303 49.1047 18.1119 49.829 18.1119 50.7343C18.1119 51.6397 17.453 52.3639 16.6123 52.3639L4.68325 52.3639C3.86525 52.3639 3.18359 51.6397 3.18359 50.7343C3.18359 49.829 3.84253 49.1047 4.68325 49.1047L9.15948 49.1047L9.15948 42.0657C9.15948 41.1603 9.81842 40.436 10.6591 40.436L10.6364 40.436Z" fill="#E5E7EB"/>
<path d="M1.36942 12.8684C1.36942 8.49755 4.94266 4.91288 9.35974 4.91288L36.6245 4.91288C41.0434 4.91288 44.6148 8.4767 44.6148 12.8684L44.6148 33.2386C44.6148 37.6303 41.0434 41.1941 36.6245 41.1941L9.35974 41.1941C4.94088 41.1941 1.36942 37.6303 1.36942 33.2386L1.36942 12.8684Z" fill="#E5E7EB" stroke="#0A1128" stroke-width="2.19588"/>
<path fill-rule="evenodd" clip-rule="evenodd" d="M20.8594 20.1121C20.8594 19.3358 21.6394 18.692 22.5799 18.692L34.0502 18.692C34.9907 18.692 35.7707 19.3358 35.7707 20.1121C35.7707 20.8885 34.9907 21.5323 34.0502 21.5323L22.5799 21.5323C21.6394 21.5323 20.8594 20.8885 20.8594 20.1121Z" fill="#004FFF"/>
<path fill-rule="evenodd" clip-rule="evenodd" d="M20.8594 25.7927C20.8594 25.0164 21.5101 24.3727 22.2949 24.3727L41.4345 24.3727C42.2192 24.3727 42.87 25.0164 42.87 25.7927C42.87 26.569 42.2192 27.2128 41.4345 27.2128L22.2949 27.2128C21.5101 27.2128 20.8594 26.569 20.8594 25.7927Z" fill="#004FFF"/>
<path d="M37.3966 0.940674L33.2839 0.940674C32.784 0.940674 32.375 1.34808 32.375 1.84602C32.375 2.34396 32.784 2.75136 33.2839 2.75136L34.6245 2.75136L34.6245 3.83777L36.0332 3.83777L36.0332 2.75136L37.3738 2.75136C37.8737 2.75136 38.2827 2.34396 38.2827 1.84602C38.2827 1.34808 37.8737 0.940674 37.3738 0.940674L37.3966 0.940674ZM37.3966 2.18552L33.2839 2.18552C33.1021 2.18552 32.9431 2.02709 32.9431 1.84602C32.9431 1.66495 33.1021 1.50651 33.2839 1.50651L37.3966 1.50651C37.5783 1.50651 37.7374 1.66495 37.7374 1.84602C37.7374 2.02709 37.5783 2.18552 37.3966 2.18552Z" fill="#23293E"/>
<path d="M25.0372 0.940674L20.9245 0.940674C20.4246 0.940674 20.0156 1.34808 20.0156 1.84602C20.0156 2.34396 20.4246 2.75136 20.9245 2.75136L22.2651 2.75136L22.2651 3.83777L23.6739 3.83777L23.6739 2.75136L25.0145 2.75136C25.5144 2.75136 25.9233 2.34396 25.9233 1.84602C25.9233 1.34808 25.5144 0.940674 25.0145 0.940674L25.0372 0.940674ZM25.0372 2.18552L20.9245 2.18552C20.7427 2.18552 20.5837 2.02709 20.5837 1.84602C20.5837 1.66495 20.7427 1.50651 20.9245 1.50651L25.0372 1.50651C25.219 1.50651 25.378 1.66495 25.378 1.84602C25.378 2.02709 25.219 2.18552 25.0372 2.18552Z" fill="#23293E"/>
<path d="M12.6993 0.940674L8.58661 0.940674C8.08673 0.940674 7.67773 1.34808 7.67773 1.84602C7.67773 2.34396 8.08673 2.75136 8.58661 2.75136L9.92721 2.75136L9.92721 3.83777L11.336 3.83777L11.336 2.75136L12.6766 2.75136C13.1765 2.75136 13.5855 2.34396 13.5855 1.84602C13.5855 1.34808 13.1765 0.940674 12.6766 0.940674L12.6993 0.940674ZM12.6993 2.18552L8.58661 2.18552C8.40484 2.18552 8.24578 2.02709 8.24578 1.84602C8.24578 1.66495 8.40484 1.50651 8.58661 1.50651L12.6993 1.50651C12.8811 1.50651 13.0401 1.66495 13.0401 1.84602C13.0401 2.02709 12.8811 2.18552 12.6993 2.18552Z" fill="#23293E"/>
<path d="M17.9667 22.2352C13.2732 21.5905 9.22586 25.0755 9.49781 29.698M7.72266 20.8222C7.72266 21.1989 7.87228 21.5601 8.1386 21.8264C8.40493 22.0927 8.76614 22.2424 9.14278 22.2424C9.51942 22.2424 9.88064 22.0927 10.147 21.8264C10.4133 21.5601 10.5629 21.1989 10.5629 20.8222C10.5629 20.4456 10.4133 20.0844 10.147 19.818C9.88064 19.5517 9.51942 19.4021 9.14278 19.4021C8.76614 19.4021 8.40493 19.5517 8.1386 19.818C7.87228 20.0844 7.72266 20.4456 7.72266 20.8222Z" stroke="#004FFF" stroke-width="1.09794" stroke-linecap="round" stroke-linejoin="round"/>
<path d="M5.23828 24.4197C7.21226 24.1463 8.98386 25.0999 9.94174 26.6209" stroke="#004FFF" stroke-width="1.09794" stroke-linecap="round" stroke-linejoin="round"/>
<path d="M5.23828 23.6628C5.23828 20.65 5.23828 19.1439 6.17414 18.2081C7.11001 17.2722 8.61676 17.2722 11.6288 17.2722C14.6416 17.2722 16.1477 17.2722 17.0835 18.2081C18.0194 19.1439 18.0194 20.6507 18.0194 23.6628C18.0194 26.6756 18.0194 28.1816 17.0835 29.1175C16.1477 30.0533 14.6409 30.0533 11.6288 30.0533C8.61605 30.0533 7.11001 30.0533 6.17414 29.1175C5.23828 28.1816 5.23828 26.6749 5.23828 23.6628Z" stroke="#004FFF" stroke-width="1.09794" stroke-linecap="round" stroke-linejoin="round"/>
</svg>
