<svg width="47" height="54" viewBox="0 0 47 54" fill="none" xmlns="http://www.w3.org/2000/svg">
<path d="M20.6797 49.356L19.1964 35.2495L13.2587 32.7336L15.0435 48.9096C15.142 49.8015 15.7204 50.5546 16.3606 50.6243L19.602 50.9773C20.2896 51.0522 20.7804 50.3138 20.6797 49.356Z" fill="#004FFF"/>
<path d="M30.3499 12.2959C33.2517 11.4063 36.1895 13.568 36.1895 16.5928L36.1895 35.8887C36.1895 38.9134 33.2517 41.0751 30.3499 40.1856L6.15315 32.8586L6.15315 19.3714L30.3499 12.2959Z" fill="#E5E7EB"/>
<path d="M7.76367 4.97615L7.76367 11.6492C7.76367 14.1061 9.75148 16.0978 12.2036 16.0978L15.094 16.0978C17.9546 21.5252 17.9546 21.5252 20.0106 16.1201L23.3033 16.0978C25.7554 16.0978 27.7432 14.1061 27.7432 11.6492L27.7432 4.97615C27.7432 2.51923 25.7554 0.527492 23.3033 0.527492L12.2036 0.527492C9.75148 0.527492 7.76367 2.51923 7.76367 4.97615Z" fill="#004FFF"/>
<path fill-rule="evenodd" clip-rule="evenodd" d="M11.6934 3.64141C11.6934 3.19919 12.2377 2.8407 12.9091 2.8407L22.6352 2.8407C23.3066 2.8407 23.8509 3.19919 23.8509 3.64141C23.8509 4.08362 23.3066 4.44211 22.6352 4.44211L12.9091 4.44211C12.2377 4.44211 11.6934 4.08362 11.6934 3.64141Z" fill="white"/>
<path fill-rule="evenodd" clip-rule="evenodd" d="M11.6934 8.26787C11.6934 7.82565 12.2377 7.46716 12.9091 7.46716L22.6352 7.46716C23.3066 7.46716 23.8509 7.82565 23.8509 8.26787C23.8509 8.71009 23.3066 9.06858 22.6352 9.06858L12.9091 9.06858C12.2377 9.06858 11.6934 8.71009 11.6934 8.26787Z" fill="white"/>
<path fill-rule="evenodd" clip-rule="evenodd" d="M11.6934 12.8946C11.6934 12.4524 12.2377 12.0939 12.9091 12.0939L22.6352 12.0939C23.3066 12.0939 23.8509 12.4524 23.8509 12.8946C23.8509 13.3368 23.3066 13.6953 22.6352 13.6953L12.9091 13.6953C12.2377 13.6953 11.6934 13.3368 11.6934 12.8946Z" fill="white"/>
<path d="M6.86719 32.035L6.86719 20.8021C6.86719 18.941 5.34632 17.4323 3.47023 17.4323C1.59414 17.4323 0.0732636 18.941 0.0732634 20.8021L0.0732627 32.035C0.0732626 33.8961 1.59413 35.4048 3.47022 35.4048C5.34631 35.4048 6.86719 33.8961 6.86719 32.035Z" fill="#004FFF"/>
<path fill-rule="evenodd" clip-rule="evenodd" d="M46.4265 18.4665C47.0758 19.1336 47.0758 20.2151 46.4265 20.8822L44.2095 23.1598C43.5602 23.8269 42.5074 23.8269 41.8581 23.1598C41.2088 22.4927 41.2088 21.4112 41.8581 20.7441L44.0751 18.4665C44.7244 17.7994 45.7772 17.7994 46.4265 18.4665Z" fill="#004FFF"/>
<path fill-rule="evenodd" clip-rule="evenodd" d="M41.8581 29.6768C42.5074 29.0097 43.5602 29.0097 44.2095 29.6768L46.4265 31.9544C47.0758 32.6215 47.0758 33.703 46.4265 34.3701C45.7772 35.0372 44.7244 35.0372 44.0751 34.3701L41.8581 32.0926C41.2088 31.4255 41.2088 30.3439 41.8581 29.6768Z" fill="#004FFF"/>
</svg>
