<svg width="39" height="55" viewBox="0 0 39 55" fill="none" xmlns="http://www.w3.org/2000/svg">
<path d="M27.4471 0.201049C33.5105 0.20105 38.4258 5.05488 38.4258 11.0424L38.4258 43.5664C38.4258 49.5539 33.5105 54.4077 27.4471 54.4077L10.9791 54.4077C4.91574 54.4077 0.000420238 49.5539 0.00042051 43.5664L0.000421986 11.0424C0.000422257 5.05488 4.91574 0.201048 10.9791 0.201049L27.4471 0.201049Z" fill="#E5E7EB"/>
<path d="M21.2713 32.7251C21.2713 33.8478 20.3497 34.7579 19.2128 34.7579C18.0759 34.7579 17.1543 33.8478 17.1543 32.7251C17.1543 31.6025 18.0759 30.6924 19.2128 30.6924C20.3497 30.6924 21.2713 31.6025 21.2713 32.7251Z" fill="#004FFF"/>
<path fill-rule="evenodd" clip-rule="evenodd" d="M19.2129 18.4958C15.2333 18.4958 11.6337 20.0862 9.02385 22.6634C8.21995 23.4573 6.91658 23.4573 6.11269 22.6634C5.30879 21.8696 5.30879 20.5825 6.11269 19.7887C9.46307 16.4802 14.0975 14.4303 19.2129 14.4303C24.3283 14.4303 28.9627 16.4802 32.3131 19.7887C33.117 20.5825 33.117 21.8696 32.3131 22.6634C31.5092 23.4573 30.2059 23.4573 29.402 22.6634C26.7921 20.0862 23.1926 18.4958 19.2129 18.4958ZM19.2129 26.6268C17.507 26.6268 15.966 27.3071 14.8462 28.4129C14.0423 29.2068 12.7389 29.2068 11.935 28.4129C11.1311 27.6191 11.1311 26.332 11.935 25.5382C13.7953 23.7011 16.3713 22.5613 19.2129 22.5613C22.0545 22.5613 24.6305 23.7011 26.4908 25.5382C27.2947 26.332 27.2947 27.6191 26.4908 28.4129C25.6869 29.2068 24.3835 29.2068 23.5797 28.4129C22.4599 27.3071 20.9188 26.6268 19.2129 26.6268Z" fill="#004FFF"/>
<path fill-rule="evenodd" clip-rule="evenodd" d="M14.4102 46.2766C14.4102 45.154 15.3318 44.2439 16.4687 44.2439L21.958 44.2439C23.0949 44.2439 24.0165 45.154 24.0165 46.2766C24.0165 47.3993 23.0949 48.3094 21.958 48.3094L16.4687 48.3094C15.3318 48.3094 14.4102 47.3993 14.4102 46.2766Z" fill="#0A1128"/>
</svg>
