<svg width="496" height="464" viewBox="0 0 496 464" fill="none" xmlns="http://www.w3.org/2000/svg">
<path d="M464.51 110.109C456.71 96.211 443.658 76.5371 422.885 57.343C398.343 34.6678 375.074 23.8145 370.014 21.5112C339.53 7.64781 311.402 4.7338 292.897 4.51569C297.914 16.2677 306.691 33.1323 321.837 50.0929C323.87 52.37 336.948 66.8354 356.439 79.5209C397.837 106.48 444.112 109.76 464.51 110.109Z" fill="black"/>
<path d="M147.311 23.0381C149.064 21.5549 151.411 19.81 154.473 17.847C157.876 15.6659 161.54 13.7464 166.644 11.67C169.174 10.6405 177.096 7.5171 188.866 4.94335C200.024 2.50046 209.089 1.7676 216.121 1.2005C219.376 0.938763 222.124 0.781721 224.148 0.677026C224.27 0.668301 224.34 0.807895 224.261 0.903865C220.606 5.78091 215.502 13.0659 210.267 22.3838C203.357 34.6854 193.455 52.6581 190.628 76.703C189.346 87.6175 190.017 95.4521 190.358 98.6192C190.89 103.522 191.858 111.959 196.125 121.835C199.344 129.277 203.008 134.259 205.652 137.801C218.276 154.718 233.361 163.809 241.615 168.669C249.999 173.607 257.083 176.608 262.728 178.999C272.124 182.986 280.387 185.699 286.703 187.54C294.285 189.547 301.866 191.553 309.448 193.551H309.457C316.341 194.965 326.452 197.059 338.693 199.65C345.254 201.037 360.74 204.317 368.836 206.141C382.037 209.116 401.309 214.019 426.096 222.246C433.843 224.777 440.16 227.158 444.592 228.912C476.166 241.406 486.042 251.186 489.34 254.684C493.162 258.741 495.203 264.124 495.09 269.691C495.046 271.907 494.941 274.324 494.741 276.906C494.348 282.08 492.83 297.627 484.332 318.688C473.139 346.441 457.434 364.867 448.544 375.136C435.021 390.753 422.449 401.004 415.26 406.806C404.11 415.81 393.841 422.711 385.605 427.78C385.465 427.867 385.326 427.684 385.422 427.553C409.65 395.97 420.434 371.131 425.372 357.425C427.213 352.321 429.28 345.865 430.833 337.742C432.927 326.741 436.33 307.599 428.687 286.747C426.183 279.925 422.999 274.297 419.962 269.839C413.646 261.088 407.181 255.121 402.47 251.317C394.277 244.712 386.975 241.109 379.21 237.27C370.206 232.829 362.694 230.151 358.541 228.772C353.298 227.036 349.084 226.007 340.647 223.939C330.588 221.479 326.557 220.816 312.284 217.596C309.352 216.933 304.728 216.096 298.508 214.412C295.375 213.566 292.505 212.711 289.451 211.725C263.086 203.279 248.585 196.762 248.585 196.762C233.396 189.939 222.621 183.509 216.043 179.583C212.187 177.289 209.377 175.491 206.359 173.389C198.376 167.814 192.364 162.405 188.334 158.452C188.334 158.452 188.334 158.452 188.325 158.444C180.307 151.595 171.722 142.696 163.966 131.336C152.249 114.166 147.197 98.3574 145.112 90.7409C143.14 83.5169 140.279 72.7682 140.505 58.3291C140.741 43.1745 144.248 30.9862 147.171 23.1777" fill="black"/>
<path d="M118.799 36.6833C100.172 61.5222 89.1526 83.7873 82.6616 99.2822C72.5672 123.397 70.2639 138.717 69.4176 147.389C68.3358 158.391 68.711 165.737 68.8767 168.058C69.3915 175.011 70.6304 189.59 79.0758 205.722C88.3325 223.389 101.175 233.257 107.884 238.291C114.306 243.116 119.907 246.169 124.164 248.49C136.309 255.112 146.569 258.61 154.491 261.28C163.818 264.421 171.024 266.21 175.884 267.405C192.242 271.427 205.46 273.189 208.348 273.564C214.001 274.297 216.88 274.489 225.631 275.711C232.061 276.609 238.186 277.578 241.187 278.101C255.426 280.596 269.289 285.203 270.694 285.674C277.019 287.794 285.028 290.525 294.87 295.542C302.155 299.258 315.904 306.421 329.672 320.319C335.509 326.217 339.775 331.731 342.645 335.806C345.158 339.269 348.447 344.242 351.64 350.568C357.966 363.122 360.225 373.775 361.569 380.362C362.581 385.283 364.535 396.232 364.282 410.418C364.082 421.455 362.616 430.851 361.037 438.066L318.766 456.318C321.986 449.251 325.196 440.876 327.805 431.27C329.454 425.198 330.632 419.466 331.469 414.178C333.354 402.313 333.79 387.464 329.323 371.507C328.695 369.273 328.005 367.127 327.264 365.068C324.856 358.585 320.921 350.384 314.378 342.166C307.398 333.389 300.305 328.163 296.667 325.528C292.566 322.553 288.858 320.363 286.023 318.819C281.434 316.402 275.222 313.392 267.64 310.452C255.112 305.592 245 303.306 238.517 301.867C233.047 300.654 226.006 299.302 217.718 298.246C206.402 297.103 192.338 295.367 176.25 292.61C161.75 290.132 150.705 287.698 146.229 286.686C132.13 283.51 114.131 278.869 93.4015 272.029C83.1501 268.897 71.7035 264.691 59.585 258.968C51.7068 255.251 44.5526 251.36 38.1139 247.513C31.6053 243.761 23.3257 237.977 15.3863 229.261C11.3119 224.785 7.604 220.641 5.54499 216.375C2.54374 210.172 1.36592 205.068 1.06928 203.323C0.353869 199.091 0.449839 195.741 0.537085 194.371C1.2525 182.916 9.39253 167.892 14.3132 156.978C17.1661 151.193 21.2405 143.289 26.5712 134.076C26.8155 133.648 28.8047 130.211 30.8637 126.826C41.3158 109.638 52.6577 95.3212 53.1376 94.7105C60.536 85.4101 70.77 73.7802 84.2756 61.4262C90.7667 55.7029 98.3135 49.7527 107.003 43.977C111.016 41.2986 114.969 38.8732 118.799 36.6833Z" fill="black"/>
<path d="M221.461 462.888C219.053 458.351 214.463 450.254 207.353 441.207C171.887 396.049 117.891 383.145 96.7426 378.093C88.5502 376.139 76.0915 373.6 60.4658 372.222C53.2855 371.437 47.3702 371.027 43.4703 370.791C47.0474 374.892 52.4218 380.842 59.2793 387.682C87.6254 415.923 113.215 431.191 118.528 434.315C126.371 438.921 138.35 445.883 155.433 452.165C163.224 455.027 174.714 459.188 190.523 461.492C202.964 463.298 213.617 463.315 221.461 462.888Z" fill="black"/>
</svg>
