<svg width="150" height="53" viewBox="0 0 150 53" fill="none" xmlns="http://www.w3.org/2000/svg">
<path d="M52.9727 32.6609C52.9727 33.2627 52.6887 33.7939 52.1185 34.2546C51.5483 34.7153 50.8006 34.9467 49.871 34.9467H47.0001L47.4615 38.0548H50.5765C52.0941 38.0548 53.3831 37.453 54.4503 36.2517C55.5153 35.0503 56.0477 33.6859 56.0477 32.1627L56.0744 25.8254H52.9727V32.6609ZM42.2765 29.0811C42.2765 29.414 42.2277 29.6653 42.1279 29.835C41.9393 29.9871 41.6753 30.0643 41.3425 30.0643H38.8354H38.1587H33.149H32.4723H27.4626H26.7859H21.7739H21.0972H16.0853H15.4086H10.3989H9.72216H4.27757C3.96474 30.0268 3.70072 29.9496 3.49217 29.8284C3.19487 29.6543 3.04622 29.2707 3.04622 28.6778V19.4352H0V29.5661C0 30.4456 0.288426 31.2524 0.867495 31.9886C1.37557 32.6367 2.43387 32.9982 4.03574 33.0753V33.0907H9.72216H10.3989H15.4086H16.0853H21.095H21.7717H26.7814H27.4581H32.4678H33.1445H38.1543H38.831H41.9859C42.9599 33.0907 43.7786 32.705 44.4375 31.9335C45.0432 31.2171 45.3449 30.3596 45.3449 29.3633L45.3716 25.8254H42.2699V29.0811H42.2765ZM134.251 8.90091C138.955 11.945 144.213 12.3153 146.529 12.3528C145.644 10.7834 144.16 8.56365 141.799 6.39684C139.01 3.83766 136.368 2.61208 135.793 2.35197C132.33 0.78693 129.135 0.458491 127.032 0.434244C127.602 1.76122 128.598 3.66352 130.32 5.57905C130.55 5.83695 132.037 7.47032 134.251 8.90091ZM41.2604 24.979C41.449 24.979 41.7019 24.9305 42.0192 24.8313C42.2898 24.7145 42.5117 24.58 42.6825 24.4279C43.0619 24.0245 43.2505 23.5616 43.2505 23.0414C43.2505 22.4595 43.0664 22.0407 42.6959 21.7894C42.4962 21.6108 42.281 21.494 42.0458 21.4389C41.7574 21.3573 41.4956 21.3176 41.2604 21.3176C40.6547 21.3176 40.1732 21.4742 39.8116 21.7894C39.4677 22.0936 39.2969 22.4881 39.2969 22.9731V23.0392C39.3324 24.3331 39.9869 24.979 41.2604 24.979ZM81.8441 29.6344C81.782 29.9033 81.691 30.0775 81.5734 30.159C81.4026 30.2582 81.2495 30.3067 81.1141 30.3067H81.0454C80.7747 30.3067 80.5129 30.2141 80.26 30.0312C80.007 29.8482 79.8806 29.608 79.8806 29.3126V25.8276H76.8344V29.6344C76.8344 30.0819 76.5814 30.3067 76.0756 30.3067H76.0223C75.7871 30.3067 75.5364 30.2141 75.2702 30.0312C75.004 29.8482 74.8708 29.608 74.8708 29.3126V25.8276H71.8113V29.1914C71.8113 29.5242 71.7536 29.738 71.636 29.8372C71.5185 29.9364 71.4186 30.0025 71.3387 30.04H71.1901C71.108 30.0576 71.0414 30.0665 70.986 30.0665H68.7385H68.0618H67.2764C67.2586 28.2898 67.0412 26.9716 66.6263 26.112C66.0029 24.7762 64.8469 24.1083 63.1585 24.1083C61.9671 24.1083 60.9865 24.4125 60.221 25.0231C59.4623 25.616 59.0829 26.8394 59.0829 28.6954V28.8299C59.1006 30.4081 59.571 31.5301 60.4917 32.1936C61.2949 32.7777 62.5129 33.0687 64.1481 33.0687C64.0948 33.3023 63.9684 33.558 63.7687 33.8358C63.569 34.1135 63.3848 34.3251 63.214 34.4684C62.7259 34.8365 62.1136 35.0195 61.3725 35.0195H58.2442L58.6769 38.0592H61.6964C63.2318 38.0592 64.5452 37.5081 65.6368 36.4038C66.3401 35.6852 66.8193 34.583 67.0723 33.0951H68.0618H68.7385H71.108L72.2994 32.8924C72.7875 32.7138 73.2468 32.4206 73.6816 32.0172C74.3051 32.6367 74.9685 33.0621 75.6718 33.2957C75.9425 33.3398 76.1776 33.3619 76.3751 33.3619C77.287 33.353 78.1034 32.9893 78.8267 32.2729C79.6121 33.0356 80.5107 33.417 81.5224 33.417C82.6339 33.417 83.4903 33.0092 84.096 32.1936C84.6551 31.4772 84.9347 30.5382 84.9347 29.3809V25.8298H81.8463V29.6344H81.8441ZM64.2679 30.0643C63.762 30.0466 63.3959 30.029 63.1719 30.0113C62.8923 29.9761 62.6571 29.8989 62.4685 29.7821C62.1446 29.5308 61.9804 29.1715 61.9804 28.7064C61.9804 28.0958 62.0825 27.6704 62.2844 27.4279C62.4885 27.1855 62.7658 27.0598 63.1164 27.051H63.1297C63.4625 27.051 63.7354 27.1634 63.9417 27.3882C64.1592 27.6131 64.2657 27.9944 64.2657 28.5323V30.0643H64.2679ZM133.705 39.4964C133.341 38.7822 132.969 38.2201 132.682 37.83C132.356 37.3693 131.873 36.7476 131.209 36.082C129.645 34.5125 128.083 33.7035 127.256 33.2847C126.137 32.7182 125.228 32.4096 124.509 32.1715C124.349 32.1186 122.774 31.5984 121.156 31.3163C120.815 31.2568 120.12 31.1488 119.388 31.0474C118.394 30.9085 118.066 30.8887 117.425 30.8049C117.096 30.763 115.594 30.5646 113.737 30.1105C113.185 29.9761 112.366 29.7733 111.308 29.4184C110.407 29.1164 109.242 28.7218 107.862 27.9746C107.379 27.7123 106.742 27.3684 106.012 26.824C105.249 26.2552 103.791 25.1421 102.739 23.1472C101.781 21.3265 101.639 19.6799 101.581 18.8951C101.564 18.6328 101.519 17.804 101.643 16.563C101.739 15.5843 102.001 13.8539 103.148 11.1316C103.884 9.38364 105.138 6.86855 107.254 4.0647C106.82 4.31158 106.369 4.58491 105.914 4.88911C104.927 5.54157 104.071 6.21168 103.332 6.85974C101.796 8.25505 100.634 9.5666 99.793 10.6158C99.7376 10.6842 98.4507 12.2999 97.2615 14.2419C97.0286 14.6232 96.8023 15.0112 96.7734 15.0597C96.1677 16.1001 95.704 16.9928 95.3801 17.6453C94.821 18.8775 93.8958 20.5726 93.816 21.8665C93.8071 22.0208 93.796 22.4 93.8759 22.8761C93.9091 23.0723 94.0445 23.6498 94.3839 24.3485C94.6169 24.8291 95.0384 25.2986 95.5021 25.8034C96.4051 26.7865 97.3459 27.4412 98.0847 27.8644C98.8168 28.2986 99.6289 28.7373 100.525 29.1583C101.903 29.8041 103.203 30.2781 104.368 30.633C106.724 31.4045 108.768 31.9291 110.369 32.2884C110.877 32.403 112.133 32.6763 113.779 32.9563C115.608 33.2671 117.205 33.4633 118.492 33.5933C119.433 33.7123 120.234 33.8644 120.855 34.0011C121.591 34.1642 122.741 34.4221 124.163 34.971C125.024 35.3038 125.729 35.6433 126.251 35.9144C126.572 36.0886 126.994 36.3354 127.46 36.6727C127.872 36.9703 128.68 37.561 129.472 38.5508C130.215 39.4788 130.663 40.4046 130.936 41.1364C131.021 41.3678 131.098 41.6103 131.169 41.8638C131.677 43.6647 131.626 45.3422 131.413 46.6802C131.318 47.2775 131.185 47.9234 130.996 48.6089C130.699 49.6934 130.335 50.6391 129.969 51.437L134.772 49.376C134.952 48.5626 135.119 47.5002 135.141 46.2547C135.17 44.6544 134.948 43.4178 134.832 42.8623C134.681 42.1173 134.424 40.9137 133.705 39.4964ZM149.351 28.6733C148.976 28.2788 147.854 27.1744 144.266 25.7637C143.762 25.5653 143.046 25.2964 142.165 25.012C139.349 24.084 137.16 23.5308 135.66 23.1935C134.739 22.9885 132.98 22.6182 132.234 22.4617C130.843 22.1685 129.694 21.9326 128.913 21.7739C128.052 21.5491 127.189 21.3221 126.328 21.095C125.612 20.8878 124.671 20.5814 123.604 20.1317C122.962 19.8628 122.157 19.5234 121.205 18.9657C120.267 18.4168 118.554 17.3918 117.119 15.4807C116.819 15.0817 116.402 14.5174 116.036 13.6776C115.552 12.5622 115.441 11.61 115.381 11.0567C115.344 10.6996 115.266 9.81568 115.412 8.58349C115.734 5.87001 116.859 3.83987 117.644 2.45117C118.239 1.39972 118.818 0.577523 119.235 0.0264514C119.244 0.01543 119.235 0 119.222 0C118.991 0.0110214 118.68 0.0286557 118.31 0.0595157C117.511 0.12344 116.482 0.207203 115.213 0.482739C113.875 0.773704 112.976 1.12639 112.688 1.24101C112.109 1.47467 111.692 1.69289 111.306 1.93757C110.957 2.1602 110.691 2.35638 110.491 2.52391L110.476 2.53934C110.143 3.42105 109.746 4.79653 109.719 6.50705C109.693 8.13602 110.019 9.35058 110.243 10.1662C110.48 11.0258 111.053 12.8113 112.384 14.7489C113.265 16.0318 114.241 17.0347 115.151 17.8084C115.608 18.2537 116.291 18.8643 117.198 19.4947C117.542 19.7328 117.86 19.9356 118.299 20.1935C119.047 20.6365 120.271 21.3617 121.995 22.1332C121.995 22.1332 123.644 22.8695 126.639 23.8217C126.985 23.9319 127.311 24.0289 127.668 24.1259C128.376 24.3155 128.9 24.4103 129.232 24.4852C130.854 24.8489 131.311 24.9239 132.454 25.2016C133.412 25.4353 133.892 25.5521 134.486 25.7483C134.959 25.9048 135.811 26.2068 136.834 26.7071C137.717 27.1414 138.546 27.547 139.476 28.292C140.011 28.7218 140.745 29.3941 141.464 30.3839C141.808 30.8865 142.172 31.5213 142.456 32.2928C143.323 34.647 142.937 36.8072 142.7 38.0482C142.522 38.9652 142.289 39.6948 142.078 40.2701C141.517 41.8175 140.292 44.6214 137.539 48.1857C137.528 48.2011 137.544 48.221 137.559 48.2121C138.495 47.639 139.662 46.8609 140.929 45.8447C141.746 45.1901 143.174 44.0328 144.71 42.2694C145.719 41.1099 147.503 39.0313 148.777 35.8968C149.742 33.5184 149.915 31.7638 149.959 31.1796C149.981 30.8887 149.995 30.6153 149.999 30.3662C150.017 29.7402 149.784 29.1318 149.351 28.6733ZM104.745 42.6044C103.813 42.384 102.398 42.0974 100.623 41.9409C99.8063 41.8528 99.1341 41.8065 98.6926 41.78C99.0986 42.2429 99.7087 42.9152 100.49 43.6867C103.711 46.8741 106.618 48.5979 107.221 48.9506C108.113 49.4708 109.473 50.2555 111.414 50.9653C112.3 51.2893 113.604 51.7588 115.401 52.0189C116.815 52.2217 118.026 52.2239 118.916 52.1754C118.643 51.664 118.121 50.7493 117.314 49.7287C113.282 44.6324 107.148 43.1753 104.745 42.6044Z" fill="#0A1128"/>
</svg>
