<svg width="101" height="41" viewBox="0 0 101 41" fill="none" xmlns="http://www.w3.org/2000/svg">
<g opacity="0.7">
<path d="M61.32 38.4103C62.7004 37.7433 65.7174 35.6031 69.4126 28.8335C69.4413 28.7827 69.4943 28.7496 69.5517 28.7496H87.8352C87.8352 28.7496 89.3658 28.0428 87.8352 27.0997H70.3446C70.232 27.0997 70.1547 26.9848 70.1966 26.881C70.6295 25.8385 72.5246 21.229 74.0751 16.5466C74.0972 16.4826 74.1568 16.4384 74.2253 16.4384H90.3663C90.3663 16.4384 98.6113 15.9083 99.4948 22.7994C99.4948 22.7994 101.827 32.628 91.5921 37.7013C89.9423 38.5186 88.1201 38.9338 86.2803 38.9183L61.3884 38.7085C61.2228 38.7085 61.1698 38.4832 61.32 38.4103Z" fill="#EC1A23"/>
<path d="M64.9438 6.01343H75.5742C75.7222 6.01343 75.8216 6.16141 75.7708 6.29835C72.8973 13.7924 70.0238 21.2842 67.1481 28.7783C66.7594 29.7921 66.2558 30.7595 65.6352 31.6496C64.1465 33.7876 61.3967 36.851 57.0301 38.2911C55.0092 38.9581 50.2981 40.5108 46.8128 37.7986C44.4473 35.9565 43.8774 33.1073 43.7184 31.9897C43.7184 31.9897 39.5948 38.7041 34.1173 38.9404H1.66292C1.50831 38.9404 1.41113 38.7726 1.48843 38.6379L6.91074 29.2046C6.94608 29.1427 7.01234 29.103 7.08523 29.103H20.0679C20.5847 29.103 21.0816 28.8357 21.318 28.3741C21.4726 28.0715 21.5212 27.6916 21.2605 27.2698C21.0065 26.8612 20.5449 26.6293 20.0656 26.6293H8.84555C8.69094 26.6293 8.59376 26.4614 8.67106 26.3267L14.2723 16.5312C14.3076 16.4693 14.3739 16.4296 14.4468 16.4296H26.6078C27.595 16.4296 28.5713 16.635 29.4658 17.0546C32.0102 18.2429 36.2354 21.2887 32.569 27.5216C32.4961 27.6475 32.4387 27.7822 32.4055 27.9235C32.3039 28.3631 32.2046 29.2576 33.0748 29.2465C33.5033 29.2421 33.9008 29.0146 34.1637 28.6745L41.6202 18.9453C42.2695 18.0993 43.1022 17.4102 44.063 16.9486C45.8719 16.0806 48.9132 15.228 52.1445 16.9729C52.4648 17.1452 56.7982 18.7995 54.8546 25.2334C54.7464 25.589 53.4786 28.1157 53.4631 28.1621C52.9662 29.7744 54.4592 29.9069 55.1307 27.875C56.7298 23.0401 64.7539 6.14153 64.7539 6.14153C64.7848 6.06423 64.8599 6.01343 64.9438 6.01343Z" fill="#EC1A23"/>
<path d="M50.7109 2.47059C52.2592 2.02885 53.9555 2.46396 55.0002 3.68757C55.051 3.74721 55.1018 3.81126 55.1503 3.87531C56.8554 6.13479 55.9874 9.852 53.9091 11.9017C52.9505 12.847 51.8373 13.3329 50.8942 13.5825C49.5072 13.9491 48.0119 13.6266 46.965 12.646C46.5873 12.2926 46.2295 11.8464 45.9578 11.2832C45.3063 9.93593 45.5183 8.67698 45.6331 7.99892C46.0241 5.68201 47.5702 4.27508 48.098 3.83555C48.9859 3.10448 49.9158 2.69808 50.7109 2.47059Z" fill="#EC1A23"/>
</g>
</svg>
