<svg width="101" height="25" viewBox="0 0 101 25" fill="none" xmlns="http://www.w3.org/2000/svg">
<g opacity="0.7">
<path d="M96.1383 6.93041V18.9006C96.1383 19.1199 96.0683 19.3337 95.9356 19.5106C95.3846 20.2384 94.2145 21.5523 92.9265 21.3883L92.7809 21.3698C92.7274 21.3625 92.6869 21.3182 92.6869 21.263V9.14534C92.6869 9.03109 92.7053 8.91684 92.744 8.80996C93.225 7.51454 94.1647 6.63005 95.1801 6.57661C95.3772 6.56555 95.65 6.58213 95.9761 6.70191C96.0719 6.73692 96.1383 6.82721 96.1383 6.93041Z" fill="#283897"/>
<path d="M91.7931 6.44425H88.2699C88.2238 6.14205 87.9676 4.23116 89.3128 2.63353C90.3079 1.45051 91.5941 1.13541 92.0087 1.05249C94.9441 1.05249 97.8814 1.05249 100.817 1.05249C100.844 1.32705 100.9 2.22629 100.329 3.13659C99.7683 4.02662 98.9575 4.36936 98.6959 4.46887C96.6044 4.47255 94.5129 4.47439 92.4215 4.47808C92.3846 4.47439 92.1561 4.45781 91.9718 4.63102C91.8152 4.77844 91.7949 4.96455 91.7913 5.00878C91.7931 5.48604 91.7931 5.96515 91.7931 6.44425Z" fill="#283897"/>
<path d="M78.0896 17.8651H87.1501L87.198 11.3567L82.6558 11.3935C82.0532 11.3935 81.5649 11.8818 81.5649 12.4844C81.5649 13.087 81.9924 13.4094 82.595 13.4094L83.2657 13.3726C84.9536 13.3726 86.3338 14.8007 86.3338 16.4886C86.3338 16.7337 86.1348 16.9327 85.8897 16.9327H82.3241C82.1067 16.9327 81.8892 16.9032 81.6773 16.8479C79.3021 16.2269 77.955 14.3897 78.0214 12.4015C78.1596 10.0502 79.7517 8.08954 82.0422 7.82419H88.5653C89.7852 7.82419 90.7747 8.81372 90.7747 10.0336V19.741C90.7747 20.7287 89.975 21.5284 88.9873 21.5284H78.4194C75.1375 21.5284 72.4785 18.8675 72.4785 15.5875V4.24197C72.4785 2.39558 73.9748 0.897461 75.823 0.897461H76.2432V16.0224C76.245 17.0396 77.0705 17.8651 78.0896 17.8651Z" fill="#283897"/>
<path d="M71.1035 7.84619H64.8659C62.2143 7.84619 60.0657 9.99479 60.0657 12.6464C60.0657 15.0198 61.9895 16.9436 64.3629 16.9436H65.837C66.7602 16.9436 67.5084 17.6918 67.5084 18.615C67.5084 19.5382 66.7602 20.2863 65.837 20.2863H56.7046C55.7611 20.2863 54.9964 19.5216 54.9964 18.5781V7.96228C54.9964 7.89779 54.9448 7.84619 54.8803 7.84619C52.9197 7.84619 51.3294 9.43645 51.3294 11.3971V17.9921C51.3294 21.3256 54.0308 24.027 57.3643 24.027H65.8555C68.754 24.027 71.1053 21.6775 71.1053 18.7771C71.1053 15.6998 68.6103 13.2048 65.533 13.2048H64.3997C63.893 13.2048 63.482 12.7939 63.482 12.2871C63.482 11.7804 63.893 11.3694 64.3997 11.3694H68.0667C69.7454 11.3694 71.1053 10.0095 71.1053 8.33082V7.84619H71.1035Z" fill="#283897"/>
<path d="M34.7653 20.9056C35.0325 21.0733 35.4158 21.2723 35.9041 21.4123C36.4754 21.5763 36.9747 21.5947 37.3175 21.58H47.2902C48.3756 21.58 49.2564 20.6992 49.2564 19.6138V10.0262C49.2564 8.82112 48.2797 7.84448 47.0746 7.84448H41.4304C38.7364 7.84448 36.5528 10.0281 36.5528 12.7221C36.5528 15.0974 38.4784 17.0248 40.8555 17.0248H44.7031V16.8627C44.7031 14.9407 43.1441 13.3818 41.2222 13.3818H40.8352C40.3598 13.3818 39.9341 13.0335 39.8899 12.56C39.8383 12.0164 40.264 11.5594 40.7965 11.5594H45.6631V18.031H37.4115C36.2506 18.031 35.3089 17.0893 35.3089 15.9284V7.90529C35.3089 7.87212 35.2813 7.84448 35.2481 7.84448C33.2691 7.84448 31.6641 9.44948 31.6641 11.4285V19.0057C31.6641 19.7539 31.0597 20.3601 30.3115 20.362L26.6501 20.373C24.7447 20.5241 23.2742 22.107 23.2742 24.0179V24.3109H29.5063C30.0941 24.2851 31.6217 24.1358 33.0535 23.0173C33.9988 22.2784 34.511 21.4215 34.7653 20.9056Z" fill="#283897"/>
<path d="M30.1272 7.84619C28.1149 7.84619 26.4842 9.47699 26.4842 11.4892V13.9584C26.4842 14.4873 26.0548 14.9167 25.526 14.9167C24.9971 14.9167 24.5677 14.4873 24.5677 13.9584V8.24237C24.5677 8.02309 24.3908 7.84619 24.1716 7.84619H21.4628C21.2435 7.84619 21.0666 8.02309 21.0666 8.24237V14.0303C21.0666 14.5205 20.6704 14.9167 20.1803 14.9167C19.6901 14.9167 19.2939 14.5205 19.2939 14.0303V11.1907C19.2939 9.34431 17.7976 7.84619 15.9494 7.84619H15.5053V18.8711C15.5053 19.8643 14.7001 20.6696 13.7068 20.6696H5.46441C4.49884 20.6696 3.71384 19.8864 3.71384 18.919V7.84619H3.60512C1.6795 7.84619 0.116882 9.40697 0.116882 11.3344V18.3459C0.116882 21.6425 2.78881 24.3144 6.08541 24.3144H13.2996C16.7141 24.3144 19.4837 21.5467 19.4837 18.1303C19.8191 18.2188 20.3424 18.3109 20.9689 18.2262C22.069 18.0769 22.7951 17.4799 23.0788 17.22C23.182 17.314 24.9197 18.8177 27.1051 18.1782C28.7452 17.6991 29.9503 16.2139 30.1253 14.4394C30.1272 12.241 30.1272 10.0427 30.1272 7.84619Z" fill="#283897"/>
<path d="M43.8187 5.34409L45.6208 3.73541C45.877 3.50691 45.8917 3.10889 45.654 2.86197L43.8205 0.963978C43.5902 0.726269 43.2124 0.715214 42.971 0.941866L41.1025 2.68138C40.8445 2.92093 40.8445 3.33001 41.1025 3.56956L43.0023 5.33856C43.2308 5.55047 43.5846 5.55416 43.8187 5.34409Z" fill="#283897"/>
<path d="M82.3145 5.34409L84.1167 3.73541C84.3728 3.50691 84.3876 3.10889 84.1499 2.86197L82.3164 0.963978C82.086 0.726269 81.7083 0.715214 81.4669 0.941866L79.5984 2.68138C79.3404 2.92093 79.3404 3.33001 79.5984 3.56956L81.4982 5.33856C81.7267 5.55047 82.0805 5.55416 82.3145 5.34409Z" fill="#283897"/>
<path d="M85.8895 5.34409L87.6917 3.73541C87.9478 3.50691 87.9626 3.10889 87.7249 2.86197L85.8914 0.963978C85.661 0.726269 85.2833 0.715214 85.0419 0.941866L83.1734 2.68138C82.9154 2.92093 82.9154 3.33001 83.1734 3.56956L85.0732 5.33856C85.3017 5.55047 85.6555 5.55416 85.8895 5.34409Z" fill="#283897"/>
<path d="M19.6735 5.34409L21.4757 3.73541C21.7318 3.50691 21.7466 3.10889 21.5089 2.86197L19.6754 0.963978C19.445 0.726269 19.0673 0.715214 18.8259 0.941866L16.9574 2.68138C16.6994 2.92093 16.6994 3.33001 16.9574 3.56956L18.8572 5.33856C19.0857 5.55047 19.4395 5.55416 19.6735 5.34409Z" fill="#283897"/>
<path d="M23.2485 5.34409L25.0506 3.73541C25.3068 3.50691 25.3215 3.10889 25.0838 2.86197L23.2503 0.963978C23.02 0.726269 22.6422 0.715214 22.4008 0.941866L20.5323 2.68138C20.2743 2.92093 20.2743 3.33001 20.5323 3.56956L22.4321 5.33856C22.6606 5.55047 23.0144 5.55416 23.2485 5.34409Z" fill="#283897"/>
<path d="M26.7128 5.34409L28.5149 3.73541C28.7711 3.50691 28.7858 3.10889 28.5481 2.86197L26.7146 0.963978C26.4843 0.726269 26.1065 0.715214 25.8651 0.941866L23.9966 2.68138C23.7386 2.92093 23.7386 3.33001 23.9966 3.56956L25.8964 5.33856C26.1249 5.55047 26.4787 5.55416 26.7128 5.34409Z" fill="#283897"/>
</g>
</svg>
