<svg width="96" height="31" viewBox="0 0 96 31" fill="none" xmlns="http://www.w3.org/2000/svg">
<g opacity="0.7">
<path d="M92.9061 15.0535L92.9973 15.1446C93.8871 16.238 94.5409 17.5035 94.9177 18.8614C95.2739 20.138 95.3052 21.4832 95.0089 22.7749C94.9708 22.9653 94.883 23.1424 94.7544 23.288C94.6147 23.4561 94.4656 23.6162 94.3079 23.7676C93.9238 24.1018 93.5197 24.4125 93.0981 24.698C91.917 25.5277 90.6976 26.2903 89.4493 27.0241C87.8506 27.9832 86.2327 28.8705 84.5667 29.6906C83.9666 29.9831 83.3665 30.2661 82.7423 30.5059C82.4855 30.6043 82.2225 30.686 81.955 30.7505C81.753 30.7991 81.5424 30.7991 81.3405 30.7505C80.9005 30.641 80.4714 30.4917 80.0586 30.3045C79.1512 29.9112 78.263 29.47 77.3892 29.0048C75.2624 27.8825 73.1836 26.674 71.1479 25.3551L70.5142 24.9282L70.351 24.8084C70.3924 24.8029 70.4344 24.8029 70.4758 24.8084C70.615 24.8707 70.7495 24.9426 70.8887 25.0002C71.6368 25.3122 72.4204 25.5313 73.222 25.6524C73.8121 25.7497 74.41 25.7915 75.0079 25.7771C76.0834 25.7573 77.1429 25.514 78.119 25.0625C79.036 24.6357 79.9482 24.1993 80.8412 23.7341C82.6527 22.7749 84.4355 21.7821 86.1895 20.7558C87.721 19.8494 89.2381 18.919 90.7072 17.9118C91.0961 17.6433 91.4802 17.3651 91.8594 17.0773C92.0777 16.9106 92.2846 16.7296 92.4788 16.5354C92.7473 16.2825 92.9174 15.9426 92.9589 15.5762C92.9688 15.4806 92.9688 15.3841 92.9589 15.2885C92.9493 15.2309 92.9301 15.1686 92.9061 15.0535Z" fill="#F5853F"/>
<path d="M93.0026 15.1446L92.9113 15.0535C92.9113 15.1686 92.9545 15.2309 92.9593 15.2981C92.9692 15.3937 92.9692 15.4901 92.9593 15.5858C92.9179 15.9522 92.7478 16.2921 92.4792 16.545C92.2943 16.7382 92.0971 16.9192 91.8887 17.0869C91.5142 17.3747 91.1302 17.6529 90.7365 17.9214C89.6611 18.66 88.5568 19.3602 87.4382 20.0364C92.8921 19.0772 94.5341 21.3601 95.0286 22.8276V22.7845C95.3249 21.4928 95.2935 20.1476 94.9374 18.871C94.5575 17.5085 93.8987 16.2396 93.0026 15.1446Z" fill="#F47633"/>
<path d="M95.4458 20.6264C95.3786 20.5833 95.3834 20.5257 95.3834 20.4682C95.367 20.1182 95.322 19.7701 95.249 19.4275C94.9586 17.8997 94.2994 16.4659 93.3286 15.2502C92.895 14.7001 92.384 14.2155 91.8115 13.8115C91.101 13.3319 90.3712 12.8283 89.6607 12.3727C87.8939 11.2217 86.0743 10.1474 84.2403 9.10666C82.752 8.26258 81.2493 7.44728 79.7082 6.7087C79.1177 6.41615 78.5223 6.1332 77.903 5.8982C77.6798 5.81016 77.4522 5.73333 77.2213 5.66799C76.9281 5.5826 76.6167 5.5826 76.3235 5.66799C76.1584 5.71797 76.0061 5.80304 75.877 5.91738L75.7522 6.01809C75.7494 5.98458 75.7494 5.9509 75.7522 5.91738C76.3716 4.21738 77.4521 2.72293 78.8728 1.60106C79.6296 1.04179 80.4798 0.621208 81.3837 0.358918C81.6366 0.288564 81.9039 0.288564 82.1567 0.358918C82.4972 0.441581 82.8297 0.553916 83.1505 0.694632C83.9667 1.03035 84.754 1.41881 85.551 1.82167C87.9646 3.0644 90.3093 4.43643 92.5749 5.93177C93.1174 6.29146 93.6551 6.66554 94.1688 7.07319C94.4009 7.25674 94.6206 7.4554 94.8265 7.66789C94.9803 7.82681 95.0924 8.0212 95.153 8.23381C95.2795 8.69046 95.3647 9.15754 95.4074 9.62942C95.5814 11.3937 95.6663 13.1657 95.6619 14.9385C95.6619 16.195 95.6619 17.4515 95.6043 18.7081C95.5755 19.3267 95.5323 19.9406 95.4939 20.5593C95.4555 20.5689 95.4506 20.5881 95.4458 20.6264Z" fill="#F99F3F"/>
<path d="M76.3382 5.67745C76.6314 5.59206 76.9429 5.59206 77.236 5.67745C77.467 5.74279 77.6945 5.81962 77.9178 5.90765C78.5323 6.14265 79.1276 6.43041 79.7229 6.71816C80.8272 7.2601 81.9122 7.83081 82.9876 8.42551C78.6667 3.71113 80.976 0.895925 81.5473 0.3396L81.3841 0.358783C80.4953 0.633612 79.6616 1.06215 78.9212 1.6249C77.5004 2.74678 76.4199 4.24122 75.8005 5.94123C75.7978 5.97474 75.7978 6.00842 75.8005 6.04194L75.9253 5.94123C76.0433 5.82576 76.1838 5.73595 76.3382 5.67745Z" fill="#F78E34"/>
<path d="M79.3192 1.0926C79.2952 1.17893 79.228 1.19811 79.18 1.23168C77.8934 2.11127 76.8378 3.28746 76.1026 4.66076C75.6877 5.42302 75.4052 6.25005 75.2672 7.10667C75.2288 7.33688 75.2048 7.58627 75.1856 7.80208C75.0751 9.0682 74.9935 10.3343 74.9551 11.6052C74.8879 13.6675 74.8639 15.7249 74.9167 17.7872C74.9167 18.4826 74.9455 19.1732 74.9743 19.8686C75.0079 20.7654 75.0559 21.6671 75.1424 22.5639C75.179 23.047 75.2448 23.5275 75.3392 24.0027C75.3756 24.226 75.4452 24.4426 75.5456 24.6453C75.6233 24.7904 75.7202 24.9243 75.8337 25.0434C75.9676 25.1806 76.1321 25.2841 76.3138 25.3455L76.5058 25.4175C76.2754 25.451 76.093 25.4894 75.9105 25.5038C75.5408 25.5326 75.1712 25.5661 74.8015 25.5709C73.8171 25.5918 72.8355 25.4591 71.8921 25.1777C70.7998 24.8543 69.7908 24.2979 68.9347 23.5471L68.8867 23.5087C68.6052 23.2933 68.4081 22.9861 68.3297 22.6406C68.2544 22.3618 68.1982 22.0782 68.1617 21.7918C68.0465 20.9525 67.9889 20.1132 67.9457 19.2691C67.84 17.2692 67.8352 15.2741 67.8784 13.2742C67.8977 12.395 67.9393 11.5173 68.0033 10.6413C68.0387 10.0452 68.1044 9.45136 68.2001 8.86198C68.2481 8.5982 68.3105 8.33922 68.3826 8.08024C68.4424 7.8821 68.5514 7.70228 68.6994 7.55749C68.9482 7.30087 69.2163 7.06359 69.5012 6.84769C70.2165 6.30096 70.9415 5.79739 71.724 5.313C73.9642 3.87845 76.2782 2.56255 78.6567 1.37076L79.252 1.08301L79.3192 1.0926Z" fill="#FEC23B"/>
<path d="M75.848 25.0531C75.7345 24.934 75.6376 24.8001 75.56 24.6551C75.4595 24.4523 75.39 24.2357 75.3535 24.0124C75.2591 23.5372 75.1934 23.0568 75.1567 22.5737C75.0751 21.6768 75.0223 20.78 74.9887 19.8784C74.9647 19.2501 74.9503 18.617 74.9359 17.9888C74.3933 19.6577 72.5354 24.1803 68.7618 23.4177C68.8053 23.4609 68.8519 23.501 68.901 23.5376L68.949 23.576C69.8051 24.3269 70.8141 24.8832 71.9064 25.2066C72.8499 25.488 73.8315 25.6207 74.8158 25.5999C75.1855 25.5999 75.5552 25.5615 75.9249 25.5327C76.1073 25.5327 76.2897 25.48 76.5202 25.4464L76.3281 25.3745C76.1446 25.3075 75.9799 25.1973 75.848 25.0531Z" fill="#FBAD30"/>
<path d="M46.0042 19.6001C45.5366 20.1164 44.9658 20.5292 44.3286 20.8117C43.6915 21.0942 43.0022 21.2401 42.3051 21.2401C41.608 21.2401 40.9186 21.0942 40.2815 20.8117C39.6444 20.5292 39.0736 20.1164 38.6059 19.6001C38.1387 20.1171 37.568 20.5305 36.9308 20.8134C36.2936 21.0963 35.604 21.2425 34.9067 21.2425C34.2094 21.2425 33.5199 21.0963 32.8827 20.8134C32.2455 20.5305 31.6748 20.1171 31.2076 19.6001C30.7404 20.1163 30.17 20.529 29.5332 20.8114C28.8965 21.0939 28.2075 21.2398 27.5108 21.2398C26.8141 21.2398 26.1252 21.0939 25.4884 20.8114C24.8517 20.529 24.2813 20.1163 23.814 19.6001C23.3468 20.1163 22.7764 20.529 22.1397 20.8114C21.5029 21.0939 20.814 21.2398 20.1173 21.2398C19.4206 21.2398 18.7316 21.0939 18.0949 20.8114C17.4581 20.529 16.8877 20.1163 16.4205 19.6001C15.9534 20.1148 15.3835 20.5261 14.7477 20.8076C14.1118 21.0891 13.424 21.2345 12.7286 21.2345C12.0331 21.2345 11.3453 21.0891 10.7094 20.8076C10.0736 20.5261 9.50373 20.1148 9.03659 19.6001L8.83975 19.7919L4.42763 24.2041C4.3645 24.274 4.28481 24.3268 4.19588 24.3578C4.10695 24.3888 4.01164 24.397 3.91873 24.3816C3.63439 24.3414 3.35768 24.2589 3.09776 24.137C2.72395 23.9604 2.37259 23.7398 2.05114 23.4799C1.8591 23.3265 1.8543 23.2162 2.05114 23.0435C3.66747 21.4289 5.28541 19.8143 6.90494 18.1996C7.16439 17.9659 7.38055 17.6883 7.54348 17.3795C7.69621 17.0602 7.77775 16.7116 7.78246 16.3577C7.78717 16.0038 7.71494 15.6531 7.57077 15.3298C7.42659 15.0065 7.2139 14.7183 6.94737 14.4851C6.68085 14.252 6.36684 14.0793 6.02703 13.9792C5.68721 13.879 5.32969 13.8538 4.97914 13.9051C4.62859 13.9564 4.29337 14.0831 3.99661 14.2764C3.69985 14.4698 3.44863 14.7251 3.26029 15.0249C3.07195 15.3247 2.95097 15.6617 2.90572 16.0127C2.85546 16.3655 2.88455 16.725 2.99085 17.0651C3.09715 17.4053 3.278 17.7175 3.52024 17.979C3.69788 18.1805 3.90912 18.3531 4.09636 18.5402L5.05656 19.4993C5.20539 19.6528 5.20539 19.7727 5.05656 19.9022C4.63058 20.2587 4.14227 20.5335 3.61626 20.7127C3.44008 20.7641 3.26036 20.8026 3.07855 20.8278C3.01255 20.8397 2.94462 20.835 2.88091 20.814C2.8172 20.7931 2.75972 20.7566 2.71368 20.7079C2.28159 20.2763 1.80149 19.859 1.43661 19.389C0.633746 18.4224 0.247047 17.1773 0.36119 15.9264C0.454903 14.7269 0.983172 13.6028 1.84704 12.7645C2.7109 11.9262 3.85109 11.4313 5.05401 11.3725C6.25694 11.3136 7.44006 11.695 8.38175 12.445C9.32345 13.195 9.95909 14.2622 10.1696 15.4468C10.2128 15.701 10.2272 15.96 10.2464 16.2141C10.2625 16.6727 10.3859 17.121 10.6065 17.5234C10.8572 17.9493 11.2311 18.2893 11.6791 18.4988C12.127 18.7082 12.6279 18.7773 13.1159 18.6968C13.6039 18.6163 14.056 18.3902 14.4128 18.048C14.7696 17.7059 15.0143 17.2638 15.1146 16.7801C15.1375 16.6567 15.1488 16.5314 15.1483 16.406C15.1483 15.7585 15.1483 15.1111 15.1483 14.4876C15.1483 14.2766 15.2491 14.1807 15.4411 14.2047C15.927 14.25 16.4031 14.3697 16.8526 14.5596C17.0424 14.6529 17.2268 14.7569 17.4047 14.8713C17.4927 14.9208 17.5644 14.9947 17.6113 15.0841C17.6581 15.1734 17.6781 15.2744 17.6688 15.3749C17.6688 15.701 17.6688 16.0271 17.6688 16.334C17.662 16.6385 17.7177 16.941 17.8325 17.2231C17.9473 17.5052 18.1187 17.7608 18.3361 17.9742C18.6366 18.3061 19.0264 18.5445 19.4589 18.661C19.8913 18.7775 20.3482 18.7672 20.775 18.6313C21.2078 18.5232 21.5999 18.2922 21.9041 17.9662C22.2083 17.6403 22.4114 17.2333 22.489 16.7944C22.5641 16.4591 22.5669 16.1117 22.4973 15.7752C22.4276 15.4387 22.2871 15.1209 22.085 14.8428C21.8829 14.5647 21.6239 14.3328 21.3252 14.1624C21.0265 13.992 20.695 13.8871 20.3525 13.8546C20.2325 13.8546 20.1125 13.8546 19.9925 13.8546H15.5131C15.2011 13.8546 15.1435 13.797 15.1771 13.4901C15.221 13.0111 15.3443 12.5427 15.5419 12.104C15.6388 11.9165 15.7478 11.7354 15.8684 11.5621C15.9151 11.4888 15.9809 11.4296 16.0587 11.3907C16.1365 11.3519 16.2234 11.3349 16.3101 11.3415H20.1509C20.8714 11.3404 21.5826 11.5045 22.2297 11.8211C22.977 12.1607 23.6264 12.6835 24.1174 13.3408C24.6084 13.9981 24.9251 14.7687 25.0383 15.5811C25.077 15.835 25.0963 16.0916 25.0959 16.3484C25.1083 16.9605 25.3501 17.5457 25.7734 17.9884C26.1968 18.4311 26.7709 18.6991 27.3825 18.7395C27.994 18.7799 28.5985 18.5897 29.0765 18.2065C29.5545 17.8233 29.8712 17.2749 29.9641 16.6698C29.9694 16.5963 29.9694 16.5226 29.9641 16.4491C29.9641 14.8921 29.9641 13.335 29.9641 11.7779C29.9641 11.447 30.0217 11.3895 30.3482 11.4278C30.8103 11.4738 31.2623 11.5919 31.6877 11.7779C31.8713 11.8696 32.0492 11.9721 32.2206 12.0849C32.3076 12.1363 32.3782 12.2114 32.4241 12.3014C32.4701 12.3914 32.4894 12.4926 32.4798 12.5932C32.4798 12.8714 32.4798 13.1543 32.4798 13.4325C32.4798 14.3917 32.4798 15.3509 32.4798 16.3101C32.4798 16.9581 32.7376 17.5796 33.1963 18.0379C33.655 18.4961 34.2772 18.7536 34.9259 18.7536C35.5747 18.7536 36.1969 18.4961 36.6556 18.0379C37.1143 17.5796 37.3721 16.9581 37.3721 16.3101C37.3721 12.8122 37.3721 9.31442 37.3721 5.8166C37.3721 5.75905 37.3721 5.7015 37.3721 5.64395C37.3721 5.46171 37.4585 5.37058 37.6361 5.38497C38.3449 5.42961 39.0291 5.6613 39.6189 6.0564C39.6987 6.1084 39.7643 6.17952 39.8096 6.26328C39.8548 6.34704 39.8784 6.44079 39.8782 6.53599C39.8782 7.97476 39.8782 9.41354 39.8782 10.8523C39.8782 12.662 39.8782 14.4716 39.8782 16.2813C39.8692 16.9006 40.0959 17.5003 40.5123 17.9592C40.9288 18.4181 41.504 18.7021 42.1219 18.7539C42.7398 18.8056 43.3543 18.6212 43.8414 18.238C44.3286 17.8547 44.652 17.3011 44.7464 16.6889C44.752 16.6155 44.752 16.5418 44.7464 16.4683C44.7464 14.9176 44.7464 13.367 44.7464 11.8163C44.7464 11.7683 44.7464 11.7252 44.7464 11.6772C44.7464 11.4662 44.8328 11.3847 45.0488 11.4038C45.6158 11.4488 46.1686 11.6035 46.6764 11.8595C46.8165 11.9384 46.9512 12.0265 47.0797 12.1232C47.1369 12.1621 47.1839 12.2142 47.2165 12.2752C47.2491 12.3362 47.2664 12.4042 47.2669 12.4733C47.2669 12.5405 47.2669 12.6124 47.2669 12.6796C47.2669 13.8881 47.2669 15.0775 47.2669 16.3053C47.267 16.8274 47.4344 17.3357 47.7445 17.756C48.0546 18.1762 48.4912 18.4863 48.9905 18.6409C49.2204 18.7131 49.46 18.7503 49.701 18.7512H57.0129C57.4092 18.7647 57.8033 18.6876 58.1652 18.5258C58.5961 18.3379 58.9623 18.0278 59.2183 17.6339C59.4744 17.24 59.609 16.7797 59.6055 16.3101C59.6192 15.9898 59.6064 15.669 59.567 15.3509C59.4748 14.7896 59.1892 14.2782 58.7596 13.9049C58.3301 13.5316 57.7835 13.3198 57.2143 13.3062C56.6451 13.2925 56.089 13.4778 55.642 13.8301C55.195 14.1824 54.8852 14.6796 54.7661 15.2358C54.7292 15.4028 54.7099 15.5731 54.7084 15.7441C54.7084 16.2653 54.7084 16.7865 54.7084 17.3076C54.7132 17.407 54.6923 17.506 54.6478 17.595C54.6032 17.6841 54.5365 17.7602 54.454 17.816C54.0692 18.085 53.6327 18.2711 53.1721 18.3627C52.9425 18.4143 52.71 18.4527 52.476 18.4778C52.2791 18.4778 52.1927 18.4203 52.1927 18.2284C52.1927 17.322 52.1927 16.4204 52.1927 15.5139C52.2254 14.3807 52.667 13.2974 53.4362 12.4637C54.2628 11.5136 55.4302 10.9262 56.6865 10.8283C57.9094 10.7138 59.1311 11.0594 60.1123 11.7975C61.0935 12.5355 61.7637 13.6128 61.9916 14.8185C62.0463 15.1356 62.0784 15.4561 62.0876 15.7777C62.1097 16.1893 62.092 16.6021 62.0348 17.0103C61.8689 18.1059 61.3405 19.1145 60.5339 19.8751C59.7272 20.6357 58.6888 21.1045 57.5842 21.2067C57.3346 21.2307 57.1041 21.2067 56.8305 21.2067H49.7778C49.0878 21.2195 48.4027 21.0869 47.7674 20.8175C47.1321 20.5481 46.5608 20.148 46.0907 19.6432L46.0426 19.5953L46.0042 19.6001ZM27.6068 23.5855C27.4053 23.3499 27.1454 23.1712 26.8531 23.0675C26.5552 22.9581 26.2328 22.9332 25.9217 22.9956C25.5114 23.0726 25.1418 23.2928 24.8788 23.6167C24.6158 23.9406 24.4766 24.3473 24.4858 24.7642C24.495 25.1812 24.6521 25.5813 24.9292 25.8933C25.2062 26.2053 25.5852 26.4089 25.9985 26.4678C26.4591 26.5309 26.9264 26.4141 27.3029 26.1416C27.6795 25.8691 27.9362 25.462 28.0197 25.005C28.0815 25.3209 28.2218 25.6161 28.4278 25.8635C28.6252 26.0972 28.8799 26.2757 29.1672 26.3815C29.4655 26.4893 29.7878 26.5125 30.0985 26.4486C30.5089 26.3715 30.8784 26.1514 31.1414 25.8275C31.4044 25.5036 31.5437 25.0969 31.5344 24.6799C31.5252 24.263 31.3681 23.8629 31.091 23.5509C30.814 23.2389 30.435 23.0353 30.0217 22.9764C29.5611 22.9132 29.0938 23.0301 28.7173 23.3026C28.3408 23.5751 28.084 23.9822 28.0005 24.4391C27.9422 24.1264 27.8069 23.833 27.6068 23.5855ZM45.092 26.463C45.5046 26.3944 45.8794 26.1817 46.1498 25.863C46.4202 25.5442 46.5686 25.1399 46.5686 24.7221C46.5686 24.3043 46.4202 23.9 46.1498 23.5812C45.8794 23.2624 45.5046 23.0498 45.092 22.9812C44.633 22.9123 44.1651 23.0236 43.7865 23.2919C43.4078 23.5601 43.1479 23.9644 43.0612 24.4199C42.9746 23.9606 42.7118 23.5531 42.3289 23.2844C41.946 23.0156 41.4732 22.9068 41.0112 22.9812C40.5986 23.0498 40.2238 23.2624 39.9534 23.5812C39.6831 23.9 39.5347 24.3043 39.5347 24.7221C39.5347 25.1399 39.6831 25.5442 39.9534 25.863C40.2238 26.1817 40.5986 26.3944 41.0112 26.463C41.4702 26.5319 41.9382 26.4206 42.3168 26.1523C42.6954 25.8841 42.9553 25.4798 43.042 25.0242C43.1287 25.4836 43.3914 25.8911 43.7743 26.1598C44.1572 26.4285 44.63 26.5373 45.092 26.463ZM56.8881 8.88599C57.2381 8.88693 57.5806 8.78398 57.872 8.59021C58.1633 8.39643 58.3905 8.12055 58.5247 7.79759C58.6589 7.47462 58.694 7.11911 58.6256 6.77618C58.5572 6.43325 58.3883 6.11835 58.1405 5.87143C57.8926 5.62451 57.5769 5.4567 57.2334 5.3893C56.8899 5.3219 56.5342 5.35794 56.2112 5.49285C55.8883 5.62776 55.6127 5.85546 55.4195 6.14706C55.2264 6.43866 55.1242 6.78101 55.1261 7.13068C55.1287 7.59627 55.3153 8.04199 55.6453 8.37077C55.9753 8.69954 56.422 8.88473 56.8881 8.88599Z" fill="#1A1A1A"/>
</g>
</svg>
