<svg width="101" height="37" viewBox="0 0 101 37" fill="none" xmlns="http://www.w3.org/2000/svg">
<g opacity="0.7" clip-path="url(#clip0_995_4142)">
<path d="M81.9387 7.60549C78.1481 9.92471 74.7961 12.6374 73.3523 14.5631C72.3195 15.9323 71.8632 17.2817 72.2625 17.7951C73.13 18.9164 74.3732 19.5635 76.1279 19.7976C76.8124 19.892 78.872 19.835 79.6254 19.7032C80.8804 19.4868 83.1563 18.9105 83.4278 18.7472C83.473 18.7216 83.4848 18.5131 83.4593 18.1571C83.4396 17.8521 83.4022 16.9906 83.3648 16.2431C83.3334 15.4956 83.2763 14.2976 83.2389 13.5816C83.2075 12.8655 83.1308 11.3391 83.0796 10.1903C82.9655 7.65467 82.9203 7.05274 82.8711 7.05864C82.8455 7.0606 82.4265 7.30846 81.9387 7.60549Z" fill="#C80525"/>
<path d="M86.6612 2.77623C86.2992 2.89032 85.8763 3.2444 85.6914 3.59455C85.5655 3.82863 85.5517 3.93092 85.5655 4.77285C85.5714 5.28036 85.6029 6.27572 85.6422 6.99174C85.6796 7.70777 85.7366 8.96278 85.776 9.7811C85.8153 10.5994 85.8704 11.8092 85.9019 12.4741C85.9334 13.133 86.0101 14.75 86.0671 16.0542C86.1242 17.3604 86.1812 18.4364 86.1871 18.4501C86.193 18.456 86.5668 18.336 87.0172 18.1708C88.9253 17.4922 90.2118 17.1322 91.8583 16.8155C92.474 16.7014 93.8982 16.5617 94.5001 16.5617C97.0278 16.5617 99.0638 17.4863 99.8998 19.0206L100.091 19.3825L100.097 19.1603C100.097 18.6468 99.8054 17.7341 99.3923 16.9414C99.1012 16.3709 99.0815 16.3512 93.5421 9.09458C89.5804 3.90338 89.1437 3.35259 88.8014 3.12441C88.5929 2.98475 88.2762 2.82738 88.0972 2.77623C87.7057 2.66411 87.0408 2.66411 86.6612 2.77623Z" fill="#C80525"/>
<path d="M93.4419 17.2895C92.7062 17.3662 92.5803 17.3839 91.7305 17.5491C91.1915 17.6573 89.8224 18.0055 89.1772 18.2081L88.7464 18.3419L88.7779 18.8927C88.7975 19.1976 88.8467 20.0965 88.8802 20.9011C88.9175 21.6997 88.9746 22.8839 89.0061 23.5311C89.0375 24.1783 89.1142 25.7185 89.1654 26.9539C89.2224 28.1892 89.2854 29.3931 89.311 29.6291L89.3562 30.0599L90.1489 29.578C93.1016 27.7899 95.7198 25.8267 97.5059 24.0386C99.2547 22.3017 100.059 21.0093 100.11 19.8743C100.13 19.5123 100.116 19.4808 99.8566 19.1327C99.5773 18.7707 99.0324 18.3025 98.5898 18.0488C97.321 17.3347 95.5132 17.0692 93.4419 17.2895Z" fill="#C80525"/>
<path d="M72.1482 17.9623C72.1482 18.279 72.3567 19.0659 72.5987 19.6363C72.8386 20.2265 73.295 20.9228 74.2156 22.1208C74.5953 22.6086 75.7421 24.1115 76.7571 25.4472C77.7781 26.7789 79.5701 29.1296 80.7366 30.662C81.909 32.1963 82.9732 33.5575 83.101 33.6913C83.2269 33.8251 83.5456 34.0395 83.8053 34.1673C84.2361 34.3837 84.3128 34.3955 84.8518 34.4014C85.3593 34.4014 85.4734 34.3818 85.7901 34.2244C86.2346 34.008 86.512 33.6854 86.6399 33.2487C86.7225 32.9635 86.7284 32.7156 86.6654 31.4429C86.6281 30.6324 86.571 29.3637 86.5395 28.6358C86.394 25.4354 86.1855 21.0566 86.1087 19.4711L86.0635 18.6154L85.2078 18.9262C83.3882 19.5911 81.5765 20.0789 80.0422 20.3268C76.3598 20.9169 73.5586 20.1104 72.3862 18.1394L72.1521 17.7341V17.9623H72.1482Z" fill="#C80525"/>
<path d="M38.1186 9.42715C37.9396 9.52551 37.7743 9.54321 37.0721 9.55108C35.7364 9.55108 35.6577 9.64943 35.6577 11.2428V12.2578H37.0426H38.4274V10.7805C38.4274 9.96811 38.4097 9.30322 38.3841 9.30322C38.3527 9.31109 38.2366 9.36027 38.1186 9.42715Z" fill="#C80525"/>
<path d="M35.8915 13.6053C34.7034 13.9259 33.9539 14.6518 33.6589 15.7711C33.5428 16.2019 33.5428 17.0438 33.6589 17.5435C33.8733 18.4483 34.4339 19.2411 35.0929 19.5617C35.4371 19.7348 35.4627 19.7348 36.8594 19.7643L38.2737 19.7958L38.256 19.9492C38.2442 20.0358 38.1754 20.1636 38.1026 20.2384L37.9786 20.38H35.506C32.7992 20.38 32.5278 20.3486 32.2819 20.0299C32.158 19.8764 32.1521 19.7958 32.1521 18.0116V16.1527L31.8314 16.2629C31.6524 16.3239 31.377 16.373 31.2216 16.3789C30.8085 16.3789 30.1889 16.5874 29.9174 16.8156C29.7876 16.9199 29.6224 17.1225 29.5476 17.2582C29.4119 17.51 29.4119 17.573 29.3824 20.4076C29.3509 23.2186 29.345 23.311 29.2093 23.6435C28.9516 24.2965 28.4224 24.745 27.7261 24.9044C27.4979 24.9595 26.9392 24.9909 26.0403 24.9909C24.8089 24.9909 24.681 25.0027 24.4528 25.1149C23.9787 25.3607 23.721 25.9764 23.721 26.8754C23.721 27.1272 23.6896 27.3928 23.6601 27.4596C23.5991 27.5757 23.6345 27.5757 25.7708 27.5757C27.7772 27.5757 27.9857 27.5639 28.4657 27.4459C29.7876 27.1134 30.8341 26.2518 31.4734 24.9594C31.7941 24.3142 31.9908 23.6985 32.0576 23.1143C32.1009 22.7996 32.1186 22.7701 32.2367 22.7937C33.2773 23.0278 33.2458 23.0278 35.7676 23.0219C37.2449 23.0219 38.3701 22.9904 38.5353 22.955C39.4028 22.7642 40.3372 22.0068 40.7503 21.1885L40.9785 20.7203V18.7237C40.9785 16.792 40.9726 16.6996 40.8368 16.257C40.3746 14.7856 39.5327 13.9122 38.2717 13.5797C37.7485 13.446 36.4325 13.4578 35.8915 13.6053ZM37.4298 16.2629C37.7249 16.4104 38.0573 16.8471 38.0573 17.0989C38.0573 17.2405 38.0514 17.2405 37.2016 17.2405C36.3459 17.2405 36.34 17.2405 36.2181 17.0812C35.9899 16.792 36.0942 16.3239 36.4207 16.196C36.6666 16.0976 37.1466 16.1271 37.4298 16.2629Z" fill="#C80525"/>
<path d="M49.4388 14.9959C48.294 15.1927 47.4816 15.7592 47.0094 16.6818C46.6101 17.4745 46.4862 18.8711 46.7026 20.1694L46.7459 20.4271L46.3269 20.3956C45.7171 20.3524 45.2863 20.2225 45.1387 20.0317C45.0148 19.8724 45.0089 19.7917 45.0089 18.0076V16.1487L44.6883 16.2588C44.5093 16.3198 44.2339 16.369 44.0785 16.3749C43.6595 16.3749 43.0084 16.5972 42.7566 16.8175C42.6405 16.9217 42.4792 17.1244 42.4064 17.2601C42.2707 17.506 42.2707 17.5807 42.2412 20.4035C42.2097 23.2696 42.2038 23.3011 42.0622 23.665C41.8655 24.1568 41.4032 24.6131 40.9173 24.8039C40.5731 24.9397 40.4373 24.9515 39.0092 24.9888C37.7424 25.0144 37.4395 25.038 37.286 25.1187C36.8316 25.3705 36.6271 25.8327 36.5916 26.712C36.5798 27.0681 36.5366 27.4064 36.5051 27.4635C36.4559 27.5677 36.572 27.5736 38.6276 27.5736C41.0648 27.5736 41.4032 27.5303 42.251 27.1054C43.6595 26.3973 44.706 24.8177 44.9145 23.0748L44.9578 22.7306L45.3217 22.8408C45.5184 22.9017 45.9747 22.9883 46.3308 23.0316L46.976 23.1063V23.482C46.976 23.9364 47.1235 24.9102 47.2593 25.3587C47.6232 26.5763 48.3982 27.3572 49.5608 27.672C50.145 27.8313 51.5731 27.8195 52.2124 27.6464C52.9009 27.4615 53.3691 27.2038 53.733 26.8104C54.1579 26.3422 54.2681 25.998 54.2622 25.2052C54.2563 24.5521 54.1028 23.9876 53.7704 23.4093C53.6897 23.2676 53.6229 23.1378 53.6229 23.1201C53.6229 23.1024 56.1093 23.0827 59.1485 23.0827C65.276 23.0827 65.1167 23.0945 65.516 22.6893C65.8484 22.3628 65.9468 22.0795 65.9901 21.3536C66.0156 20.8914 66.0569 20.6514 66.1317 20.5353L66.2359 20.376H59.837C55.7768 20.376 53.438 20.3504 53.438 20.315C53.438 20.2835 53.493 20.1242 53.554 19.959C53.7999 19.3373 53.9415 18.4462 53.9179 17.744C53.8747 16.6975 53.554 16.0267 52.8714 15.5546C52.0846 15.0136 50.6624 14.7874 49.4388 14.9959ZM51.044 17.6279C51.6656 18.0469 51.3823 19.2587 50.5266 19.8488C50.2493 20.0396 49.5923 20.317 49.4251 20.317C49.3877 20.317 49.3759 19.9235 49.3877 19.3452C49.4054 18.4895 49.4251 18.3479 49.547 18.1217C49.7988 17.6417 50.0211 17.5001 50.5188 17.4942C50.7489 17.4883 50.8905 17.5237 51.044 17.6279ZM50.1273 23.0926C51.3095 23.5607 51.7639 23.9974 51.703 24.6249C51.6656 25.0243 51.4197 25.3882 51.1364 25.4865C50.5581 25.6773 49.7083 25.038 49.4683 24.2374C49.3385 23.7948 49.3444 22.8408 49.4742 22.8408C49.488 22.8408 49.7831 22.9509 50.1273 23.0926Z" fill="#C80525"/>
<path d="M6.34163 16.2686C6.1764 16.3237 5.91084 16.3729 5.76331 16.3788C5.27743 16.3788 4.67353 16.6011 4.37846 16.8903C3.90439 17.3388 3.89849 17.4135 3.92996 20.612C3.94767 23.1968 3.96144 23.3935 4.0834 23.8794C4.47682 25.3803 5.44267 26.6609 6.58752 27.2077C7.36256 27.5775 7.46682 27.5893 10.2798 27.5638L12.8016 27.5461L13.2934 27.3808C13.5648 27.2884 13.9642 27.1094 14.1865 26.9815C14.7392 26.6609 15.5713 25.8189 15.89 25.2406C16.2106 24.6682 16.5234 23.7456 16.5785 23.2106C16.6099 22.9037 16.6394 22.8171 16.7083 22.8348C16.7575 22.8467 16.9424 22.9017 17.1076 22.9588C17.3712 23.0394 18.0302 23.0571 21.8326 23.0748C25.7885 23.0925 26.294 23.0807 26.6009 22.9883C27.2894 22.7916 27.6592 22.17 27.6592 21.21C27.6592 20.8835 27.6847 20.7733 27.7693 20.7123C27.8559 20.6455 27.0179 20.6317 22.706 20.6258H17.5325L17.261 20.4842C17.1076 20.4094 16.9227 20.256 16.848 20.1399C16.7063 19.9373 16.7063 19.8999 16.7063 18.041V16.1526L16.3857 16.2627C16.2067 16.3237 15.9313 16.3729 15.7759 16.3788C15.3274 16.3788 14.7058 16.6011 14.4225 16.8529C13.9484 17.2837 13.974 17.1165 13.9366 20.3779C13.9052 23.2322 13.8993 23.307 13.7635 23.6453C13.4921 24.3161 12.9511 24.7705 12.2253 24.9259C12.0403 24.9633 11.3027 24.9928 10.5021 24.9928C8.39726 24.9928 7.6596 24.8334 7.16782 24.2669C6.70555 23.7496 6.71342 23.8046 6.67604 19.7642L6.64457 16.1644L6.34163 16.2686Z" fill="#C80525"/>
<path d="M20.7742 16.491C20.6503 16.5717 20.4299 16.6012 19.6982 16.6267C18.2779 16.6759 18.2465 16.7133 18.2465 18.3185V19.3945L19.6175 19.3827L20.9827 19.365L21.0004 17.87C21.0063 17.0516 20.9945 16.3809 20.9689 16.3868C20.9414 16.3868 20.8548 16.4359 20.7742 16.491Z" fill="#C80525"/>
<path d="M24.1579 16.491C24.0339 16.5717 23.8136 16.6012 23.0819 16.6267C21.6616 16.6759 21.6301 16.7133 21.6301 18.3185V19.3945L23.0012 19.3827L24.3664 19.365L24.3841 17.87C24.39 17.0516 24.3782 16.3809 24.3526 16.3868C24.3251 16.3868 24.2385 16.4359 24.1579 16.491Z" fill="#C80525"/>
<path d="M27.5435 16.491C27.4196 16.5717 27.1993 16.6012 26.4616 16.6267C25.4525 16.6641 25.3108 16.7074 25.0964 17.0398C24.9981 17.1815 24.9863 17.3605 24.9863 18.289V19.365L26.3573 19.3827L27.7225 19.3945V17.8877C27.7225 17.0575 27.7166 16.3809 27.7107 16.3868C27.6969 16.3868 27.6222 16.4359 27.5435 16.491Z" fill="#C80525"/>
<path d="M58.822 16.4969C58.6863 16.5717 58.409 16.6012 57.746 16.6267C56.7133 16.6641 56.5776 16.7133 56.3868 17.15C56.2825 17.39 56.2707 17.5434 56.2825 18.3932L56.3002 19.365L57.6713 19.3827L59.0365 19.3945V17.8877C59.0365 17.0575 59.0306 16.3809 59.0247 16.3868C59.0129 16.3927 58.9263 16.4418 58.822 16.4969Z" fill="#C80525"/>
<path d="M62.174 16.5085C62.0009 16.595 61.8179 16.6186 61.2455 16.6245C60.3288 16.6245 60.1754 16.6619 59.9236 16.9137L59.7151 17.1222V18.2533V19.3923H61.0685H62.4218V17.8855C62.4218 17.0553 62.4159 16.3787 62.41 16.3846C62.3963 16.3924 62.292 16.4416 62.174 16.5085Z" fill="#C80525"/>
<path d="M65.5893 16.491C65.4477 16.5717 65.1959 16.6012 64.4995 16.6267C63.7127 16.6523 63.577 16.6759 63.4235 16.7861C63.0852 17.032 63.036 17.2287 63.036 18.3617V19.3945H64.4209H65.8057V17.8877C65.8057 17.0575 65.7998 16.3809 65.7939 16.3809C65.7801 16.3868 65.6936 16.43 65.5893 16.491Z" fill="#C80525"/>
</g>
<defs>
<clipPath id="clip0_995_4142">
<rect width="100.716" height="35.4079" fill="white" transform="translate(0.170837 0.842529)"/>
</clipPath>
</defs>
</svg>
