<svg width="101" height="29" viewBox="0 0 101 29" fill="none" xmlns="http://www.w3.org/2000/svg">
<g opacity="0.7">
<path d="M14.7961 3.56996C14.0974 4.92132 12.5337 5.57713 11.0764 5.14655C10.584 5.00081 10.0783 4.92132 9.55931 4.92132C8.50797 4.92132 7.10397 5.53075 7.10397 6.74963C7.10397 8.02812 8.65436 8.52494 9.64582 8.84291L11.1031 9.28011C14.1639 10.181 16.5328 11.7179 16.5328 15.2685C16.5328 17.4479 16.0071 19.6869 14.2571 21.1641C12.5337 22.6148 10.2314 23.2309 8.00892 23.2309C5.24748 23.2309 2.54593 22.3101 0.303516 20.7534C0.290208 20.7401 0.283554 20.7203 0.290208 20.707L2.72559 16.1495C4.15622 17.3949 5.84635 18.415 7.80264 18.415C9.14676 18.415 10.5774 17.746 10.5774 16.2091C10.5774 14.6127 8.32831 14.0562 7.10397 13.7118C3.51077 12.685 1.14858 11.751 1.14858 7.51142C1.14858 3.06651 4.32922 0.158447 8.73421 0.158447C10.9434 0.158447 13.6383 0.847374 15.5879 1.94038C15.6079 1.94701 15.6145 1.97351 15.6012 1.99338L14.7961 3.56996Z" fill="#00E261" fill-opacity="0.6"/>
<path d="M22.901 9.65786C22.9143 9.65786 22.9276 9.65124 22.9343 9.63799C24.1586 7.84943 25.6425 7.23999 27.7119 7.23999C31.7376 7.23999 33.3479 9.77047 33.3479 13.4271V19.5016C33.3479 21.2438 31.9306 22.6481 30.1872 22.6481H28.0779C28.0579 22.6481 28.0379 22.6282 28.0379 22.6084V15.3813C28.0379 13.957 28.2708 11.4597 25.6425 11.4597C23.4799 11.4597 22.8677 13.0561 22.8677 14.9176V19.5016C22.8677 21.2438 21.4504 22.6481 19.7071 22.6481H17.5977C17.5778 22.6481 17.5578 22.6282 17.5578 22.6084V7.78318C17.5578 7.76331 17.5778 7.74344 17.5977 7.74344H22.8345C22.8544 7.74344 22.8744 7.76331 22.8744 7.78318V9.62474C22.8611 9.64461 22.881 9.65786 22.901 9.65786Z" fill="#00E261" fill-opacity="0.6"/>
<path d="M48.6391 22.6481H46.5297C46.5098 22.6481 46.4898 22.6282 46.4898 22.6083V21.0251C46.4898 21.0053 46.4699 20.9854 46.4499 20.9854C46.4366 20.9854 46.4233 20.992 46.4166 21.0053C45.4851 22.4825 43.6552 23.1449 41.9118 23.1449C37.4736 23.1449 34.3528 19.4552 34.3528 15.1825C34.3528 10.9098 37.4137 7.24658 41.8519 7.24658C43.5421 7.24658 45.3121 7.86264 46.4299 9.11463C46.4499 9.14113 46.4965 9.12788 46.4965 9.08814V7.77653C46.4965 7.75665 46.5164 7.73678 46.5364 7.73678H51.7731C51.7931 7.73678 51.8131 7.75665 51.8131 7.77653V19.5015C51.8064 21.2371 50.3891 22.6481 48.6391 22.6481ZM39.8358 15.209C39.8358 17.0969 41.0934 18.5543 43.2493 18.5543C45.4052 18.5543 46.6628 17.1035 46.6628 15.209C46.6628 13.3807 45.4052 11.8372 43.2493 11.8372C41.0934 11.8372 39.8358 13.3807 39.8358 15.209Z" fill="#00E261" fill-opacity="0.6"/>
<path d="M58.7801 9.42598C58.7934 9.42598 58.8067 9.41935 58.8133 9.4061C59.7782 7.93551 61.5814 7.24658 63.3248 7.24658C67.7897 7.24658 70.8838 10.9628 70.8838 15.2355C70.8838 19.5347 67.8163 23.1383 63.3847 23.1383C61.6679 23.1383 59.8913 22.5288 58.7534 21.2305C58.7468 21.2239 58.7468 21.2305 58.7468 21.2305V25.7814C58.7468 27.5236 57.3295 28.9279 55.5861 28.9279H53.4368V7.7434H58.7468V9.39285C58.7401 9.41273 58.7601 9.42598 58.7801 9.42598ZM58.5671 15.209C58.5671 17.0969 59.8247 18.5543 61.9807 18.5543C64.1432 18.5543 65.3942 17.1035 65.3942 15.209C65.3942 13.3807 64.1366 11.8372 61.9807 11.8372C59.8247 11.8372 58.5671 13.3807 58.5671 15.209Z" fill="#00E261" fill-opacity="0.6"/>
<path d="M77.2248 9.42598C77.2381 9.42598 77.2514 9.41935 77.2581 9.4061C78.2229 7.93551 80.0261 7.24658 81.7695 7.24658C86.2344 7.24658 89.3285 10.9628 89.3285 15.2355C89.3285 19.5347 86.261 23.1383 81.8294 23.1383C80.1393 23.1383 78.3959 22.5487 77.2514 21.2967C77.2314 21.2702 77.1849 21.2835 77.1849 21.3232V25.788C77.1849 27.5302 75.7675 28.9345 74.0242 28.9345H71.9148C71.8949 28.9345 71.8749 28.9147 71.8749 28.8948V7.78315C71.8749 7.76328 71.8949 7.7434 71.9148 7.7434H77.1516C77.1716 7.7434 77.1915 7.76328 77.1915 7.78315V9.39285C77.1849 9.41273 77.2048 9.42598 77.2248 9.42598ZM77.0119 15.209C77.0119 17.0969 78.2628 18.5543 80.4254 18.5543C82.588 18.5543 83.8389 17.1035 83.8389 15.209C83.8389 13.3807 82.5813 11.8372 80.4254 11.8372C78.2695 11.8372 77.0119 13.3807 77.0119 15.209Z" fill="#00E261" fill-opacity="0.6"/>
<path d="M95.5436 0.741455L91.9438 14.5068H94.9381C96.3887 14.5068 97.653 13.533 98.0123 12.1353L101 0.741455H95.5436Z" fill="#00E261" fill-opacity="0.6"/>
<path fill-rule="evenodd" clip-rule="evenodd" d="M93.7399 16.4478C95.5964 16.4478 97.1002 17.9448 97.1002 19.793C97.1002 21.6412 95.5964 23.1383 93.7399 23.1383C91.8834 23.1383 90.3796 21.6412 90.3796 19.793C90.3796 17.9515 91.8834 16.4478 93.7399 16.4478Z" fill="#00E261" fill-opacity="0.6"/>
<path d="M92.0898 1.01968H92.0965L92.5157 2.1723H92.702L93.1212 1.01968H93.1279V2.1723H93.4406V0.741455H92.9349L92.6089 1.58937L92.2828 0.741455H91.7771V2.1723H92.0898V1.01968Z" fill="#00E261" fill-opacity="0.6"/>
<path d="M90.8188 2.1723H91.1648V1.01968H91.6039V0.741455H90.3796V1.01968H90.8188V2.1723Z" fill="#00E261" fill-opacity="0.6"/>
</g>
</svg>
