<svg width="84" height="58" viewBox="0 0 84 58" fill="none" xmlns="http://www.w3.org/2000/svg">
<g clip-path="url(#clip0_1608_5522)">
<path d="M60.7972 3.04111C60.7126 1.99701 59.926 1.09821 58.8566 0.853271L2.12595 0.853271C1.05657 1.09821 0.27105 1.99597 0.185376 3.04111C0.0893799 4.22117 0.906896 5.34831 2.12595 5.6358C3.07249 5.64825 4.22961 5.60466 5.17615 5.61712L5.17925 33.3086C5.17925 36.6091 7.85372 39.2785 11.1362 39.2546L24.7088 39.156C26.5606 39.1425 28.0687 40.6475 28.0687 42.5094L28.0687 49.732C28.0687 50.939 27.0953 51.9188 25.8938 51.9188L23.6921 51.9188C22.4916 51.9188 21.5172 52.8975 21.5172 54.1056C21.5172 55.3126 22.4906 56.2924 23.6921 56.2924L37.2895 56.2924C38.4899 56.2924 39.4644 55.3137 39.4644 54.1056C39.4644 52.8985 38.491 51.9188 37.2895 51.9188L35.0878 51.9188C33.8873 51.9188 32.9129 50.9401 32.9129 49.732L32.9129 42.4855C32.9129 40.6329 34.4065 39.1322 36.248 39.1322L49.7896 39.1322C53.0566 39.1322 55.7042 36.47 55.7042 33.1851L55.7042 23.7768C55.7042 23.1925 55.1056 22.8033 54.575 23.041C49.3334 25.3907 48.2723 25.2942 48.2723 25.2942C48.2723 25.2942 45.8497 25.1831 45.8486 22.7483C45.8476 19.3357 53.5005 15.8443 55.5277 14.9798C55.824 14.8532 56.016 14.5615 56.016 14.2377L56.016 5.67109C56.9625 5.65863 57.9091 5.64721 58.8556 5.63476C60.0747 5.34727 60.8922 4.22014 60.7962 3.04007L60.7972 3.04111Z" fill="#E5E7EB"/>
<path d="M69.7384 35.48C70.5683 35.5226 71.2052 36.2418 71.2052 37.0773L71.2052 54.9786C71.2052 55.6906 71.5231 56.3756 72.096 56.7949C72.4893 57.0834 72.9744 57.2401 73.4761 57.2121C74.0583 57.1789 74.5919 56.9018 74.9697 56.4721C75.3227 56.0694 75.4992 55.5401 75.4992 55.0035L75.4992 21.3172C75.4992 20.8958 76.0783 20.7848 76.2321 21.1771L80.8389 32.877C81.1785 33.5506 81.9186 33.8838 82.5596 33.7073C83.3255 33.4967 83.8251 32.5906 83.5371 31.7146C81.9042 26.6405 80.2712 21.5663 78.6372 16.4921C78.6372 16.4921 77.8661 12.5067 72.416 12.1746L66.1019 12.1746C64.5061 12.1746 62.9371 12.5835 61.5426 13.3619L48.9743 20.3769C48.7421 20.5066 48.5398 20.6893 48.4035 20.9187C48.1248 21.3878 48.0742 21.9659 48.29 22.4703C48.3044 22.5035 48.3189 22.5357 48.3354 22.5678C48.7029 23.2912 49.5854 23.5798 50.3317 23.2663C52.3848 22.4039 54.4957 21.559 56.6468 20.6903C60.0748 19.3048 63.4605 17.8559 63.5059 18.0904L63.4708 54.9443C63.4708 55.181 63.5018 55.4176 63.5782 55.6408C63.8796 56.5188 64.6744 57.1488 65.5899 57.2048C66.329 57.2505 67.0309 56.9153 67.4872 56.3527C67.8257 55.9355 67.9847 55.4 67.9651 54.8613C67.8619 51.9771 68.092 39.7862 68.1117 37.0234C68.1178 36.1422 68.8528 35.4364 69.7384 35.4811V35.48Z" fill="#004FFF"/>
<path d="M70.2094 10.7912C72.6421 10.7912 74.6142 8.80843 74.6142 6.36257C74.6142 3.91672 72.6421 1.93396 70.2094 1.93396C67.7768 1.93396 65.8047 3.91672 65.8047 6.36257C65.8047 8.80843 67.7768 10.7912 70.2094 10.7912Z" fill="#004FFF"/>
<path d="M15.9299 31.8693C13.9624 31.8693 12.3613 30.2596 12.3613 28.2814C12.3613 26.3032 13.9624 24.6935 15.9299 24.6935C17.8974 24.6935 19.4985 26.3032 19.4985 28.2814C19.4985 30.2596 17.8974 31.8693 15.9299 31.8693ZM15.9299 25.8362C14.588 25.8362 13.4968 26.9332 13.4968 28.2825C13.4968 29.6317 14.588 30.7287 15.9299 30.7287C17.2719 30.7287 18.363 29.6317 18.363 28.2825C18.363 26.9332 17.2719 25.8362 15.9299 25.8362Z" fill="#0A1128"/>
<path d="M17.821 23.8568C17.7643 23.8568 17.7075 23.8485 17.6507 23.8298C17.3524 23.7354 17.1862 23.4157 17.2802 23.1158C17.3132 23.011 18.1111 20.5149 20.6679 17.969C23.009 15.6369 27.3371 12.8201 34.6565 12.6488C34.9724 12.6395 35.2304 12.8906 35.2376 13.2062C35.2449 13.5217 34.9971 13.7832 34.6833 13.7905C29.2116 13.9181 24.6564 15.6285 21.5112 18.737C19.132 21.0867 18.3712 23.4365 18.363 23.4593C18.2866 23.7022 18.0626 23.8579 17.821 23.8579L17.821 23.8568Z" fill="#0A1128"/>
<path d="M37.7167 13.2955L33.3945 14.9852L34.4433 13.2395L33.4544 11.4585L37.7167 13.2955Z" fill="#0A1128"/>
<path d="M44.5996 9.64221L42.6042 9.64221L41.6762 11.6858L40.7523 9.64948L38.7559 9.64948L40.5871 12.6386L38.8529 15.5238L40.6697 15.5238L41.6793 13.3682L42.6868 15.5166L44.5036 15.5166L42.7694 12.6313L44.5996 9.64221Z" fill="#0A1128"/>
</g>
<defs>
<clipPath id="clip0_1608_5522">
<rect width="83.4383" height="56.3607" fill="white" transform="translate(0.177734 0.853271)"/>
</clipPath>
</defs>
</svg>
