<svg width="53" height="53" viewBox="0 0 53 53" fill="none" xmlns="http://www.w3.org/2000/svg">
<path d="M37.3797 13.1939L15.3917 13.1939C12.963 13.1939 10.9941 11.2249 10.9941 8.79605C10.9941 6.36718 12.963 4.39819 15.3917 4.39819L37.3797 4.39819C39.8084 4.39819 41.7773 6.36718 41.7773 8.79605C41.7773 11.2249 39.8084 13.1939 37.3797 13.1939Z" fill="#004FFF"/>
<path d="M37.3973 13.194L15.3741 13.194L11.6053 24.9102C10.5127 27.6693 10.8998 30.7439 12.6485 33.1972L24.2928 47.3346C25.2833 48.7242 27.4882 48.7242 28.4787 47.3346L40.1229 33.1972C41.8717 30.7439 42.2587 27.6693 41.1661 24.9102L37.3973 13.194Z" fill="#E5E7EB"/>
<path d="M28.035 30.4657C29.6466 29.8132 30.7835 28.2331 30.7835 26.3875C30.7835 23.9586 28.8146 21.9896 26.3859 21.9896C23.9571 21.9896 21.9883 23.9586 21.9883 26.3875C21.9883 28.2331 23.1252 29.8132 24.7368 30.4657L24.7368 47.8071C25.6726 48.5666 27.0991 48.5666 28.035 47.8071L28.035 30.4657Z" fill="#004FFF"/>
</svg>
