<svg width="130" height="69" viewBox="0 0 130 69" fill="none" xmlns="http://www.w3.org/2000/svg">
<path d="M121.058 42.1688L121.058 31.5554C121.058 24.2284 115.119 18.2886 107.792 18.2886L107.458 18.2886C106.28 13.711 102.125 10.3286 97.1795 10.3286C92.2344 10.3286 88.0792 13.711 86.9011 18.2886L86.5667 18.2886C79.2402 18.2886 73.3008 24.2284 73.3008 31.5554L73.3008 42.1688C73.3008 49.4958 79.2402 55.4355 86.5667 55.4355L107.792 55.4355C115.119 55.4355 121.058 49.4958 121.058 42.1688Z" fill="#E5E7EB"/>
<path d="M105.138 36.862C105.138 41.2582 101.574 44.822 97.1783 44.822C92.7824 44.822 89.2188 41.2582 89.2188 36.862C89.2188 32.4658 92.7824 28.902 97.1783 28.902C101.574 28.902 105.138 32.4658 105.138 36.862Z" fill="#004FFF"/>
<path d="M99.8318 19.6154C99.8318 21.0808 98.6439 22.2687 97.1786 22.2687C95.7133 22.2687 94.5254 21.0808 94.5254 19.6154C94.5254 18.15 95.7133 16.962 97.1786 16.962C98.6439 16.962 99.8318 18.15 99.8318 19.6154Z" fill="#0A1128"/>
<path d="M6.0918 26.1941C6.0918 19.9282 11.171 14.8488 17.4365 14.8488L37.2897 14.8488C43.5552 14.8488 48.6343 19.9282 48.6343 26.1941L48.6343 43.2121C48.6343 49.478 43.5552 54.5574 37.2897 54.5574L17.4365 54.5574C11.171 54.5574 6.0918 49.478 6.0918 43.2121L6.0918 26.1941Z" fill="#E5E7EB"/>
<path d="M48.6348 27.1397L53.0051 22.4778C56.5221 18.7261 62.8156 21.2151 62.8156 26.3576L62.8156 43.049C62.8156 48.1915 56.522 50.6804 53.0051 46.9288L48.6348 42.2669L48.6348 27.1397Z" fill="#004FFF"/>
<path d="M40.1279 29.0305C40.1279 32.1634 37.5883 34.7031 34.4555 34.7031C31.3228 34.7031 28.7832 32.1634 28.7832 29.0305C28.7832 25.8975 31.3228 23.3578 34.4555 23.3578C37.5883 23.3578 40.1279 25.8975 40.1279 29.0305Z" fill="#004FFF"/>
</svg>
