<svg width="20" height="21" viewBox="0 0 20 21" fill="none" xmlns="http://www.w3.org/2000/svg">
<path d="M19.2 18.3667V16.611C19.2 15.7387 18.6689 14.9542 17.859 14.6302L15.6892 13.7623C14.6591 13.3503 13.485 13.7966 12.9888 14.789L12.8 15.1667C12.8 15.1667 10.1333 14.6333 8 12.5C5.86667 10.3667 5.33333 7.69999 5.33333 7.69999L5.71095 7.51118C6.70334 7.01499 7.14971 5.84093 6.73765 4.81077L5.86975 2.64102C5.54577 1.83108 4.76133 1.29999 3.889 1.29999H2.13333C0.955126 1.29999 0 2.25511 0 3.43332C0 12.859 7.64101 20.5 17.0667 20.5C18.2449 20.5 19.2 19.5449 19.2 18.3667Z" fill="white"/>
<path fill-rule="evenodd" clip-rule="evenodd" d="M9.86667 5.56666C9.86667 5.12483 10.2248 4.76666 10.6667 4.76666C11.332 4.76666 11.9909 4.89772 12.6056 5.15234C13.2203 5.40696 13.7789 5.78017 14.2493 6.25065C14.7198 6.72114 15.093 7.27968 15.3477 7.8944C15.6023 8.50912 15.7333 9.16797 15.7333 9.83333C15.7333 10.2752 15.3752 10.6333 14.9333 10.6333C14.4915 10.6333 14.1333 10.2752 14.1333 9.83333C14.1333 9.37808 14.0437 8.92729 13.8695 8.50669C13.6952 8.0861 13.4399 7.70394 13.118 7.38203C12.7961 7.06012 12.4139 6.80476 11.9933 6.63055C11.5727 6.45633 11.1219 6.36666 10.6667 6.36666C10.2248 6.36666 9.86667 6.00849 9.86667 5.56666Z" fill="white"/>
<path fill-rule="evenodd" clip-rule="evenodd" d="M9.86667 1.3C9.86667 0.858172 10.2248 0.5 10.6667 0.5C11.8923 0.5 13.106 0.741414 14.2384 1.21046C15.3708 1.6795 16.3997 2.36699 17.2663 3.23367C18.133 4.10035 18.8205 5.12925 19.2895 6.26162C19.7586 7.39399 20 8.60766 20 9.83333C20 10.2752 19.6418 10.6333 19.2 10.6333C18.7582 10.6333 18.4 10.2752 18.4 9.83333C18.4 8.81778 18.2 7.81217 17.8113 6.87391C17.4227 5.93566 16.8531 5.08315 16.135 4.36504C15.4169 3.64693 14.5643 3.0773 13.6261 2.68866C12.6878 2.30003 11.6822 2.1 10.6667 2.1C10.2248 2.1 9.86667 1.74183 9.86667 1.3Z" fill="white"/>
</svg>
