<svg width="52" height="58" viewBox="0 0 52 58" fill="none" xmlns="http://www.w3.org/2000/svg">
<path d="M23.2026 53.4134L22.5945 37.3341L15.0895 35.23L15.894 53.5524C15.931 54.3948 16.6272 55.0577 17.474 55.0568L21.6189 55.0525C22.5173 55.0516 23.2364 54.3073 23.2026 53.4134Z" fill="#0A1128"/>
<path d="M33.5419 13.1653C36.6764 12.2053 39.8497 14.5382 39.8497 17.8025L39.8497 38.6264C39.8497 41.8906 36.6764 44.2235 33.5419 43.2635L7.40503 35.3563L7.40503 20.8012L33.5419 13.1653Z" fill="#A2A5AD"/>
<path d="M9.14319 5.2658L9.14319 12.4672C9.14319 15.1187 11.2904 17.2681 13.9391 17.2681L17.0612 17.2681C20.1512 23.1253 20.1512 23.1253 22.3721 17.2922L25.9288 17.2681C28.5775 17.2681 30.7247 15.1187 30.7247 12.4672L30.7247 5.2658C30.7247 2.61432 28.5775 0.464866 25.9288 0.464866L13.9391 0.464866C11.2904 0.464867 9.14319 2.61432 9.14319 5.2658Z" fill="#004FFF"/>
<path fill-rule="evenodd" clip-rule="evenodd" d="M13.3916 3.82565C13.3916 3.34839 13.9796 2.96149 14.7048 2.96149L25.2107 2.96149C25.936 2.96149 26.524 3.34839 26.524 3.82565C26.524 4.30292 25.936 4.68982 25.2107 4.68982L14.7048 4.68982C13.9796 4.68982 13.3916 4.30292 13.3916 3.82565Z" fill="#A2A5AD"/>
<path fill-rule="evenodd" clip-rule="evenodd" d="M13.3916 8.81857C13.3916 8.34131 13.9796 7.95441 14.7048 7.95441L25.2107 7.95441C25.936 7.95441 26.524 8.34131 26.524 8.81857C26.524 9.29584 25.936 9.68274 25.2107 9.68274L14.7048 9.68274C13.9796 9.68274 13.3916 9.29584 13.3916 8.81857Z" fill="#A2A5AD"/>
<path fill-rule="evenodd" clip-rule="evenodd" d="M13.3916 13.8117C13.3916 13.3345 13.9796 12.9476 14.7048 12.9476L25.2107 12.9476C25.936 12.9476 26.524 13.3345 26.524 13.8117C26.524 14.289 25.936 14.6759 25.2107 14.6759L14.7048 14.6759C13.9796 14.6759 13.3916 14.289 13.3916 13.8117Z" fill="#A2A5AD"/>
<path d="M8.17786 34.4676L8.17786 22.3453C8.17786 20.3368 6.53504 18.7086 4.50852 18.7086C2.482 18.7086 0.839175 20.3368 0.839175 22.3453L0.839174 34.4676C0.839174 36.4761 2.48199 38.1043 4.50851 38.1043C6.53504 38.1043 8.17786 36.4761 8.17786 34.4676Z" fill="#0A1128"/>
<path fill-rule="evenodd" clip-rule="evenodd" d="M50.9113 19.8245C51.6127 20.5444 51.6127 21.7117 50.9113 22.4316L48.5166 24.8897C47.8152 25.6097 46.678 25.6097 45.9766 24.8897C45.2752 24.1698 45.2752 23.0025 45.9766 22.2825L48.3713 19.8245C49.0727 19.1045 50.2099 19.1045 50.9113 19.8245Z" fill="#004FFF"/>
<path fill-rule="evenodd" clip-rule="evenodd" d="M45.9766 31.9231C46.678 31.2031 47.8152 31.2031 48.5166 31.9231L50.9113 34.3812C51.6127 35.1011 51.6127 36.2684 50.9113 36.9883C50.2099 37.7083 49.0727 37.7083 48.3713 36.9883L45.9766 34.5303C45.2752 33.8103 45.2752 32.643 45.9766 31.9231Z" fill="#004FFF"/>
</svg>
