<svg width="20" height="21" viewBox="0 0 20 21" fill="none" xmlns="http://www.w3.org/2000/svg">
<path opacity="0.4" d="M4 20.5C5.86748 20.5 7.43606 19.2202 7.87657 17.4899C8.01283 16.9547 8.44771 16.5 9 16.5H16V3.5C16 1.84315 14.6569 0.5 13 0.5H3C1.34315 0.5 0 1.84315 0 3.5V16.5C0 18.7091 1.79086 20.5 4 20.5Z" fill="#F3F4F6"/>
<path d="M16 20.5C17.8675 20.5 19.4361 19.2202 19.8766 17.4899C20.0128 16.9547 19.5523 16.5 19 16.5H16H9C8.44772 16.5 8.01283 16.9547 7.87657 17.4899C7.43606 19.2202 5.86748 20.5 4 20.5H16Z" fill="#E5E7EB"/>
<path fill-rule="evenodd" clip-rule="evenodd" d="M7.25 9.67207C7.20334 9.637 7.15858 9.59822 7.11612 9.55576L5.53033 7.96997C5.23744 7.67708 4.76256 7.67708 4.46967 7.96997C4.17678 8.26287 4.17678 8.73774 4.46967 9.03063L6.05546 10.6164C7.1294 11.6904 8.8706 11.6904 9.94454 10.6164L11.5303 9.03063C11.8232 8.73774 11.8232 8.26287 11.5303 7.96997C11.2374 7.67708 10.7626 7.67708 10.4697 7.96997L8.88388 9.55576C8.84142 9.59822 8.79666 9.637 8.75 9.67207V5.5003C8.75 5.08609 8.41421 4.7503 8 4.7503C7.58579 4.7503 7.25 5.08609 7.25 5.5003V9.67207Z" fill="#E5E7EB"/>
</svg>
