<svg width="20" height="21" viewBox="0 0 20 21" fill="none" xmlns="http://www.w3.org/2000/svg">
<path fill-rule="evenodd" clip-rule="evenodd" d="M9.31682 3.19383C7.19313 1.54035 4.21271 0.791051 1.99433 0.512524C0.896423 0.374677 0 1.39336 0 2.6502V15.1666C0 16.4235 0.896423 17.4425 1.99433 17.5804C4.21271 17.8589 7.19313 18.6082 9.31682 20.2617C9.5209 20.4206 9.76045 20.5 10 20.5V3.43217C9.76045 3.43217 9.5209 3.35272 9.31682 3.19383ZM2.25894 6.21134C2.32234 5.75652 2.70556 5.44492 3.11489 5.51536C4.41767 5.73954 5.88481 6.11424 7.27061 6.70967C7.65695 6.87567 7.84902 7.35822 7.69963 7.78748C7.55023 8.21674 7.11594 8.43016 6.7296 8.26416C5.47096 7.72336 4.1141 7.37384 2.88532 7.16239C2.47599 7.09196 2.19555 6.66616 2.25894 6.21134ZM3.11489 9.95981C2.70556 9.88937 2.32234 10.201 2.25894 10.6558C2.19555 11.1106 2.47599 11.5364 2.88532 11.6068C3.50457 11.7134 4.15824 11.8553 4.81663 12.0399C5.21826 12.1525 5.62599 11.882 5.72732 11.4358C5.82865 10.9895 5.58521 10.5365 5.18358 10.4239C4.47457 10.2251 3.77462 10.0733 3.11489 9.95981Z" fill="#004FFF"/>
<path opacity="0.4" d="M10.6832 3.19383C12.8069 1.54035 15.7873 0.791051 18.0057 0.512524C19.1036 0.374677 20 1.39336 20 2.6502V15.1666C20 16.4235 19.1036 17.4425 18.0057 17.5804C15.7873 17.8589 12.8069 18.6082 10.6832 20.2617C10.4791 20.4206 10.2395 20.5 10 20.5V3.43217C10.2395 3.43217 10.4791 3.35272 10.6832 3.19383Z" fill="#004FFF"/>
<path fill-rule="evenodd" clip-rule="evenodd" d="M16.75 17.6072L17.4697 16.8076C17.7626 16.4822 18.2374 16.4822 18.5303 16.8076C18.8232 17.1331 18.8232 17.6607 18.5303 17.9861L17.2374 19.4227C16.554 20.182 15.446 20.182 14.7626 19.4227L13.4697 17.9861C13.1768 17.6607 13.1768 17.1331 13.4697 16.8076C13.7626 16.4822 14.2374 16.4822 14.5303 16.8076L15.25 17.6072V12.9524C15.25 12.4922 15.5858 12.1191 16 12.1191C16.4142 12.1191 16.75 12.4922 16.75 12.9524V17.6072Z" fill="#004FFF"/>
</svg>
